<?xml version="1.0" encoding="UTF-8"?>
<svg id="Layer_2" data-name="Layer 2" xmlns="http://www.w3.org/2000/svg" viewBox="0 0 78.33 116">
  <defs>
    <style>
      .cls-1 {
        stroke-width: 0px;
      }
    </style>
  </defs>
  <g id="vectors">
    <path class="cls-1" d="m77.81,34.28c-.78-7.51-2.08-16.53-6.17-23.02C64.76.34,48.72-2.61,37.43,2.3c-7.41,3.22-13.43,9.03-18.42,15.4C6.87,33.23.27,52.86,0,72.54c-.14,10.16,1.8,22.14,7.52,30.79,4.37,6.6,10.92,9.67,18.19,12.01,7.62,2.45,17.82-2.41,23.88-6.73,15.66-11.14,24.86-29.77,27.57-48.46,1.23-8.55,1.53-17.29.63-25.88Zm-46.59,49.39c-4.52-.16-7.91-2.53-8.49-7.27-.27-2.22.55-10.59,4.3-9.41.38.12.71.48.69.9-.11,2.35-.51,4.87-.37,7.22.18,3.05,1.79,5.26,4.31,6.89.71.46.47,1.69-.45,1.66Zm19.5-39.81c-1.94,10.9-6.76,21.29-13.91,29.76-1.04,1.22-2.51,2.53-4.03,2.03-.99-.32-1.61-1.35-1.76-2.38-.14-1.03.11-2.07.38-3.06,1.67-6.4,3.93-12.64,6.74-18.63,2.44-5.21,5.26-10.36,8.59-15.06,1.39-1.96,3.68-4.19,4.75-.64.67,2.23-.35,5.73-.75,7.97Zm19.07-22.57c-4.18-6.08-8.39-13.11-16.37-14.44-1.07-.18-.78-1.85.25-1.84,4.53.04,8.07.64,11.78,3.45,3.92,2.96,5.72,7.14,6.83,11.79.37,1.55-1.63,2.29-2.48,1.05Z"/>
  </g>
</svg>