<?xml version="1.0" encoding="UTF-8"?>
<svg id="Layer_2" data-name="Layer 2" xmlns="http://www.w3.org/2000/svg" viewBox="0 0 87.33 116">
  <defs>
    <style>
      .cls-1 {
        stroke-width: 0px;
      }
    </style>
  </defs>
  <g id="vectors">
    <path class="cls-1" d="m81.74,53.39c-2.21-6.99-4.42-14.06-5.23-21.38-.8-7.18,1.46-13.93.88-21.01-.26-3.18-1.34-6.44-3.73-8.55-4.38-3.86-11.16-2.52-16.61-.46C32.06,11.44,11.48,31.93,1.93,56.88.93,59.51.03,62.23,0,65.04c-.03,2.81.92,5.76,3.08,7.56,3.81,3.19,9.58,1.76,14.09-.33,4.53-2.11,8.8-4.75,12.72-7.84,3.39-2.67,6.52-5.67,9.31-8.95,1.02-1.19,2.85-3.89,2.58-.86-.17,1.92-2.25,4.67-3.16,6.37-4.32,8.14-9.53,15.8-15.52,22.8-2.48,2.9-5.11,5.71-6.91,9.07-1.8,3.36-2.69,7.41-1.44,11.01,1.09,3.12,3.68,5.54,6.61,7.07,2.93,1.53,6.2,2.27,9.45,2.9,14.81,2.87,31.58,4.45,43.93-5.87,6.02-5.03,10.26-12.14,11.83-19.83,2.36-11.6-1.27-23.48-4.84-34.76Zm-9.08-30.24c-.35.72-1.35.3-1.4-.38-.22-3.4-.53-7.7-2.36-10.69-1.62-2.66-6.13-4.17-8.74-2.23-.86.64-1.91-.77-1.14-1.47,3.57-3.21,8.45-4.43,12.13-.58,3.85,4.03,3.79,10.62,1.5,15.35Z"/>
  </g>
</svg>