<?xml version="1.0" encoding="UTF-8"?>
<svg id="Layer_2" data-name="Layer 2" xmlns="http://www.w3.org/2000/svg" viewBox="0 0 115.92 116">
  <defs>
    <style>
      .cls-1 {
        stroke-width: 0px;
      }
    </style>
  </defs>
  <g id="vectors">
    <path class="cls-1" d="m111.89,42.11c-3.97-2.79-9.42-1.06-13.79,1.02-11.04,5.24-20.99,12.2-30.07,20.4,2.81-5.75,7.22-11.07,10.8-16.38,3.92-5.86,7.85-11.71,11.77-17.56,2.68-3.98,5.41-8.09,6.47-12.8,1.06-4.69.08-10.19-3.63-13.2-2.2-1.81-5.08-2.52-7.88-2.98-12.14-1.97-22.96,1.29-34.59,3.95-12.16,2.79-24.49,9.37-35.14,15.73-4.22,2.53-8.4,5.3-11.51,9.15C1.21,33.28-.7,38.37.24,43.25c1.08,5.61,5.79,9.97,11.09,11.93,5.29,1.96,11.1,1.86,16.71,1.25,7.73-.83,15.35-2.6,22.67-5.24,2.88-1.04,5.71-2.2,8.54-3.38-16.84,11.6-30.92,27.31-40.67,45.43-2.32,4.3-4.43,9.33-2.81,13.94,1.18,3.34,4.19,5.74,7.46,7,3.26,1.25,6.81,1.49,10.31,1.65,14.76.67,29.5-.56,44.27-1.17,6-.25,12.27-.56,17.53-3.52,4.92-2.76,8.45-7.6,10.71-12.83s3.37-10.87,4.46-16.46c1.55-7.89,3.09-15.77,4.63-23.67,1.02-5.24,1.89-12.46-3.25-16.04ZM73.08,4.44c4.45-1.55,10.01-1.95,14.32.38,4.36,2.36,4.65,6.52,4.19,10.98-.12,1.17-1.95,1.64-2.21.3-.75-3.87-1.73-6.96-5.74-8.43-3.24-1.19-6.88-1.53-10.31-1.39-1.11.05-1.2-1.51-.25-1.84Zm37.67,53.2c-.52,1.13-2.45.58-2.36-.64.11-1.41.12-2.79.1-4.2-.02-.91.34-2.75-.29-3.51-.7-.84-2.8-.47-3.78-.43-1.38.06-2.95.06-4.3.37-.99.23-1.73-1.28-.72-1.71,3.35-1.44,8.78-5.38,12.06-1.86,3.11,3.34.89,8.49-.71,11.98Z"/>
  </g>
</svg>