<?xml version="1.0" encoding="UTF-8"?>
<svg id="Layer_2" data-name="Layer 2" xmlns="http://www.w3.org/2000/svg" viewBox="0 0 111.85 116">
  <defs>
    <style>
      .cls-1 {
        stroke-width: 0px;
      }
    </style>
  </defs>
  <g id="vectors">
    <path class="cls-1" d="m111,76.7c-2.32-7-8.95-11.67-15.72-14.59-13.73-5.92-28.88-6.18-43.02-1.3,1.76-1.88,7.06-2.64,9.63-3.62,6.35-2.43,12.73-5.39,18.61-8.63,3.32-1.83,6.56-3.78,9.73-5.85,4.4-2.89,8.72-6.07,11.86-10.29,3.14-4.22,5.01-9.64,3.98-14.8-1.04-5.22-4.92-9.55-9.55-12.18-4.62-2.63-9.94-3.77-15.22-4.48C67.35-.94,53.04.01,39.42,3.57c-6.81,1.78-13.45,4.2-19.79,7.25-5.67,2.73-12.74,5.28-16.87,10.24-2.52,3.03-3.72,7.52-1.83,10.98,1.84,3.36,5.9,4.77,9.66,5.53,4.07.82,8.23,1.2,12.39,1.15,3.72-.04,7.41-1.02,11.08-1.04-5.59.92-11.2,1.52-16.54,3.56-5.32,2.03-10.3,5.46-13.09,10.42-2.79,4.96-2.99,11.58.43,16.13,3.21,4.27,8.74,5.97,13.96,7.07,9.19,1.92,18.62,2.73,28.01,2.38-12.4,2.43-24.43,6.73-35.55,12.72-2.59,1.39-5.17,2.91-7.13,5.09s-3.24,5.16-2.77,8.05c.9,5.46,7.1,8.1,12.48,9.4,25.48,6.18,52.91,4.08,77.15-5.92,6.33-2.61,11.27-5.47,15.64-10.73,4.38-5.26,6.51-12.67,4.35-19.17ZM85.91,7.8c4.61-1.56,10.67,1.13,13.58,4.8,3.63,4.58,2.28,10.19-.68,14.71-.48.73-1.81.51-1.75-.47.25-3.86,1.45-8.6-1.51-11.72-2.08-2.19-6.74-4.89-9.64-5.51-.96-.21-.82-1.53,0-1.81Zm18.8,70.19c-3.5-2-6.32-5.06-9.83-7.1-3.47-2.02-7.38-3.07-10.87-4.98-.66-.36-.59-1.59.22-1.71,8.05-1.2,19.49,4.51,22.26,12.42.36,1.04-.92,1.87-1.79,1.38Z"/>
  </g>
</svg>