<?xml version="1.0" encoding="UTF-8"?>
<svg id="Layer_2" data-name="Layer 2" xmlns="http://www.w3.org/2000/svg" viewBox="0 0 117.17 116">
  <defs>
    <style>
      .cls-1 {
        stroke-width: 0px;
      }
    </style>
  </defs>
  <g id="vectors">
    <path class="cls-1" d="m116.27,49.49c-1.66-3.18-5.5-4.42-9-5.18-1.31-.28-2.61-.54-3.91-.77,3.09-7.5,5.76-15.18,8-22.98.39-1.35.77-2.72,1.13-4.08.59-2.19,1.13-4.43.9-6.68-.23-2.25-1.38-4.54-3.43-5.51-3.33-1.59-7.12.81-9.96,3.17-5.17,4.3-9.98,8.95-14.72,13.71-4.64,4.66-8.29,10.71-12.01,16.14-1.3,1.88-2.58,3.79-3.82,5.7-3.08.39-6.16.89-9.25,1.48-4.65.89-9.23,1.87-13.78,2.98,1.72-2.35,3.41-4.74,5.06-7.13,5.34-7.72,10.78-15.28,15.14-23.63,1.81-3.5,3.51-7.58,2.08-11.24C67.32,1.89,63.22-.06,59.38,0c-3.83.06-7.45,1.76-10.79,3.64-6.34,3.56-12.22,7.93-17.48,12.95-4.99,4.77-10.18,9.37-14.58,14.67C9.85,39.3,2.29,48.83.41,59.34c-.83,4.69-.48,9.7,1.69,13.94,2.6,5.09,7.91,9.7,13.6,10.32,7.26.8,14.6,1.02,21.91.73,2.75-.11,5.48-.31,8.21-.57-1.49,3.28-2.81,6.65-3.81,10.12-1.51,5.21-4.63,16.29.32,20.56,2.81,2.42,7.13,1.63,10.55.2,9.93-4.14,15.07-11.91,21.34-20.05,5.12-6.63,9.75-13.62,13.98-20.84,7.07-2.66,13.95-5.77,20.58-9.26,4.93-2.59,10.6-9.05,7.48-15.01Zm-11.72-42.18c2.1-.38,4.32-.56,5.82,1.24,1.44,1.74.68,3.9-.19,5.71-.45.93-1.8.41-1.83-.5-.04-.93-.08-2.13-.75-2.87-.33-.36-.9-.61-1.31-.89-.54-.37-1.1-.71-1.73-.89-.83-.24-.95-1.64,0-1.81ZM57.95,3.26c2.64-.63,6.77-.33,8.28,2.35,1.45,2.57-.08,5.69-1.94,7.57-.7.71-1.88-.02-1.65-.96.38-1.51,1.27-3.23.23-4.66-.98-1.34-3.39-2.16-4.93-2.5-.9-.2-.88-1.6,0-1.81Zm6.58,45.16c-4.96,1.77-10.56,2.06-15.75,2.89-1.17.19-1.69-1.58-.5-1.81,5.24-.99,10.68-2.64,16.04-2.64.94,0,1.03,1.27.21,1.56Zm49.92,6.77c-.25.46-.98.35-1.11-.15-.72-2.6-1.93-3.58-4.34-4.57-1.83-.75-3.9-1.47-5.84-1.86-.95-.19-.84-1.56,0-1.81,2.9-.87,6.6-.75,9.02,1.24,1.98,1.63,3.64,4.67,2.28,7.15Z"/>
  </g>
</svg>