<?xml version="1.0" encoding="UTF-8"?>
<svg id="Layer_2" data-name="Layer 2" xmlns="http://www.w3.org/2000/svg" viewBox="0 0 107.96 116">
  <defs>
    <style>
      .cls-1 {
        stroke-width: 0px;
      }
    </style>
  </defs>
  <g id="vectors">
    <path class="cls-1" d="m99.19,51.57c-5.69-4.61-13.36-6.1-20.68-5.97s-14.54,1.74-21.82,2.61c-3.58.44-7.24.68-10.74-.14-3.5-.83-6.87-2.88-8.53-6.07-1.28-2.48-1.28-5.67.1-8.03,19.59,5.99,41.75,3.3,59.19-7.51,4.29-2.66,8.73-6.64,8.4-11.68-.33-4.94-5.11-8.33-9.67-10.26-13.73-5.83-29.38-5.38-43.98-2.32-9.69,2.03-19.39,5.27-27.09,11.51-7.71,6.23-13.14,15.88-12.35,25.77.8,9.87,9.01,19.21,18.91,19.44,3.05.07,6.09-.66,9.15-.51,3.06.14,6.38,1.49,7.52,4.33,1.07,2.64-.18,5.82-2.38,7.62-2.21,1.8-5.17,2.43-8.02,2.52-5.07.15-10.05-1.27-15.07-2.07-5.02-.8-10.45-.91-14.86,1.63C-.13,76.72-1.81,87.44,1.91,95.13c3.72,7.7,11.44,12.71,19.38,15.89,21.3,8.54,46.72,5.94,65.86-6.71,8.76-5.8,16.44-13.92,19.51-23.97,3.07-10.06.69-22.16-7.48-28.77Zm-14.48-46.27c1.26.08,2.43-.3,3.69-.22,1.09.07,2.21.31,3.27.58,2.3.6,4.44,1.71,6.35,3.13,3.85,2.85,3.5,6.72,1.82,10.7-.61,1.44-2.49.48-2.62-.71-.37-3.4-1.66-5.36-4.5-7.25-2.3-1.53-5.51-3.88-8.25-4.39-1.04-.2-.79-1.9.25-1.84Zm18.95,60.24c-.21.88-1.58,1.37-2.19.58-2.51-3.24-4.44-6.59-7.87-9.01-3.57-2.52-9.03-4.88-13.42-5.29-.95-.09-1.24-1.19-.47-1.75,4.15-3,12.64,0,16.63,2.34,4.44,2.61,8.63,7.69,7.32,13.12Z"/>
  </g>
</svg>