<?xml version="1.0" encoding="UTF-8"?>
<svg id="Layer_2" data-name="Layer 2" xmlns="http://www.w3.org/2000/svg" viewBox="0 0 107.9 116">
  <defs>
    <style>
      .cls-1 {
        stroke-width: 0px;
      }
    </style>
  </defs>
  <g id="vectors">
    <path class="cls-1" d="m87.11,46.6c-11.94-6.88-28.22-5.16-38.45,4.04-2.62,2.36-5.29,5.32-8.81,5.29-3.38-.02-6.2-3.17-6.6-6.54-.91-7.75,7.31-13.03,13.49-15.66,5.35-2.28,11.02-2.61,16.67-1.1,6.23,1.66,11.7,5.32,17.61,7.91,5.91,2.58,12.93,4,18.67,1.08,5.54-2.83,8.62-9.4,8.18-15.61-.44-6.2-4-11.92-8.79-15.9-4.79-3.97-10.71-6.37-16.73-7.93C62.22-3.02,39.66,1.13,23.34,14,7.02,26.89-2.31,48.45.5,69.05c2.82,20.59,18.16,39.21,38.14,44.94,12.13,3.49,25.41,2.32,37.07-2.51,12.87-5.33,24.31-15.93,27.18-29.57,2.84-13.48-3.84-28.43-15.78-35.3Zm2.76-35.93c5.24,1.5,9.7,3.91,12.37,8.96,2.25,4.26,2.48,9.4-1.39,12.79-.87.76-2.02-.18-1.55-1.19,3.24-6.89-4.4-15.68-10.15-18.84-.94-.52-.29-2,.72-1.71Zm-35.76,73.14c-3.91.37-7.2-1.13-8.42-5.03-.8-2.58-.6-8.23,2.45-9.38.45-.17,1,.12,1.23.5.03.04.05.08.08.13.2.32.15.7-.02,1.01-.39,2.13-.23,4.57.23,6.64.6,2.72,2.6,3.54,4.82,4.73.71.38.31,1.33-.38,1.4Zm20.79-10.49c-1.59,1.71-3.82,2.69-6.06,3.32-3.13.89-6.41,1.19-9.65.9-2.45-.23-5.29-1.18-5.95-3.55-.52-1.88.6-3.81,1.93-5.23,2.74-2.94,6.62-4.79,10.62-5.08,5.55-.41,15.38,2.91,9.11,9.64Zm18-9.63c-2.64-3.19-5.3-6.51-8.67-8.98-2.82-2.07-8.69-5.68-12.31-5.33-1.09.11-1.22-1.55-.25-1.84,9.99-3.02,21.48,5.2,22.67,15.56.08.71-1,1.13-1.44.6Z"/>
  </g>
</svg>