<?xml version="1.0" encoding="UTF-8"?>
<svg id="Layer_2" data-name="Layer 2" xmlns="http://www.w3.org/2000/svg" viewBox="0 0 101.02 116">
  <defs>
    <style>
      .cls-1 {
        stroke-width: 0px;
      }
    </style>
  </defs>
  <g id="vectors">
    <path class="cls-1" d="m99.95,16.94c-2.34-7.31-8.84-12.1-16.33-14.44C76.14.16,67.67-.02,59.28,0c-8.91.02-18.01.25-27.15,2.9C22.98,5.55,13.66,10.95,7.81,18.95,2.56,26.11.65,34.54.13,42.4c-.41,6.25.03,12.59,3.2,17.26s9.62,7.22,16.06,4.73c8.25-3.19,12.83-12.48,19.49-18.78,3.97-3.75,8.9-6.41,13.86-7.72,3.42-.9,11-2.33,12.98.48,3.94,5.59-12.03,22.52-16.66,26.8-5.3,4.91-11.28,9.01-16.84,13.63-5.56,4.62-10.85,9.97-13.82,16.21-2.97,6.24-3.15,13.51.96,17.44,3.96,3.79,10.73,3.75,16.98,3.39,11.18-.63,23.56-2.14,33.18-10.06,6.67-5.48,10.87-13.17,14.35-20.63,7.52-16.13,12.89-32.77,15.9-49.27,1.19-6.53,2-13.24.17-18.94Zm-4.87,8.31c-.19.95-1.7.93-1.9,0-1.03-4.72-2.81-7.75-6.79-10.59-3.31-2.37-6.88-4.21-10.84-5.21-1.1-.27-.74-1.74.25-1.84,5.45-.53,10.82.61,15.1,4.16,4.49,3.73,5.29,7.9,4.18,13.48Z"/>
  </g>
</svg>