<?xml version="1.0" encoding="UTF-8"?>
<svg id="Layer_2" data-name="Layer 2" xmlns="http://www.w3.org/2000/svg" viewBox="0 0 110.65 116">
  <defs>
    <style>
      .cls-1 {
        stroke-width: 0px;
      }
    </style>
  </defs>
  <g id="vectors">
    <path class="cls-1" d="m102.54,67.03c-4.74-5.29-10.97-9.92-17.19-13.35-4.93-2.69-10.91-4.82-10.02-11.86,1.2-9.59,14.98-12.86,17.67-22.13,1.52-5.28-1.26-11.1-5.61-14.45-4.35-3.34-9.97-4.59-15.43-5.04-9.42-.76-19,.63-27.81,4.03-5.82,2.25-11.51,5.56-14.88,10.82-3.38,5.24-3.8,12.75.34,17.42,2.26,2.55,5.76,4.29,6.61,7.59.6,2.34-.41,4.86-2.02,6.67-1.6,1.81-3.74,3.05-5.83,4.27-8.48,4.97-17.03,10.4-22.72,18.41C-.02,77.43-2.22,88.68,2.8,97.12c4.02,6.79,11.69,10.46,19.17,12.98,17.53,5.87,36.51,7.4,54.74,4.39,7.58-1.25,15.19-3.33,21.58-7.61,6.38-4.27,11.44-11.02,12.24-18.66.81-7.74-2.79-15.42-7.99-21.21ZM70.55,4.75c2.84-.4,4.98-.85,7.79.01,2.55.78,4.94,2.14,7,3.84,3.52,2.92,5.23,7.28,2.97,11.51-.25.47-.94.23-.96-.26-.17-3.79-2.98-6.84-6.03-8.78-2.73-1.74-7.18-4.53-10.52-4.47-1.04.02-1.31-1.69-.25-1.84Zm-14.7,15.86c.34-.26.77-.4,1.2-.49,1.77-.4,3.63-.3,5.35.27,1.03.33,3.74,1.38,2.03,2.79-.53.43-1.26.51-1.93.52-1.92.05-3.84-.21-5.67-.75-.65-.19-1.39-.54-1.5-1.2-.07-.43.18-.87.52-1.14Zm-3.26-1.92c.89-.83,2.24.55,1.33,1.33-1.07.91-1.74,2.71-.23,3.62.4.24.27,1.03-.26.96-1.28-.16-2.16-.97-2.36-2.26-.22-1.41.51-2.72,1.52-3.65Zm-7.76,73.46c-4.29.67-9.84.84-12.09-3.79-2.01-4.13-.32-9.66,4.28-10.88.87-.23,1.63.93.91,1.57-2.16,1.92-2.29,5.98-.32,8.11,1.76,1.91,4.78,2.47,7.21,3,.95.21,1.02,1.83,0,1.99Zm23.12-14.63c-6.65,4.32-14.21,7.21-22.04,8.41-.95.15-1.92.28-2.86.08-.94-.19-1.85-.75-2.24-1.62-.42-.95-.13-2.1.47-2.94.62-.85,1.5-1.44,2.38-1.99,3.86-2.41,8.08-4.26,12.46-5.52,3.86-1.1,7.86-1.74,11.88-1.89,1.39-.05,3.17-.01,3.26,1.82.08,1.76-2.06,2.83-3.31,3.64Zm15.13-18.14c-3.65-1.05-7.75-2.77-10.42-5.58-1.96-2.06-3.84-5.89-2.02-8.54.41-.59,1.22-.61,1.62,0,.76,1.16.89,2.36,1.45,3.6.69,1.54,1.71,2.71,3.08,3.67,2.54,1.77,4.94,3.12,7.15,5.35.62.63,0,1.74-.87,1.49Z"/>
  </g>
</svg>