<?xml version="1.0" encoding="UTF-8"?>
<svg id="Layer_2" data-name="Layer 2" xmlns="http://www.w3.org/2000/svg" viewBox="0 0 107.9 116">
  <defs>
    <style>
      .cls-1 {
        stroke-width: 0px;
      }
    </style>
  </defs>
  <g id="vectors">
    <path class="cls-1" d="m107.41,46.95c-2.82-20.59-18.16-39.21-38.14-44.94-12.13-3.49-25.41-2.33-37.07,2.51-12.87,5.33-24.31,15.93-27.18,29.57-2.84,13.48,3.84,28.43,15.77,35.3,11.94,6.88,28.22,5.16,38.45-4.04,2.62-2.36,5.29-5.32,8.81-5.29,3.38.02,6.2,3.17,6.6,6.54.91,7.75-7.31,13.03-13.49,15.66-5.35,2.28-11.02,2.61-16.67,1.1-6.23-1.65-11.7-5.32-17.61-7.91-5.91-2.58-12.93-4-18.67-1.08C2.68,77.2-.4,83.77.04,89.98c.44,6.2,4,11.92,8.79,15.9,4.79,3.97,10.7,6.37,16.73,7.93,20.12,5.21,42.68,1.06,59-11.82,16.32-12.88,25.65-34.45,22.85-55.04Zm-69.28,11.39c-4.49-1.03-9.53-.78-13.01-4.31-2.42-2.45-3.51-8.09-.02-10.12.44-.25,1.03-.1,1.28.34.8,1.38.34,2.63.44,4.17.12,1.76.79,3.02,2.24,4.03,2.79,1.94,6.63,2.14,9.76,3.35,1.55.6.98,2.92-.7,2.53Zm14.6-11.11c-2.74,2.94-6.62,4.79-10.62,5.08-5.55.41-15.38-2.91-9.11-9.64,1.59-1.71,3.82-2.69,6.06-3.32,3.13-.89,6.41-1.19,9.65-.9,2.45.23,5.29,1.18,5.95,3.55.52,1.88-.6,3.81-1.93,5.23Zm36.96-22c-5.29-3.77-9.67-8.42-15.36-11.73-5.89-3.43-12.69-5.24-19.39-6.33-1.14-.19-.7-1.73.25-1.84,12.97-1.47,31.4,5.29,36.21,18.58.34.93-.91,1.9-1.72,1.32Z"/>
  </g>
</svg>