<?xml version="1.0" encoding="UTF-8"?>
<svg id="Layer_2" data-name="Layer 2" xmlns="http://www.w3.org/2000/svg" viewBox="0 0 95.11 116">
  <defs>
    <style>
      .cls-1 {
        stroke-width: 0px;
      }
    </style>
  </defs>
  <g id="vectors">
    <path fill="#d2d7e7" class="cls-1" d="m93.08,33.57c-1.54-7.17-3.97-14.21-8.34-20.18-4.37-5.97-10.83-10.81-18.69-12.61-9.82-2.24-20.98.52-29.88,5.97-8.9,5.44-15.75,13.32-21.06,21.68C3.55,46.62-1.3,67.61.3,87.57c.45,5.67,1.46,11.39,4.46,16.21,3,4.82,8.3,8.65,14.64,9.01,6.34.36,13.45-3.5,15.12-9.15.79-2.67.37-5.43.98-8.13.46-2.04,2.56-5.88,5.4-5.09,2.14.59,3.38,4.25,3.92,5.97,1.52,4.86.99,10.5,4.21,14.74,3.05,4.01,9.15,5.58,14.76,4.54,5.61-1.04,10.67-4.36,14.39-8.43,3.72-4.07,6.25-8.87,8.35-13.71,8.44-19.38,10.74-40.45,6.55-59.98Zm-41.58,15.75c-3.23.52-6.31.71-8.81-1.76-2.07-2.05-2.96-4.88-1.81-7.62.39-.94,1.8-.88,1.84.25.06,1.82.73,4,2.07,5.27,1.66,1.58,4.3,1.9,6.48,2.11.92.09,1.3,1.58.24,1.75Zm7.81-5.21c-1.11,1.46-3.22,2.13-5.11,2.04s-3.61-.79-5.26-1.51c-.99-.43-1.99-.89-2.7-1.63-.71-.74-1.06-1.84-.6-2.8.39-.8,1.27-1.37,2.2-1.64.92-.27,1.89-.28,2.83-.26,2.9.05,12.62.53,8.63,5.8Zm27.62-4.42c-.37,2.36-3.59,1.81-4.25,0-2.59-7.09-4.64-15-9.29-21.08-2.08-2.72-4.61-5.09-7.43-7.02-2.1-1.43-4.53-2.5-6.03-4.59-.29-.41-.07-1.05.34-1.28,6.34-3.67,15.55,3.82,19.36,8.39,6.13,7.34,8.78,16.14,7.3,25.59Z"/>
  </g>
</svg>