<?xml version="1.0" encoding="UTF-8"?>
<svg id="Layer_2" data-name="Layer 2" xmlns="http://www.w3.org/2000/svg" viewBox="0 0 23.9 45.02">
  <defs>
    <style>
      .cls-1 {
        stroke-width: 0px;
      }
    </style>
  </defs>
  <g id="vectors">
    <path fill="#d2d7e7" class="cls-1" d="m18.84,1.91C5.84-9.26-.55,31.89.04,38.68c.16,1.8.47,3.73,1.75,5.01,1.28,1.27,3.3,1.58,5.06,1.15s3.29-1.48,4.69-2.63c8.87-7.32,18.5-30.68,7.31-40.3Zm.98,8.1c-.64-1.34-1.44-2.56-2.49-3.62-.53-.53-1.02-1.1-1.56-1.62-.47-.45-.97-.78-1.27-1.37-.29-.56.05-1.5.81-1.41,1.48.17,2.96,1.59,3.79,2.78.98,1.41,1.67,3.01,2.09,4.66.21.8-1,1.36-1.37.58Z"/>
  </g>
</svg>
