<?xml version="1.0" encoding="UTF-8"?>
<svg id="Layer_2" data-name="Layer 2" xmlns="http://www.w3.org/2000/svg" viewBox="0 0 116.5 116">
  <defs>
    <style>
      .cls-1 {
        stroke-width: 0px;
      }
    </style>
  </defs>
  <g id="vectors">
    <path class="cls-1" d="m85.47,55.03c3.28-.89,6.62-.8,9.93-1.51,3.62-.77,7.24-2.11,10.57-4.22,8.27-5.25,12.34-14.72,9.77-22.92-1.27-4.05-4.26-7.1-8.31-8.25-1.99-.57-4.17-.68-6.38-.36-1.18.17-2.34.52-3.51.8-1.24.3-2.7.97-3.86.55-.74-.27-1.23-.93-1.49-1.7-.41-1.25,0-2.39-.06-3.68-.06-1.15-.29-2.3-.54-3.39-.47-2.11-1.21-4.13-2.36-5.84-2.39-3.56-6.42-5.02-11.1-4.12-.22.04-.43.09-.65.14-4.51,1.04-8.65,4.55-11.1,8.76-3.04,5.21-2,9.03-1.48,14.04.18,1.73.18,3.52.4,5.24.15,1.17.42,2.24-.62,3.39-.82.9-2.08,1.3-3.09,1.07-1.01-.23-1.75-1.05-2-2.07-.33-1.32.25-2.8.48-4.2.25-1.56.75-3.15,1.24-4.7.95-3.06,1.98-6.16,1.95-9.22-.05-4.37-1.71-8.46-4.9-10.81-3.19-2.35-7.96-2.76-12.14-.65-2.59,1.31-4.77,3.48-6.39,5.95-.83,1.26-1.52,2.6-2.09,3.97-.46,1.12-.53,2.67-1.49,3.53-.65.58-1.52.84-2.28.75-1.3-.14-2.51-1.16-3.73-1.57-1.28-.43-2.64-.75-4.05-.84-2.83-.19-5.83.58-8.34,2.68-3.64,3.04-5.76,7.56-7.13,11.92-.68,2.18-1.22,4.41-1.46,6.59-.22,1.95-.2,3.87.15,5.69,1.52,7.84,9.11,12.73,16.89,12.9,1.44.03,2.89.03,4.3.17,1.07.11,2.96.13,3.56,1.08,1.04,1.64-1.18,4.39-2.92,4.94-1.94.61-4.11.41-6.07.7-.15.02-.3.04-.45.06-4.74.69-9.59,1.64-14.1,4.04-4.5,2.4-8.65,6.5-10.09,11.32-1.83,6.14,1.28,12.04,6.22,14.53,1.65.83,3.47,1.39,5.37,1.69,1.77.27,3.76-.41,5.38.29,2.5,1.08.87,3.92.52,6.19-.47,3.09-.32,6.17.69,8.84,1.61,4.27,5.75,7.73,11.2,8.11,6.68.47,13.85-3.79,17.61-9.12,3.77-5.33,4.68-11.45,4.46-17.16-.06-1.63-.63-3.31-.49-4.95.06-.64.3-1.32.8-1.81.46-.46,1.08-.69,1.66-.83.65-.16,1.36-.23,1.83.13.37.28.53.79.52,1.31,0,1.13-.71,2.39-.96,3.54-2.19,10.02-4.91,28.16,7.1,29.88,3.48.5,7.46-.68,10.66-3.15,3.56-2.76,6.03-6.53,7.39-10.65.67-2.02,1.08-4.08,1.36-6.12.21-1.54-.26-4.69,1.15-5.86,1.25-1.04,3.03-.54,4.35-.56,2.18-.03,4.2.21,6.45-.16,4.65-.77,9.52-3.3,12.62-7.39,3.1-4.1,4.02-9.81,1.51-13.23-2.22-3.03-6.4-3.75-10.3-4.32-2.51-.37-5.02-.73-7.54-1.1-2.04-.3-4.62-.05-6.08-1.49-1.02-1.01-1.84-3.75-.75-5.35.52-.76,1.36-1.25,2.19-1.47Zm18.19-35.05c1.94-.23,3.9.23,5.57,1.25,1.76,1.08,2.66,2.82,2.97,4.83.17,1.11-1.4,2.02-1.97.83-1.17-2.43-3.81-4.8-6.57-5.04-1.22-.1-1.19-1.74,0-1.88ZM53.39,2.56c3.67-.84,6.64,2.76,7.52,5.9.39,1.4-1.59,2.2-2.31.98-1.39-2.36-3.75-3.46-5.62-5.31-.49-.48-.28-1.41.41-1.57Zm8.75,55.47c-.2.14-.44.25-.7.35-1.59.59-3.55-.06-5.08-.14-1.15-.07-3.27.53-3.95-.46-.6-.87-.02-3.13,1.13-3.75,1.22-.66,3.27-.39,4.47-.4,1.34-.02,3.07.29,4.13.94,1.3.78,1.41,2.52,0,3.47ZM81.39,4.19c-1.01-.32-.82-1.82.25-1.84,1.45-.02,2.84.21,3.99,1.13,1.12.89,1.99,2.03,2.55,3.34.45,1.04-.87,1.85-1.54.9-.63-.9-1.45-1.62-2.42-2.13-.93-.49-1.82-1.07-2.83-1.39Z"/>
  </g>
</svg>