<?xml version="1.0" encoding="UTF-8"?>
<svg id="Layer_2" data-name="Layer 2" xmlns="http://www.w3.org/2000/svg" viewBox="0 0 32.09 42.62">
  <defs>
    <style>
      .cls-1 {
        stroke-width: 0px;
      }
    </style>
  </defs>
  <g id="vectors">
    <g>
      <path class="cls-1" d="m31.2,4.43C29.12,1.34,18.4.26,14.93.04,10.84-.22,6.5.72,3.45,3.46.39,6.2-.99,10.97.93,14.6c1.69,3.21,5.42,4.83,9.02,5.35,6.38.92,13.11-1.01,18.04-5.17,1.51-1.28,2.89-2.8,3.61-4.65.72-1.85.71-4.06-.39-5.7Zm-5.24,1.09c-1.4-.92-3.33-1.92-5.05-1.51-1.4.34-1.55-1.93-.25-1.84,2.39.17,4.45.36,6.32,2.03.72.64-.23,1.85-1.02,1.33Z"/>
      <path class="cls-1" d="m29.54,26.9c-2.58-3.39-7.4-4.04-11.65-3.77-6.4.4-25.43,3.74-14.66,14.21,1.73,1.68,3.95,2.74,6.21,3.57,3.45,1.26,7.14,2.04,10.79,1.59,3.64-.45,7.22-2.24,9.27-5.28s2.26-7.39.03-10.31Zm-4.62,1.23c-1.78-1.02-3.56-1.6-5.61-1.11-1.17.29-1.67-1.52-.5-1.81,2.46-.6,5.23-.18,7.07,1.66.64.65-.18,1.7-.97,1.25Z"/>
    </g>
  </g>
</svg>