<?xml version="1.0" encoding="UTF-8"?>
<svg id="Layer_2" data-name="Layer 2" xmlns="http://www.w3.org/2000/svg" viewBox="0 0 32.89 23.62">
  <defs>
    <style>
      .cls-1 {
        stroke-width: 0px;
      }
    </style>
  </defs>
  <g id="vectors">
    <path class="cls-1" d="m28.87,4.14C23.07-.6,11.58-1.52,5.36,2.7,1.73,5.16-.66,9.68.16,13.99c.8,4.21,4.44,7.48,8.53,8.79,4.08,1.31,8.52.93,12.7,0,4.32-.96,8.94-2.87,10.77-6.89,1.81-3.98.09-8.98-3.29-11.74Zm-1.67,3.97c-2.61-1.97-5.18-3.84-8.42-4.58-1.19-.27-.67-2.01.5-1.81,3.54.61,7.02,2.25,8.88,5.43.33.57-.38,1.4-.96.96Z"/>
  </g>
</svg>