<?xml version="1.0" encoding="UTF-8"?>
<svg id="Layer_2" data-name="Layer 2" xmlns="http://www.w3.org/2000/svg" viewBox="0 0 102.13 116">
  <defs>
    <style>
      .cls-1 {
        stroke-width: 0px;
      }
    </style>
  </defs>
  <g id="vectors">
    <path class="cls-1" d="m97.47,56.48c-3.32-5.09-7.5-7.35-13.3-9.08-5.77-1.72-11.91-2.21-17.89-1.46,4.36-4.19,8.32-8.93,10.81-14.45,2.51-5.59,3.4-12.08,1.5-17.9-1.46-4.47-4.72-8.47-8.98-10.53C48.56-7.06,22.68,9.73,11.45,27.08,2.52,40.86-.91,57.8.2,74.2c.56,8.49,2.38,17.08,6.76,24.39,6.8,11.31,19.95,16.58,32.72,17.31,15.86.89,33.15-4.08,45.84-13.71,9.3-7.06,16.29-17.84,16.59-29.51.15-5.64-1.61-11.49-4.66-16.2Zm-54.63-30.35c.28-.59.78-1.04,1.3-1.45,1.7-1.34,5.53-3.46,7.85-2.79,3.05.88,1.52,4.04-.55,5.13-1.89.98-3.98,1.58-6.12,1.73-.88.05-1.91-.02-2.43-.75-.38-.54-.34-1.29-.06-1.88Zm-5.12.5c.27-1.99,1.31-3.38,1.9-5.22.5-1.57,2.66-.06,1.57.91-1.53,1.37-1.9,4.57-1.43,6.46.61,2.44,2.79,2.73,4.95,2.9.7.06.94,1.12.17,1.29-2.55.58-5.55.49-6.75-2.23-.57-1.29-.6-2.73-.41-4.11Zm2.87,60.64c-5.1.88-11.09-1.45-12.11-7.02-1.07-5.86,2.34-11.33,6.48-15.07.9-.82,2.25.58,1.33,1.33-3.16,2.55-4.07,7.57-3.77,11.45.36,4.7,5.03,5.25,8.35,7.18.81.47.75,1.97-.28,2.14Zm13-12.1c-3,1.98-6.51,3.22-10.08,3.54-1.31.12-2.66.11-3.9-.33-1.24-.44-2.35-1.38-2.72-2.65-.5-1.79.55-3.64,1.75-5.05,3.71-4.39,10.74-8.22,16.68-7.3,7,1.08,1.63,9.58-1.73,11.79Zm-2.35-68.17c-1.18.25-1.66-1.45-.5-1.81,6.84-2.1,13.63-1.6,18.76,3.93,4.57,4.93,6.47,12.6,2.74,18.54-.72,1.14-2.66.73-2.62-.71.14-4.95-.2-10.12-3.39-14.17-3.28-4.16-9.77-6.89-14.99-5.78Zm43.76,72.28c-.32,1.03-2.03,1.2-2.26,0-1.15-6.07-.94-13.83-5-18.81-4.61-5.65-13.3-6.17-19.96-7.01-1-.13-1.33-1.52-.25-1.84,7.24-2.16,17.25-.97,23.06,4.21,6.8,6.06,6.95,15.33,4.41,23.45Z"/>
  </g>
</svg>