<?xml version="1.0" encoding="UTF-8"?>
<svg id="Layer_2" data-name="Layer 2" xmlns="http://www.w3.org/2000/svg" viewBox="0 0 103.57 116">
  <defs>
    <style>
      .cls-1 {
        stroke-width: 0px;
      }
    </style>
  </defs>
  <g id="vectors">
    <path fill="#d2d7e7" class="cls-1" d="m103.15,63c-1.83-7.84-9.69-12.33-16.92-12.16-13.28.31-23.42,11.91-36.84,12.4-3.2.12-6.81-.44-8.78-3.26-1.52-2.18-1.67-5.31-.76-7.89.91-2.57,2.73-4.64,4.79-6.17,5.2-3.88,11.76-4.65,18.02-4.54,6.25.11,12.55.98,18.73-.08s12.46-4.48,15.34-10.7c3.94-8.51-.08-19.63-7.13-25.06C82.54.11,73.39-.66,64.89.42,37.69,3.85,12.99,25.65,3.66,54.47.78,63.35-.72,72.93.34,82.3s4.87,18.52,11.3,24.64c9.13,8.68,22.2,10.21,34.06,8.36,19.77-3.08,38.37-14.71,51.09-31.93,4.26-5.76,8.04-13.14,6.35-20.37ZM63.57,4.97c8.65-1.85,18.22-.23,24.29,6.78,5.45,6.29,6.97,15.17,1.55,21.88-1.1,1.37-3.41-.11-2.9-1.69,5-15.54-8.96-24.42-22.69-25.13-1.02-.05-1.32-1.61-.25-1.84Zm-10.75,65.74c-6.3,2.39-15.17,3.15-19.46-3.2-4.87-7.22-1.16-13.75,1.39-20.9.46-1.29,2.34-.47,1.71.72-2.5,4.75-3.33,12.25-.23,16.92,3.27,4.91,11.16,5.41,16.42,5.26.73-.02.77.97.16,1.2Zm44.35,1.81c-.83.93-2.69.23-2.56-1.06.36-3.65,0-8.34-2.9-10.97-4.31-3.92-12.71-1.93-17.34.41-1.22.62-1.98-1.23-.72-1.71,4.43-1.7,7.88-4.25,12.81-4.37,3.02-.07,6.03.65,8.49,2.43,4.98,3.62,6.42,10.58,2.23,15.27Z"/>
  </g>
</svg>