<?xml version="1.0" encoding="UTF-8"?>
<svg id="Layer_2" data-name="Layer 2" xmlns="http://www.w3.org/2000/svg" viewBox="0 0 111.2 116">
  <defs>
    <style>
      .cls-1 {
        stroke-width: 0px;
      }
    </style>
  </defs>
  <g id="vectors">
    <path fill="#d2d7e7" class="cls-1" d="m100.56,31.67c-6.67-7.21-15.16-12.13-23.72-16.22-9.2-4.4-18.68-7.99-28.28-10.74C40.86,2.51,31.74.28,23.97.01c-4.69-.16-9.54,1.08-12.61,4.64-2.57,2.98-3.59,7.16-4.45,11.22C1.47,41.47-.77,68.17.23,95.12c.21,5.62.82,11.88,4.73,16.14,4.64,5.05,11.87,5.14,18.02,4.43,27.77-3.23,53.74-15.04,74.03-33.66,6.81-6.25,13.29-13.93,14.1-23.86.77-9.4-3.89-19.27-10.56-26.49Zm-55.24,42c-6.09,2.33-13.27,1.79-16.13-5.01-3.19-7.56,1.79-14.67,5.08-21.06.55-1.07,2.2-.12,1.62.95-1.95,3.55-3.29,9.2-3.48,13.3-.32,6.9,5.68,11.94,12.59,10.65.78-.15,1.05.9.32,1.18Zm3.44-12.72c-.65,1.3-1.37,2.58-2.44,3.5-1.06.92-2.53,1.44-3.97,1.03-1.87-.53-3.26-2.54-3.66-4.54-.4-2,.01-3.99.57-5.83,1.25-4.09,6.06-15.9,12.03-13.59,6.02,2.33-.97,16.32-2.54,19.42Zm50.01,8.96c-.75.71-1.68-.18-1.33-1.02,2.91-6.82,3.18-14.51.46-21.47-1.38-3.52-3.85-6.26-6.48-8.91-2.75-2.76-6.46-7.14-10.26-8.04-.44-.1-.46-.81,0-.9,8.91-1.78,18.75,7.56,22.24,15.11,3.9,8.46,2.19,18.77-4.63,25.24Z"/>
  </g>
</svg>
