<?xml version="1.0" encoding="UTF-8"?>
<svg id="Layer_2" data-name="Layer 2" xmlns="http://www.w3.org/2000/svg" viewBox="0 0 107.83 116">
  <defs>
    <style>
      .cls-1 {
        stroke-width: 0px;
      }
    </style>
  </defs>
  <g id="vectors">
    <path fill="#ff6d1a" class="cls-1" d="m58.33,43.67c7.52,2.8,15.67,4.26,23.62,3.17,7.95-1.09,15.7-4.89,20.65-11.21,6.91-8.82,8.08-26.65-3.43-32.48-9.68-4.9-20.74-3.42-30.7-.08C40.51,12.46,16.93,34.17,5.26,61.27,2.46,67.79.3,74.69.03,81.79c-.27,7.09,1.49,14.43,5.86,20.02,4.53,5.79,11.44,9.27,18.46,11.41,22.87,6.98,48.03.22,67.03-13.56,3.6-2.61,7.1-5.61,9.07-9.61,3.77-7.7-.45-14.41-7.7-17.7-4.07-1.85-8.59-2.46-13.07-2.63-11.73-.44-23.48,2.29-33.96,7.55-.19-3.55-.18-7.1.11-10.64,5.33.99,10.78,1.4,16.19,1.24,3.87-.11,7.74-.52,11.56-1.23,3.31-.61,6.79-1.05,9.59-3.15,1.96-1.47,3.34-4,2.74-6.39-.39-1.55-1.58-2.82-2.96-3.65-1.38-.82-2.96-1.25-4.52-1.61-9.47-2.18-19.61-2.24-29.26-.59,1.24-3.31,2.84-6.47,4.78-9.39,1.44.64,2.9,1.25,4.39,1.8ZM77.87,6.88c11.99-6.91,31.12,4,22.51,18.18-.5.83-2.04.79-2.23-.29-.79-4.57-.85-10.02-5.31-12.63-4.53-2.65-9.89-1.39-14.66-2.95-1.01-.33-1.28-1.75-.3-2.31Zm-36.76,68.21c-.45-1.96-.58-3.92-.53-5.93.03-1.21,1.93-1.2,1.88,0-.09,1.91.03,3.81.22,5.71.09.91-1.37,1.07-1.57.21Zm25.39,2.54c8.21-3.01,29.96-7.48,28.8,7.88-.09,1.23-2.02,2.12-2.62.71-3.88-9.18-17.54-8.08-25.68-6.78-1.19.19-1.64-1.39-.5-1.81Zm3.17-24.84c4.32-.47,9.7-.18,12.39,3.8.31.46-.28.91-.71.71-3.8-1.86-7.53-2.13-11.68-2.63-1.2-.14-1.21-1.74,0-1.88Zm-19.31-9.23c-1.61,2.72-2.2,5.69-3.13,8.67-.21.68-1.39.58-1.29-.17.42-3.27,1.28-6.5,2.8-9.44.55-1.07,2.24-.1,1.62.95Z"/>
  </g>
</svg>