<?xml version="1.0" encoding="UTF-8"?>
<svg id="Layer_2" data-name="Layer 2" xmlns="http://www.w3.org/2000/svg" viewBox="0 0 56.2 116">
  <defs>
    <style>
      .cls-1 {
        stroke-width: 0px;
      }
    </style>
  </defs>
  <g id="vectors">
    <g>
      <path class="cls-1" d="m56.18,23.09c-.21-7.72-3.56-15.82-9.79-20.6-6.56-5.03-16.07-1.56-22.3,2.7-7.44,5.08-13.14,12.66-15.97,21.22-2.83,8.56-2.76,18.04.19,26.56,1.61,4.64,4.07,9.14,4.12,14.05.04,3.23-.99,6.36-1.71,9.51-.48,2.08-.82,4.27-.65,6.38.09,1.08.31,2.14.71,3.16,1.61,4.03,5.99,6.35,9.81,3.61,4.73-3.4,8.77-10.24,12.21-14.9,5.7-7.71,10.82-15.86,15.3-24.33,4.54-8.58,8.34-17.44,8.07-27.36Zm-3.3,5.82c-.41,1.28-2.35,1.4-2.71,0-1.02-3.97-.53-8.15-1.44-12.12-.87-3.79-5.77-9.14-9.83-9.91-1.12-.21-.72-1.74.25-1.84,12.36-1.25,16.77,14.47,13.73,23.87Z"/>
      <path class="cls-1" d="m31.05,102.89c-1.02-8.04-12.5-10.15-17.76-10.21-4.06-.05-8.32,1.5-10.99,5.2s-3.21,9.77-.54,13.46c2.35,3.24,6.27,3.84,9.82,4.24,2.84.32,5.71.63,8.54.26,2.84-.38,5.68-1.5,7.84-3.76,2.16-2.26,3.52-5.77,3.09-9.18Zm-6.74-2.4c-.93-1.92-3.7-2.79-5.55-3.51-1.1-.43-.69-2.14.5-1.81,2.5.7,6.22,1.61,6.94,4.52.27,1.1-1.36,1.88-1.88.79Z"/>
    </g>
  </g>
</svg>