<?xml version="1.0" encoding="UTF-8"?>
<svg id="Layer_2" data-name="Layer 2" xmlns="http://www.w3.org/2000/svg" viewBox="0 0 115.9 116">
  <defs>
    <style>
      .cls-1 {
        stroke-width: 0px;
      }
    </style>
  </defs>
  <g id="vectors">
    <path class="cls-1" d="m105.91,9.02c-5.77-3.85-12.71-5.52-19.54-6.74C74.02.07,61.31-.94,48.94,1.14c-12.37,2.08-24.44,7.44-33.09,16.54C7.24,26.74,2.51,38.98.82,51.37c-1.69,12.39-.53,24.99,1.38,37.35,1.01,6.52,2.3,13.2,5.94,18.7s10.2,9.56,16.69,8.38c5.61-1.02,9.91-5.63,12.76-10.58,2.84-4.95,4.66-10.45,7.73-15.26,4.4-6.87,11.45-11.9,19.26-14.17,5.03-1.46,19.31-.21,14.28-10.15-1.52-3-4.84-4.7-8.15-5.32-3.3-.62-6.7-.36-10.06-.52-2.25-.11-4.61-.45-6.42-1.8-1.81-1.34-2.85-3.96-1.77-5.95,1.18-2.16,4.04-2.56,6.49-2.72,7.02-.45,14.04-.9,21.06-1.34,7.69-.49,15.58-1.03,22.58-4.25s13.02-9.76,13.31-17.46c.26-6.94-4.2-13.4-9.97-17.26Zm-39.25,53.4c2.8.39,5.97-.17,8.12,2.05,1.76,1.82,2.17,4.24.92,6.42-.18.31-.69.25-.77-.1-.45-1.89-.96-4.21-2.88-5.06-1.81-.8-3.98-.93-5.88-1.5-1.19-.36-.66-1.97.5-1.81Zm-16.33-1.51c-1.47-.68-2.58-1.83-3.11-3.38-.55-1.63.12-3.44.64-5,.38-1.14,2.19-.65,1.81.5-.63,1.91.94,4.48,2.19,5.9.98,1.12-.24,2.59-1.53,1.99Zm54.46-24.21c-1.27.67-3.04-.44-2.55-1.96,1-3.11,2.99-5.88,2.35-9.31-.59-3.19-3.05-5.96-5.6-7.77-5.04-3.58-11.68-6.68-17.44-8.87-.91-.35-.88-1.97.25-1.84,9.25,1.03,19.51,2.32,26,9.89,5.3,6.18,4.56,15.91-3,19.87Z"/>
  </g>
</svg>