<?xml version="1.0" encoding="UTF-8"?>
<svg id="Layer_2" data-name="Layer 2" xmlns="http://www.w3.org/2000/svg" viewBox="0 0 113.6 116">
  <defs>
    <style>
      .cls-1 {
        stroke-width: 0px;
      }
    </style>
  </defs>
  <g id="vectors">
    <path fill="#d2d7e7" class="cls-1" d="m109.44,17.09c-4.29-5.69-10.57-10.43-17.11-13.23C81.89-.6,70.18-.78,59.08,1.21c-19.36,3.47-38.12,13.94-49.29,31.03s-13.5,41.1-3.25,58.82c7.16,12.38,19.73,20.76,33.17,23.66,13.44,2.91,27.62.63,40.26-5,7.94-3.53,15.6-8.61,20.28-16.26s5.74-18.26.86-25.76c-5.04-7.73-14.59-10.28-23.35-11.77-5.2-.89-10.57-1.61-15.7-.35-5.13,1.26-10.05,4.9-11.6,10.23-1.54,5.33,1.45,12.08,6.65,12.99,3.04.54,6.05-.85,9.06-1.58,3.01-.72,6.73-.49,8.43,2.25,1.2,1.94.91,4.63-.28,6.58-1.2,1.95-3.15,3.24-5.18,4.12-6.89,2.98-15.33,1.43-20.87-3.83-5.54-5.26-7.91-13.97-5.85-21.54,2.06-7.57,8.43-13.63,15.77-14.97,9.76-1.79,19.38,4.18,29.29,4.08,8.99-.09,18.5-6,22.9-13.78,2.21-3.91,3.33-8.43,3.23-12.92-.08-3.71-1.94-7.2-4.15-10.13Zm-26.87,45.52c4.86-.76,9.04,1.32,12.74,4.36,3.96,3.26,5.74,7.15,4.41,12.22-.23.85-1.36.75-1.63,0-2.34-6.49-9.09-12.48-15.52-14.77-.78-.28-1-1.65,0-1.81Zm-42.31,23.62c-7.79-7.58-9.78-21.69-2.87-30.3.58-.72,1.9.06,1.57.91-3.24,8.32-1.68,20.76,2.7,28.31.51.89-.68,1.78-1.4,1.08Zm67.14-52.31c-.2.92-1.63,1.12-2.06.27-2.83-5.68-4.34-11.83-9.31-16.13-4.96-4.29-11.39-6.77-16.99-10.1-.75-.45-.49-1.83.47-1.75,14.76,1.23,31.67,10.52,27.88,27.7Z"/>
  </g>
</svg>