<?xml version="1.0" encoding="UTF-8"?>
<svg id="Layer_2" data-name="Layer 2" xmlns="http://www.w3.org/2000/svg" viewBox="0 0 106.73 116">
  <defs>
    <style>
      .cls-1 {
        stroke-width: 0px;
      }
    </style>
  </defs>
  <g id="vectors">
    <path class="cls-1" d="m104.06,18.96c-.85-3.71-1.91-7.43-3.89-10.68-1.98-3.25-5.01-6.01-8.69-6.95-6.57-1.68-13.43,2.93-16.6,8.93-3.16,5.99-3.5,13.03-3.73,19.8-.26,7.66-1.55,29.62-14.68,26.9-3.05-.63-5.49-3-6.88-5.82-.23-.46-.43-.93-.6-1.41-1.21-3.42-1.15-7.14-.85-10.76.51-6.29,1.68-12.56,1.26-18.85-.41-6.29-2.69-12.83-7.71-16.64-10.09-7.65-22.15-1.57-28.77,7.25-18.48,24.62-15.39,59.33-1.69,85.34,4.18,7.94,9.97,15.74,18.42,18.72,7.35,2.59,16.05.89,21.87-4.28,6.52-5.79,6.17-12.6,7.87-20.37,1.13-5.2,4.67-16.81,12.32-13.49,7.66,3.33,1.95,17.83,4,24.19,1.71,5.29,6.78,9.93,12.28,9.18,6.03-.82,9.49-7.19,11.54-12.92,4.38-12.26,6.86-25.33,7.07-38.36.21-13.48.52-26.5-2.54-39.79ZM30.18,6.41c-.97.07-1.21-1.28-.47-1.75,4.57-2.87,10.01.78,12.87,4.37,4.15,5.2,4.2,11.76,2.88,18.02-.12.59-1.04.57-1.18,0-1.07-4.61-2.67-8.95-5.27-12.93-1.43-2.19-5.93-7.92-8.84-7.71Zm23.83,56.49c-3.52.19-7.7-.27-10.3-2.95-2.43-2.5-3.21-5.84-1.83-9,.41-.94,1.68-.34,1.75.47.47,5.59,5.61,9.08,10.5,10.65.46.15.36.8-.11.83Zm47.56-35.11c-.05.64-.89.76-1.1.15-2.22-6.37-7.46-24.8-17.58-18.8-.91.54-1.94-.76-1.14-1.47,12.67-11.31,20.61,9.71,19.82,20.13Z"/>
  </g>
</svg>