<?xml version="1.0" encoding="UTF-8"?>
<svg id="Layer_2" data-name="Layer 2" xmlns="http://www.w3.org/2000/svg" viewBox="0 0 53.27 22.06">
  <defs>
    <style>
      .cls-1 {
        stroke-width: 0px;
      }
    </style>
  </defs>
  <g id="vectors">
    <path class="cls-1" d="m52.91,4.98C51.11-.96,45.13-.03,40.35.17c-7.64.32-15.29.46-22.93.69-3.86.12-7.85.26-11.34,1.9C2.58,4.41-.33,7.96.03,11.8c.26,2.82,2.22,5.26,4.63,6.75,2.41,1.48,5.23,2.13,8.02,2.59,8.22,1.35,16.69,1.22,24.87-.38,4.08-.8,8.22-2.02,11.4-4.7,3.18-2.67,5.18-7.1,3.97-11.07Zm-5.3-.98c-4.41.54-8.64.38-13.06.14-1.22-.06-1.19-1.76,0-1.88,4.55-.45,8.75-.54,13.25.35.85.17.53,1.29-.19,1.38Z"/>
  </g>
</svg>