<?xml version="1.0" encoding="UTF-8"?>
<svg id="Layer_2" data-name="Layer 2" xmlns="http://www.w3.org/2000/svg" viewBox="0 0 107.83 116">
  <defs>
    <style>
      .cls-1 {
        stroke-width: 0px;
        rotate: -10deg;
        padding-top: 3px;
      }
    </style>
  </defs>
  <g id="vectors">
    <path fill="#d2d7e7" class="cls-1" d="m64.71.45c-10.29,2.33-19.81,13.35-25.75,19.51C23.27,36.23,11.83,53.77,5.55,70.87,1.96,80.64.05,90.27,0,99.42c-.02,4.43.41,8.85,3.14,12.15,2.73,3.3,8.19,5.3,14.77,4.04,5.28-1.01,10.57-3.96,14.6-7.34,4.03-3.38,6.99-7.18,9.74-10.95,20.6-28.17,32.69-57.48,34.88-84.55.48-5.89-1.06-14.9-12.42-12.33Zm7.21,22.82c-.31.67-1.45.34-1.4-.38.3-4.03,1.62-16.94-5.06-15.79-.85.14-1.67-.88-.91-1.57,2.86-2.6,7.17-1.3,8.64,2.15,2.04,4.77.79,11.06-1.27,15.59Z"/>
  </g>
</svg>
