<?xml version="1.0" encoding="UTF-8"?>
<svg id="Layer_2" data-name="Layer 2" xmlns="http://www.w3.org/2000/svg" viewBox="0 0 102.45 116">
  <defs>
    <style>
      .cls-1 {
        stroke-width: 0px;
      }
    </style>
  </defs>
  <g id="vectors">
    <path class="cls-1" d="m100.92,18.83c-1.24-5.61-3.28-11.08-7.35-14.79-4.08-3.7-10.54-5.33-16.65-2.84-5.3,2.16-9.55,7.03-11.99,12.15-2.45,5.11-3.36,10.52-4.05,15.79-1.94,14.7-2.55,29.29-1.83,43.55-5.59-7.28-12.76-13.27-21.11-17.56-5.52-2.84-12.08-4.95-18.96-2.89-5.85,1.75-11.12,6.41-14.33,11.77C1.43,69.37.11,75.36,0,81c-.23,14.03,7.28,26.39,19.34,31.83,12.06,5.44,28.31,3.79,41.86-4.25,8.21-4.87,15.27-11.83,21.12-19.39,16.42-21.23,23.5-48.03,18.58-70.36Zm-56.72,52.48c-6.27-5.22-16.2-12.85-24.99-9.8-1.06.37-1.56-1.16-.72-1.71,9.28-6.13,24-.02,28.44,9.41.85,1.82-1.19,3.37-2.72,2.1Zm50.7-45.54c-.32,1.35-2.38,1.33-2.71,0-2.04-8.3-5.32-18.44-15.81-17.5-.78.07-1.29-1.11-.66-1.6,4.66-3.69,10.55-2.47,14.8,1.36,5.05,4.53,5.88,11.46,4.38,17.74Z"/>
  </g>
</svg>