<?xml version="1.0" encoding="UTF-8"?>
<svg id="Layer_2" data-name="Layer 2" xmlns="http://www.w3.org/2000/svg" viewBox="0 0 109.14 116">
  <defs>
    <style>
      .cls-1 {
        stroke-width: 0px;
      }
    </style>
  </defs>
  <g id="vectors">
    <path class="cls-1" d="m108.47,84.72c-2.4-10.53-10.36-19.21-19.85-24.35-5.6-3.02-11.77-4.95-18.09-5.71,5.38-3.66,10.42-7.83,15-12.46,5.94-5.98,11.62-12.69,14.94-20.55,1.58-3.77,2.18-8.11.74-11.93C98.73,3.07,90.66-.15,83.64.85c-7.02,1-13.11,5.28-18.53,9.86-7.7,6.51-14.6,13.94-20.58,22.06,1.38-6.25,2.17-12.52,2.01-18.94-.14-4.93-1.26-10.62-5.63-12.91-2.78-1.46-6.23-1.07-9.04.3-2.81,1.38-5.09,3.62-7.19,5.94C3.84,30.1-4.72,63.57,2.55,93.68c1.51,6.23,3.81,12.57,8.49,16.96,5.82,5.47,13.35,6.21,19.2,1.11,6.14-5.34,10.52-12.52,12-20.55,1.25-6.73.43-13.8-2.21-20.1,4.73,6.87,9.45,13.75,14.18,20.62,3.88,5.64,7.82,11.35,12.9,15.96,5.09,4.6,11.51,8.06,18.36,8.31,4.19.16,8.42-.91,12.03-3.05,9.29-5.5,13.39-17.7,10.98-28.21ZM87.63,5.81c3.59-.77,7.17.67,9.23,3.78,2.83,4.28,1.83,9.01,0,13.41-.49,1.17-2.49,1.57-2.8,0-.99-4.96-1.46-13-6.65-15.47-.72-.34-.53-1.55.22-1.71Zm-47.7,84.56c-.49,1.25-2.17,1.03-2.3-.31-.59-6.01-1.17-12.18-1.41-18.21-.04-.99,1.26-1.19,1.75-.47,3.71,5.43,4.36,12.95,1.97,19Zm2.17-72.9c-.31.62-1.19.27-1.22-.33-.19-3.91-2-12.75-7.86-10.73-1.06.37-1.56-1.16-.72-1.71,2.71-1.8,7.6-1.84,9.48,1.14,2.17,3.44,2.09,8.09.32,11.63Zm61.2,82.44c-.87,1.33-3.22.91-3.15-.85.44-10.43-2.31-22.31-11.85-28.24-.77-.48-.48-1.76.47-1.75,14.77.17,21.83,19.64,14.52,30.84Z"/>
  </g>
</svg>