<?xml version="1.0" encoding="UTF-8"?>
<svg id="Layer_2" data-name="Layer 2" xmlns="http://www.w3.org/2000/svg" viewBox="0 0 94.78 116">
  <defs>
    <style>
      .cls-1 {
        stroke-width: 0px;
      }
    </style>
  </defs>
  <g id="vectors">
    <path fill="#ff6d1a" class="cls-1" d="m93.05,64c-2.07-5.36-6.34-10.02-11.83-11.77-6.44-2.05-13.45.05-19.58,2.89-9.26,4.29-17.71,10.27-24.85,17.56,3.77-14.26,6.27-28.85,7.46-43.55.43-5.27.68-10.68-.69-15.79-1.35-5.12-4.56-9.99-9.4-12.15-5.58-2.49-12.38-.86-17.25,2.84-4.86,3.71-8.07,9.18-10.5,14.79C-3.27,41.16-1.91,67.96,9.98,89.19c4.24,7.57,9.82,14.52,16.99,19.39,11.84,8.04,27.73,9.69,40.96,4.25,13.22-5.44,23.37-17.8,26.13-31.83,1.1-5.65,1.06-11.63-1.02-17ZM31.65,8.63c-3.03-1.76-7.96-1.7-11.21-.77-1.03.3-1.63-1.18-.72-1.71,4.29-2.5,9.07-4.41,13.86-1.86,4.21,2.25,6.01,6.58,6.42,11.13.13,1.44-1.76,1.59-2.45.66-1.77-2.42-3.21-5.9-5.89-7.45Zm55.26,55.54c-3.5-3-7.09-5.48-11.81-5.87-3.7-.31-10.03.6-13.19,2.7-.89.59-1.93-.78-1.14-1.47,8.03-7.01,23.82-8.97,27.77,3.69.31,1-.95,1.56-1.65.96Z"/>
  </g>
</svg>