<?xml version="1.0" encoding="UTF-8"?>
<svg id="Layer_2" data-name="Layer 2" xmlns="http://www.w3.org/2000/svg" viewBox="0 0 109.47 116">
  <defs>
    <style>
      .cls-1 {
        stroke-width: 0px;
      }
    </style>
  </defs>
  <g id="vectors">
    <path fill="#d2d7e7" class="cls-1" d="m103.5,31.08c-2.88-8.53-6.4-16.82-11.35-24.38-1.53-2.34-3.28-4.71-5.82-5.89-3.36-1.58-7.48-.67-10.53,1.45-3.05,2.11-5.2,5.28-7.04,8.49-2.55,4.43-4.66,9.11-6.31,13.93-.71-3.02-1.6-5.99-2.66-8.9-1.68-4.62-3.93-9.26-7.81-12.29-6.53-5.09-16.3-4.21-23.31.2-7.02,4.4-11.75,11.61-15.58,18.96C6.85,34.58,2.39,47.51.72,60.88s-.48,27.17,4.2,39.8c1.44,3.87,3.24,7.69,6.1,10.67,2.87,2.97,6.94,5,11.04,4.59,3.94-.38,7.42-2.97,9.73-6.19,2.3-3.23,3.58-7.05,4.64-10.87,2.22-7.94,3.62-16.09,4.2-24.3,1.97,4.36,4.27,8.55,6.87,12.56,2.01,3.1,4.74,6.38,8.45,6.44,2.17.03,4.23-1.14,5.72-2.71,1.5-1.59,2.48-3.57,3.39-5.56,1.73-3.82,3.17-7.74,4.33-11.76,1.96,8.1,5.52,15.82,10.49,22.53,2.84,3.86,6.58,7.62,11.33,8.18,4.68.55,9.26-2.26,11.98-6.09s3.92-8.53,4.73-13.16c3.17-17.98,1.4-36.67-4.42-53.93Zm-49.85-11.25c-3.09-4.88-5.76-10.21-10.83-13.34-.72-.44-.52-1.44.22-1.71,7.65-2.8,11.46,8.99,12.32,14.33.16,1.02-1.12,1.66-1.71.72Zm38.28-.68c-2.71-4.61-5.91-9.32-9.7-13.11-.38-.38-.33-.94,0-1.33,2.41-2.81,6.09,1.5,7.47,3.27,2.33,2.99,3.65,6.93,4.14,10.65.14,1.06-1.44,1.33-1.92.52Z"/>
  </g>
</svg>