<?xml version="1.0" encoding="UTF-8"?>
<svg id="Layer_2" data-name="Layer 2" xmlns="http://www.w3.org/2000/svg" viewBox="0 0 112.8 116">
  <defs>
    <style>
      .cls-1 {
        stroke-width: 0px;
      }
    </style>
  </defs>
  <g id="vectors">
    <path fill="#d2d7e7" class="cls-1" d="m107.65,10.03c-1.03-3.49-2.46-7.24-5.62-9.03-3.23-1.83-7.47-.98-10.49,1.17-3.03,2.15-5.09,5.4-6.92,8.63-5.74,10.14-10.05,21.1-12.79,32.43-2.93-9.09-6.8-17.87-11.58-26.14-4.1-7.11-9.81-14.46-17.95-15.52-4.53-.6-9.15.95-12.93,3.5-3.78,2.55-6.83,6.07-9.56,9.72C2.7,37.57-3.88,67.92,2.25,95.73c1.02,4.65,2.42,9.32,5.19,13.21,2.75,3.88,7.07,6.89,11.84,7.05,4,.14,7.89-1.74,10.87-4.44,2.97-2.71,5.14-6.17,7.06-9.7,5.39-9.9,9.12-20.69,11.04-31.81,3.76,12.1,9.7,23.53,17.52,33.49,3.77,4.8,8.46,9.54,14.5,10.42,5.39.78,10.84-1.78,14.69-5.62,3.84-3.84,6.3-8.84,8.36-13.87,10.93-26.57,12.48-56.89,4.33-84.45Zm-51.19,17.98c-1.72-7.11-9.56-21.11-18.71-17.96-1.04.36-1.6-1.18-.72-1.71,5.08-3.12,10.54-.94,14.55,2.86,4.71,4.47,6.97,10.06,7.37,16.48.09,1.44-2.16,1.7-2.49.34Zm50.25-8.37c-.05,1.24-1.91,1.57-2.21.3-.67-2.82-1.64-5.41-2.72-8.08-1.2-2.96-3.1-5.8-6.75-5.12-.97.18-1.75-1.24-.72-1.71,9.34-4.28,12.69,7.65,12.41,14.62Z"/>
  </g>
</svg>