<?xml version="1.0" encoding="UTF-8"?>
<svg id="Layer_2" data-name="Layer 2" xmlns="http://www.w3.org/2000/svg" viewBox="0 0 113.51 116">
  <defs>
    <style>
      .cls-1 {
        stroke-width: 0px;
      }
    </style>
  </defs>
  <g id="vectors">
    <path fill="#d2d7e7" class="cls-1" d="m113.39,32.03C111.37,4.56,81.61-5.21,58.49,2.61c-14.25,4.81-26.2,14.8-36.32,25.91-7.95,8.73-15.1,18.46-19.05,29.59-3.97,11.12-4.48,23.83.48,34.55,6.54,14.09,22.09,22.87,37.62,23.32,15.54.46,30.69-6.6,42.05-17.2,11.36-10.61,19.21-24.5,24.78-39.01,3.4-8.86,6.06-18.27,5.35-27.74Zm-75.1,39.78c-8.61-2.45-12.58-12.96-6.22-19.83.63-.68,1.86.02,1.57.91-2.19,6.63-.82,13.45,5.26,17.46.74.49.28,1.71-.61,1.46Zm13.65-3.97c-3.3.57-6.83.61-9.9-.75-3.08-1.35-5.6-4.33-5.66-7.69-.06-2.46,1.19-4.82,2.96-6.54,5.01-4.88,19.87-9.86,25.68-3.67,7.79,8.27-6.19,17.44-13.08,18.65Zm54.6-27.22c-.5,1.23-2.35,1.13-2.39-.32-.21-6.71-1.61-13.53-5.44-19.18-3.75-5.52-10.85-11.68-17.37-13.54-1.16-.33-.66-2.14.5-1.81,8.25,2.35,15.9,5.23,21.33,12.35,4.91,6.44,6.43,14.93,3.38,22.5Z"/>
  </g>
</svg>