<?xml version="1.0" encoding="UTF-8"?>
<svg id="Layer_2" data-name="Layer 2" xmlns="http://www.w3.org/2000/svg" viewBox="0 0 110.33 116">
  <defs>
    <style>
      .cls-1 {
        stroke-width: 0px;
      }
    </style>
  </defs>
  <g id="vectors">
    <path fill="#ff6d1a" class="cls-1" d="m98.93,12.7C90.67,5.23,79.54,1.55,68.47.4c-12.08-1.25-24.54.36-35.61,5.33-11.07,4.98-20.69,13.41-26.44,24.11C1.06,39.83-.81,51.52.31,62.79c1.12,11.28,5.13,22.16,10.84,31.94,4.58,7.83,10.57,15.27,18.81,19.04,8.24,3.77,19.1,2.94,25.08-3.88,4.41-5.02,5.44-12.29,4.47-18.89-.62-4.22-2.04-8.26-4.11-11.98,13.72-1.17,27.14-6.02,38.19-14.24,7.48-5.55,14.13-12.97,16.12-22.06,2.39-10.89-2.54-22.54-10.79-30.02Zm-53.98,20.18c.72-.63,2.25-.03,1.8,1.05-2.12,5.13-.34,10.28,5.2,11.84,1.5.43,1.16,2.62-.36,2.67-7.97.24-12.87-10.06-6.64-15.56Zm11.16,52.23c1.25,3.85.78,7.65.9,11.62.02.73-1.05,1.04-1.4.38-1.49-2.86-2.3-5.85-2.92-9.01-.53-2.65-2.68-5.23-2.65-7.85,0-.52.43-.93.94-.94,2.95-.06,4.36,3.4,5.14,5.79Zm13.58-47.28c-3.85,1.91-8.11,2.96-12.41,3.07-2.65.07-7.42.91-7.65-3.05-.01-.28,0-.56.05-.81.86-4.3,10.59-5.36,13.76-5.25,2.72.1,13.03,2.68,6.24,6.03Zm32.71-7.42c-4.18-10.89-16.63-18.71-27.14-22.61-1.12-.41-.66-2.19.5-1.81,7.32,2.38,14.13,3.54,20.17,8.73,4.77,4.1,7.43,9.24,7.77,15.52.04.8-1.04.82-1.29.17Z"/>
  </g>
</svg>