<?xml version="1.0" encoding="UTF-8"?>
<svg id="Layer_2" data-name="Layer 2" xmlns="http://www.w3.org/2000/svg" viewBox="0 0 108.82 116">
  <defs>
    <style>
      .cls-1 {
        stroke-width: 0px;
      }
    </style>
  </defs>
  <g id="vectors">
    <path class="cls-1" d="m94.83,71.61c4.92-7.42,9.56-15.65,11.74-24.2,1.87-7.3,3.25-15.06,1.29-22.5-2.11-8.08-8.06-14.87-15.32-19.02C85.29,1.74,76.8.07,68.44,0,46.98-.17,25.7,10.52,13.03,27.84.34,45.16-3.42,68.68,3.24,89.09c2.57,7.88,6.81,15.55,13.6,20.31,7.78,5.46,18.12,6.42,27.36,4.17,7.81-1.91,14.92-5.9,21.4-10.7,2.92,2.86,6.13,5.42,9.59,7.62,3.8,2.42,7.96,4.42,12.4,5.19,4.45.77,9.23.21,13.07-2.16,4.3-2.67,7.05-7.46,7.86-12.45.81-5-.19-10.17-2.16-14.83-2.46-5.78-6.52-10.82-11.51-14.63Zm-54.53-3.15c-5.23-1.45-9.51-4.4-9.9-10.2-.39-5.67,1.8-11.61,7.47-13.52.92-.31,1.53.92.91,1.57-2.97,3.08-3.3,7.89-3.35,11.95-.05,4.4,2.46,6.48,5.46,9.18.46.42-.03,1.18-.59,1.02Zm24.21-12.64c-1.83,2.72-4.8,4.44-7.8,5.78-3.65,1.65-7.68,2.92-11.62,2.23-3.95-.69-7.7-3.87-7.85-7.87-.11-2.96,1.68-5.7,3.88-7.69,4.66-4.23,11.44-5.77,17.54-4.46,2.32.49,5.39,1.28,6.59,3.5,1.37,2.54.78,6.21-.74,8.51Zm10.94-48.43c-.81-.25-.97-1.66,0-1.81,12.36-1.86,29.25,9.78,26.19,23.51-.24,1.06-1.81.99-2.08,0-2.76-10.08-14.5-18.76-24.11-21.7Zm24.8,80.04c-1.33-2.01-2.86-3.93-4.34-5.84-1.36-1.75-3.08-3.5-3.96-5.55-.29-.68.19-1.66,1.06-1.38,4.92,1.63,7.51,7.59,8.52,12.22.17.79-.84,1.21-1.29.54Z"/>
  </g>
</svg>