<?xml version="1.0" encoding="UTF-8"?>
<svg id="Layer_2" data-name="Layer 2" xmlns="http://www.w3.org/2000/svg" viewBox="0 0 114.92 116">
  <defs>
    <style>
      .cls-1 {
        stroke-width: 0px;
      }
    </style>
  </defs>
  <g id="vectors">
    <g>
      <path class="cls-1" d="m107.51,8.73c-4.68-4.25-11-6.08-17.18-7.23C63.14-3.56,34.91,4.25,15.15,24.04c-12.8,12.81-25.28,43.63-2.51,53.64,7.27,3.19,16.83,2.16,22.38-3.68,2.75-2.9,5.77-4.92,7.77-8.54,1.96-3.55,2.96-7.65,2.69-11.71-.23-3.47-1.31-6.86-1.31-10.34,0-4.97,2.36-9.9,6.23-13.02,3.87-3.12,9.18-4.38,14.04-3.33,3.19.69,6.33,2.51,7.72,5.46,1.23,2.59.95,5.7-.11,8.37-3.6,9.11-12.84,13.67-19.34,20.39-5.28,5.45-10.18,14.94-6.31,22.41.36.7.8,1.41,1.31,2.12,3.21,4.5,8.3,7.72,13.83,8.31,5.61.59,11.35-1.55,15.44-5.38,5.33-4.98,5.64-10.99,7.56-17.58,1.89-6.48,8.03-8.87,12.89-12.91,7.3-6.08,13.73-13.74,16.35-22.97,2.62-9.22.77-20.15-6.27-26.54ZM31.36,70.04c-1.51.53-2.31-1.71-1.05-2.48,7.4-4.57,7.14-13.96,8.09-21.6.12-.98,1.57-1.36,1.84-.25,2.22,9.16,1.4,20.68-8.89,24.33ZM108.95,26.44c-.38,1.02-2.1,1.28-2.35,0-.89-4.58-1.25-8.02-4.25-11.81-2.72-3.44-6.12-7.52-10.84-7.65-1.23-.03-1.17-1.74,0-1.88,5.89-.65,9.97,2.49,13.92,6.45,4.28,4.29,5.68,9.03,3.52,14.89Z"/>
      <path class="cls-1" d="m78.76,99.87c-7.58-8.94-23.26-4.08-31.44,1.34-1.44.95-2.83,2.04-3.81,3.47-.97,1.44-1.48,3.29-.99,4.96.79,2.72,3.75,4.07,6.44,4.8,7.63,2.1,15.81,2.07,23.43-.08,3.18-.9,6.54-2.41,7.97-5.44,1.38-2.93.48-6.6-1.6-9.06Zm-4.47.87c-2.72-1.04-5.81-1.74-8.74-1.53-.9.07-1.32-1.37-.47-1.75,3.65-1.61,7.29-1.32,10.35,1.32.86.74-.05,2.37-1.14,1.96Z"/>
    </g>
  </g>
</svg>