<?xml version="1.0" encoding="UTF-8"?>
<svg id="Layer_2" data-name="Layer 2" xmlns="http://www.w3.org/2000/svg" viewBox="0 0 34.7 39.59">
  <defs>
    <style>
      .cls-1 {
        stroke-width: 0px;
      }
    </style>
  </defs>
  <g id="vectors">
    <path class="cls-1" d="m31.42,18.13c-1.86-2-4.68-3.07-7.4-2.83-1.93.17-11.12,4.04-10.08-1.13.34-1.7,2.12-2.77,3.85-3.01,1.72-.23,3.46.15,5.2.24,2.02.1,4.14-.24,5.79-1.41s2.74-3.27,2.29-5.25c-.64-2.79-3.81-4.16-6.64-4.55-.6-.08-1.2-.14-1.81-.17C15.79-.33,8.9,2.64,4.29,7.65-1.31,13.73-1.14,23.85,3.13,30.74c2.68,4.33,7.25,7.53,12.27,8.46,4.48.83,11.61.44,15.36-2.32,5.34-3.93,4.94-14.15.65-18.75ZM21.17,1.62c2.21-.59,4.82-.28,6.5,1.37.6.59-.16,1.43-.85,1.1-1.7-.81-3.3-1.23-5.15-.67-1.16.35-1.66-1.5-.5-1.81Zm6.66,20.41c-.71-1.89-2.38-3.11-4.4-2.95-1.11.09-1.2-1.53-.25-1.84,3.23-1.05,6.72.63,7.45,4.02.4,1.85-2.15,2.51-2.8.77Z"/>
  </g>
</svg>