<?xml version="1.0" encoding="UTF-8"?>
<svg id="Layer_2" data-name="Layer 2" xmlns="http://www.w3.org/2000/svg" viewBox="0 0 115.79 116">
  <defs>
    <style>
      .cls-1 {
        stroke-width: 0px;
      }
    </style>
  </defs>
  <g id="vectors">
    <path fill="#d2d7e7" class="cls-1" d="m110,90.27c-8.71-10.43-20.46-18.22-33.35-22.44,3.6-2.11,7.02-4.45,10.12-7.24,7.15-6.4,12.46-15.51,12.1-25.1-.28-7.4-3.9-14.37-8.85-19.87C79.79,4.23,63.75-1.39,48.52.29c-7.64.84-15.87,2.95-22.6,6.77-7.35,4.18-12.97,10.98-16.89,18.47C.26,42.27-1.84,61.87,1.51,80.37c1.82,10.01,4.19,21.47,11.88,28.77,2.14,2.05,4.76,3.62,7.64,4.37,2.34.6,5.73,1.29,8.09.6,5.71-1.68,10.01-7.22,11.85-12.64,1.55-4.56,1.8-9.41,1.4-14.24,8.02,8.22,17.33,15.35,27.33,20.55,6.03,3.14,12.47,5.55,19.14,6.9,6.09,1.25,12.89,2.29,18.74-.29,4.18-1.83,7.61-5.71,8.14-10.24.6-5.12-2.42-9.93-5.72-13.89ZM33.18,50.75c-2.94-2.27-4.7-5.53-4.38-9.28.31-3.7,2.44-6.38,6.31-5.96.79.09,1.26.97.66,1.6-1.61,1.72-2.88,3.49-2.91,5.92-.03,2.39.47,4.58,1.8,6.58.65.97-.71,1.73-1.47,1.14Zm30.12-1.82c-.17,1.92-1.48,3.61-3.13,4.6-1.65,1-3.59,1.39-5.51,1.51-3.95.24-7.91-.69-11.39-2.51-4.46-2.32-13.94-10.22-5.49-13.79,6.61-2.8,15.28-.86,21.04,3.03,2.44,1.67,4.76,4.21,4.49,7.16Zm-3.44-42.16c-.93-.34-.87-1.97.25-1.84,11.89,1.33,25.82,4.97,29.43,18.08.23.83-.81,1.39-1.41.82-8.16-7.63-17.76-13.25-28.27-17.06Zm32.02,74.65c-3.59-2-7.63-2.94-11.44-4.42-2.14-.83-6.1-1.76-5.94-4.64.17-3.24,6.45.14,7.64.59,4.16,1.61,7.93,3.5,11.11,6.7.91.92-.26,2.38-1.36,1.77Z"/>
  </g>
</svg>