<?xml version="1.0" encoding="UTF-8"?>
<svg id="Layer_2" data-name="Layer 2" xmlns="http://www.w3.org/2000/svg" viewBox="0 0 116.51 116">
  <defs>
    <style>
      .cls-1 {
        stroke-width: 0px;
      }
    </style>
  </defs>
  <g id="vectors">
    <path fill="#d2d7e7" class="cls-1" d="m62.06,16.05c4.2-.83,8.61.71,12.05,3.26,3.44,2.55,6.06,6.04,8.48,9.57,2.43,3.53,4.73,7.18,7.72,10.25,2.99,3.07,6.79,5.55,11.04,6.08,11.11,1.39,17.11-9.49,14.59-19.23-1.95-7.52-7.42-13.82-14.03-17.91-6.61-4.09-14.3-6.14-22-7.2-18-2.48-36.7.3-53.2,7.91-5.55,2.56-11,5.78-14.69,10.65-3.69,4.87-5.29,11.71-2.68,17.23,3.22,6.82,11.59,9.6,19.13,9.71s15.07-1.72,22.58-.98c4.18.41,9.04,2.44,9.61,6.61.32,2.33-.92,4.68-2.76,6.14s-4.19,2.14-6.51,2.43c-7.36.92-14.63-1.71-21.84-3.43s-15.43-2.36-21.48,1.94c-4.27,3.03-6.72,8.11-7.63,13.26-2.63,14.85,6.95,30.03,20.2,37.24s29.28,7.6,44.1,4.8c10.83-2.05,21.77-5.96,29.41-13.91,7.82-8.13,11.32-20.19,9.09-31.25s-10.15-20.81-20.51-25.27c-4.17-1.8-8.64-2.77-12.96-4.17-4.32-1.4-8.62-3.32-11.74-6.62-2.15-2.27-4.46-6.92-3.85-10.1.68-3.59,4.5-6.36,7.89-7.02Zm21.6-11.79c10.35.74,19.66,5.35,24.18,15.11.5,1.09-.77,2.18-1.69,1.31-6.48-6.11-14.1-11.96-22.74-14.57-.98-.3-.83-1.92.25-1.84ZM26.8,61.77c-6.36-.5-13.53.07-18.43,4.63-.79.73-1.98-.2-1.47-1.14,4.15-7.63,12.56-9.03,20.27-6.25,1.4.51,1.3,2.89-.37,2.76Zm32.44-23.58c1.01,1.07-.27,2.63-1.53,1.99-6.03-3.06-8.68-8.91-8.13-15.53.08-1,1.6-1.34,1.84-.25,1.1,5.07,4.28,10.04,7.82,13.79Z"/>
  </g>
</svg>
