<?xml version="1.0" encoding="UTF-8"?>
<svg id="Layer_2" data-name="Layer 2" xmlns="http://www.w3.org/2000/svg" viewBox="0 0 32.89 61.26">
  <defs>
    <style>
      .cls-1 {
        stroke-width: 0px;
      }
    </style>
  </defs>
  <g id="vectors">
    <g>
      <path class="cls-1" d="m28.87,4.14C23.07-.6,11.58-1.52,5.36,2.7,1.73,5.16-.65,9.68.16,13.99c.8,4.21,4.44,7.48,8.53,8.79s8.52.93,12.7,0c4.32-.96,8.94-2.87,10.77-6.89,1.81-3.98.09-8.98-3.29-11.74Zm-2.25,5.29c-.85-2.26-3.05-4.22-5.48-4.47-1.19-.12-1.22-1.8,0-1.88,3.66-.22,7.04,2.07,7.83,5.7.34,1.55-1.8,2.1-2.35.65Z"/>
      <path class="cls-1" d="m30.15,31.59c-2.44-3.42-6.86-4.84-11.05-5.25-3.7-.36-7.54-.09-10.92,1.44-3.39,1.53-6.26,4.44-7.14,8.05-.88,3.61.57,7.83,3.81,9.66,1.6.91,3.5,1.2,5.12,2.06,1.63.86,3.04,2.69,2.47,4.45-.45,1.4-1.93,2.14-3.29,2.71-2.55,1.06-5.67,3.99-2.1,5.94,2.77,1.51,7.14-.1,9.75-1.21,6.77-2.88,12.35-8.72,14.49-15.82,1.2-3.99,1.28-8.63-1.14-12.02Zm-2.86,3.3c-.89-.87-1.8-1.69-2.79-2.44-.51-.38-.98-.78-1.53-1.09-.53-.3-1.05-.48-1.51-.86-.52-.43-.26-1.45.41-1.57,1.38-.24,3.19.54,4.27,1.4,1.21.96,2.08,2.36,2.33,3.88.11.66-.64,1.21-1.18.68Z"/>
    </g>
  </g>
</svg>