<?xml version="1.0" encoding="UTF-8"?>
<svg id="Layer_2" data-name="Layer 2" xmlns="http://www.w3.org/2000/svg" viewBox="0 0 114.68 116">
  <defs>
    <style>
      .cls-1 {
        stroke-width: 0px;
      }
    </style>
  </defs>
  <g id="vectors">
    <path fill="#d2d7e7" class="cls-1" d="m106.07,8.54c-4.29-3.26-9.6-4.73-14.82-5.82C76.9-.25,62.08-.78,47.56,1.08c-7.35.94-14.62,2.49-21.73,4.64-6.62,2-11.52,4.95-16.68,9.73C4.18,20.06.45,26.43.03,33.31c-.41,6.9,2.99,14.19,9.01,17.14,4.96,2.43,10.84,1.7,16.1.04,5.56-1.76,10.76-4.49,15.6-7.83-5.05,14.02-8.3,28.73-9.6,43.64-.4,4.56-.62,9.19.2,13.68.82,4.5,2.76,8.9,6.09,11.91,4.65,4.19,11.55,5.1,17.42,3.15,14.13-4.71,22.44-22.23,24.64-36.33,1.46-9.43,1.3-19.12.22-28.69,6.09,2.2,12.9,2.28,18.9-.21,8.75-3.63,16.21-14.02,16.07-23.95-.09-6.72-3.38-13.32-8.61-17.3Zm-2.61,11.47c-7.17-8.27-19.79-10.6-30.07-12.4-.89-.16-.9-1.67,0-1.81,10.23-1.56,29.28.55,32.66,12.7.4,1.42-1.55,2.7-2.59,1.5Z"/>
  </g>
</svg>