<?xml version="1.0" encoding="UTF-8"?>
<svg id="Layer_2" data-name="Layer 2" xmlns="http://www.w3.org/2000/svg" viewBox="0 0 111.88 116">
  <defs>
    <style>
      .cls-1 {
        stroke-width: 0px;
      }
    </style>
  </defs>
  <g id="vectors">
    <path fill="#d2d7e7" class="cls-1" d="m107.02,7.44c-11.87-11.81-28.89,5.32-34.64,15.63-5.54,9.94-8.15,21.29-11.57,32.2-3.43,10.92-8,21.94-16.39,29.48-2.57,2.31-5.54,4.29-8.88,5.06-3.3.76-7,.22-9.62-2-.03-.03-.07-.06-.1-.08-6.72-5.88-1.02-16.9,3.15-22.34,4.68-6.11,10.56-10.94,15.78-16.5,8.15-8.69,15.73-19.48,15.16-31.57C59.36,5.81,49.91-1.92,38.86.42c-5.9,1.25-11.07,4.86-15.54,8.99C5.6,25.74-1.89,49.57.4,73.68c.78,8.26,2.91,16.48,7.01,23.65,4.1,7.16,10.26,13.22,17.77,16.3,11.66,4.79,25.27,1.88,35.95-4.84,10.68-6.71,18.91-16.8,26.43-27.08,12.68-17.35,24.34-37.14,24.33-58.88,0-5.54-.98-11.53-4.86-15.39Zm-62.53-2.05c14.49-.28,13.59,21.33,4.92,27.93-.95.73-2.03-.64-1.54-1.54,3.41-6.2,6.51-22.21-3.63-24.55-1.06-.24-.78-1.82.25-1.84Zm-24.24,85.81c-4.55-6.01-3.84-12.89-1-19.49.48-1.11,2.09-.15,1.62.95-2.44,5.67-1.33,12.38.58,18.04.26.77-.79,1.05-1.2.51ZM104.67,29.91c-1.05-4.02-.64-8.27-1.82-12.26-1.29-4.36-5.51-7.08-10.01-6.84-1.08.06-1.24-1.56-.25-1.84,4.8-1.34,10.02-1.46,13.37,2.94,3.96,5.2,2.78,12.15,1.24,18-.33,1.25-2.2,1.25-2.53,0Z"/>
  </g>
</svg>