<?xml version="1.0" encoding="UTF-8"?>
<svg id="Layer_2" data-name="Layer 2" xmlns="http://www.w3.org/2000/svg" viewBox="0 0 87.79 23.25">
  <defs>
    <style>
      .cls-1 {
        stroke-width: 0px;
      }
    </style>
  </defs>
  <g id="vectors">
    <path class="cls-1" d="m81.75,2.04C75.34-.59,68.19.11,61.29.02,42.83-.24,24.4,2.62,8.07,8.41,4.06,9.83-.35,12.1.02,15.32c.43,3.71,6.69,5.49,11.85,6.18,17.53,2.35,35.58,2.34,52.9-.03,7.32-1,14.96-2.61,19.71-6.64,4.94-4.18,4.63-9.78-2.72-12.79Zm-4.25,3.72c-7.5-2.06-15.02-.9-22.65-1.23-1.2-.05-1.21-1.87,0-1.88,7.95,0,15.9-2.13,23.45,1.22,1.1.49.29,2.19-.79,1.89Z"/>
  </g>
</svg>