<?xml version="1.0" encoding="UTF-8"?>
<svg id="Layer_2" data-name="Layer 2" xmlns="http://www.w3.org/2000/svg" viewBox="0 0 98 116">
  <defs>
    <style>
      .cls-1 {
        stroke-width: 0px;
      }
    </style>
  </defs>
  <g id="vectors">
    <path class="cls-1" d="m97.95,37.22c-.17-4.71-.16-10.59-3.37-14.41-4.93-5.86-12.65-1.53-16.87,2.75-3.08,3.12-5.81,6.58-8.14,10.28-4.05,6.42-6.84,13.62-8.63,20.97.14-.56-.2-1.65-.24-2.24-.07-1.01-.14-2.01-.21-3.02-1.19-18.28-7.01-45.61-27.95-50.96C31.08.24,29.59.03,28.09,0,17.78-.21,8.46,7.04,4.1,15.9-.26,24.77-.5,34.94.47,44.67c1.48,15.1,5.01,29.59,12.39,43.06,4.69,8.57,10.21,17.1,18.5,22.72,5.42,3.67,12.22,5.86,18.94,5.52,12.5-.63,21.85-12.5,28.41-21.59,6.44-8.94,11.72-18.72,15.03-29.1,2.88-9.08,4.55-18.56,4.21-28.05Zm-51.93-12.77c-7-8.79-15.44-18.92-28.21-15.42-1,.27-1.71-1.27-.72-1.71,6.51-2.95,12.53-3.48,18.99.28,6.13,3.57,9.72,9.11,11.9,15.71.35,1.06-1.22,2.07-1.96,1.14Zm48.04,20.26c-.61,1.19-2.44.59-2.45-.66,0-2.98.54-6.08-.42-8.97-.95-2.87-2.79-7.14-5.69-8.25-1.03-.4-.88-1.86.26-1.93,4.44-.29,7.26,3.29,8.95,7,2.02,4.44,1.55,8.54-.65,12.82Z"/>
  </g>
</svg>