<?xml version="1.0" encoding="UTF-8"?>
<svg id="Layer_2" data-name="Layer 2" xmlns="http://www.w3.org/2000/svg" viewBox="0 0 116.82 116">
  <defs>
    <style>
      .cls-1 {
        stroke-width: 0px;
      }
    </style>
  </defs>
  <g id="vectors">
    <path class="cls-1" d="m113.42,11.23c-1.29-4.47-3.49-9.34-7.89-10.82-2.99-.99-6.37-.11-8.97,1.67s-4.53,4.37-6.24,7.01c-5.89,9.1-10.74,24.99-12.17,35.75-2.58-7.3-4.77-19.8-8.66-26.49-1.45-2.49-3.02-4.96-5.17-6.87-2.16-1.91-5.02-3.19-7.87-2.9-3.22.32-6,2.6-7.69,5.36-1.68,2.77-1.6,5.95-2.33,8.97-1.3,5.39-1.21,18.64-1.93,24.37-1.94-6.17-5.71-19.21-8.81-24.82-2.46-4.46-5.42-8.8-9.6-11.71-4.18-2.91-9.79-4.17-14.47-2.15C5.11,11.41,2.52,19.14,1.26,26.1c-4.1,22.61,2.31,47.99,12.08,68.47,3.14,6.58,6.98,13.1,12.87,17.42,3.83,2.8,8.39,4.21,13.14,4,4.78-.22,8.13-1.28,11.72-4.52,3.36-3.04,5.93-6.89,7.81-10.99,1.7-3.73,2.87-7.67,3.82-11.65.48-2,.88-4.01,1.29-6.02.27-1.3,1.28-3.83.91-5.13,1.85,6.52,3.44,13.01,5.78,19.4,1.49,4.07,3.52,8.07,6.75,10.96,6.73,6.01,15.19,3.48,21.08-2.35,8.17-8.11,11.35-19.86,13.74-31.12,4.4-20.88,7.1-42.83,1.19-63.33ZM32.76,27.77c-4.56-7.33-9.99-11.8-18.93-11.67-.96.01-1.24-1.26-.47-1.75,9.45-6.01,19.24,3.71,21.46,12.55.31,1.25-1.38,1.95-2.06.87Zm34.99,5.31c-2.04-6.69-4.78-17.41-13.42-17.3-.95.01-1.25-1.27-.47-1.75,3.76-2.31,7.96.09,10.3,3.25,3.24,4.38,5.05,10.17,5.07,15.59,0,.86-1.23,1-1.47.2Zm44.16-9.43c-.06,1.6-2.15,1.77-2.67.36-1.27-3.41-1.54-7.15-3.03-10.47-1.63-3.63-4.05-5.26-7.4-7.09-.63-.34-.59-1.27,0-1.62,3.62-2.16,8.1.4,10.24,3.52,2.96,4.31,3.05,10.29,2.86,15.3Z"/>
  </g>
</svg>