<?xml version="1.0" encoding="UTF-8"?>
<svg id="Layer_2" data-name="Layer 2" xmlns="http://www.w3.org/2000/svg" viewBox="0 0 113.29 116">
  <defs>
    <style>
      .cls-1 {
        stroke-width: 0px;
      }
    </style>
  </defs>
  <g id="vectors">
    <path class="cls-1" d="m108.72,83.2c-.07-.15-.14-.31-.23-.46-4.72-9.92-11.09-18.9-18.3-27.17,5.47-7.15,10.5-14.63,15.02-22.37,4.27-7.27,7.85-15.02,7.85-23.65.11-10.46-10.32-10.51-18.02-8.59-2.29.57-4.48,1.27-6.63,2.09-7.51,2.89-14.21,7.25-20.65,12.29-3.55,2.78-7.01,5.65-10.4,8.61-4.78-3.95-9.75-7.66-14.95-10.97-5.54-3.53-11.38-6.63-17.54-8.95C19.41,1.97,12-.83,6.38,2.21c-9.25,5.03-4.01,19.54-.92,26.74,4.71,10.99,11.62,20.76,19.54,29.63-7.13,9.63-13.25,19.78-19.14,30.33-2.12,3.78-4.48,7.54-5.46,11.82-.82,3.65-.46,7.76,1.8,10.74,8.86,11.66,27.05-2.35,35.55-7.67,6.97-4.36,13.66-9.21,20-14.46,1.91,1.51,3.87,2.96,5.85,4.36,10.64,7.54,25.33,16.69,38.94,15.42,4.87-.46,9.23-3.55,10.38-8.43,1.42-6.02-1.66-12.19-4.21-17.51ZM50.49,26.62c-3-1.64-5.88-3.46-8.69-5.4-2.63-1.82-5.09-4.08-7.9-5.6-.93-.5-.28-2.07.72-1.71,6.27,2.2,11.86,7.19,16.71,11.61.61.56-.17,1.48-.85,1.1ZM87.3,7.56c2.96-3.69,10.17-4.53,14.6-4.74,4.12-.2,8.05,1.48,9.22,5.7.46,1.65-1.77,2.45-2.66,1.12-1.99-2.97-6.48-2.25-9.54-2.04-3.14.22-7.85-.5-10.48,1.43-.93.69-1.74-.72-1.14-1.47Z"/>
  </g>
</svg>