<?xml version="1.0" encoding="UTF-8"?>
<svg id="Layer_2" data-name="Layer 2" xmlns="http://www.w3.org/2000/svg" viewBox="0 0 114.16 116">
  <defs>
    <style>
      .cls-1 {
        stroke-width: 0px;
      }
    </style>
  </defs>
  <g id="vectors">
    <path fill="#ff6d1a" class="cls-1" d="m108.13,8.7c-10.21-12.76-31.81-11.26-39.78,3.07-4.6,8.3-3.56,19.38,2.51,26.66,2.19,2.64,5.15,5.23,5.06,8.66-.11,4.48-5.99,7.04-10.1,5.26-4.1-1.78-6.36-6.3-7.25-10.68-.89-4.4-.73-8.96-1.73-13.32-1.51-6.55-5.66-12.41-11.25-16.14-5.58-3.73-12.52-5.32-19.2-4.55C15.34,8.94,5.35,16.93,1.67,27.42c-3.53,10.09-1.24,21.74,4.93,30.47s15.88,14.62,26.23,17.25c1.06.27,2.11.5,3.18.7-2.65,1.14-5.24,2.42-7.69,3.97-5.06,3.18-9.54,7.59-11.75,13.14-2.22,5.55-1.85,12.32,1.85,17.01,7.23,9.16,19.59,6.02,28.95,2.75,10.19-3.57,19.65-9.26,27.55-16.64,4.94-4.61,9.9-9.41,14.35-14.52,6.47-7.4,11.96-15.64,16.32-24.45,4.39-8.83,8.11-18.17,8.54-28.07.31-7.22-1.48-14.69-5.99-20.33Zm-43.19,49.89c-4.06-.95-8.07-2.18-10.49-5.84-1.87-2.81-3.1-8.3-.52-11.03.35-.37.97-.35,1.33,0,2.1,2.04,1.64,5.74,3.03,8.27,1.57,2.85,5.12,4.28,7.96,5.52,1.83.8.46,3.5-1.3,3.08Zm41.7-37.99c-4.43-7.96-11.78-13.28-21.25-12.28-1.08.11-1.23-1.57-.25-1.84,10.09-2.81,21.54,2.29,23.47,13.29.2,1.15-1.34,1.96-1.97.83Z"/>
  </g>
</svg>