<?xml version="1.0" encoding="UTF-8"?>
<svg id="Layer_2" data-name="Layer 2" xmlns="http://www.w3.org/2000/svg" viewBox="0 0 107.3 116">
  <defs>
    <style>
      .cls-1 {
        stroke-width: 0px;
      }
    </style>
  </defs>
  <g id="vectors">
    <path class="cls-1" d="m95.16,66.22c-6.01-1.92-12.66-.1-18.15,3.03-5.49,3.13-10.16,7.47-15.28,11.16-4.87,3.49-11.22,6.46-16.68,4.11,18.31-9.41,34.79-22.38,48.21-38,3.43-3.99,6.7-8.22,8.8-13.04s2.97-10.36,1.47-15.41c-1.82-6.18-6.98-10.95-12.84-13.65S78.32.87,71.89.42c-10.45-.74-20.97-.5-31.38.71-8.72,1.01-17.54,2.77-25.15,7.15C7.75,12.65,1.46,20.02.2,28.71c-1.25,8.69,3.59,18.39,11.94,21.06,6.02,1.93,12.67.1,18.16-3.02s10.15-7.48,15.28-11.16c4.87-3.49,11.22-6.46,16.68-4.11-18.31,9.41-34.8,22.38-48.21,38-3.43,3.99-6.7,8.22-8.8,13.03-2.1,4.83-2.97,10.36-1.48,15.41,1.83,6.18,6.99,10.97,12.85,13.66,5.85,2.69,12.37,3.54,18.79,4,10.45.74,20.98.5,31.39-.71,8.72-1.01,17.54-2.78,25.15-7.15,7.61-4.38,13.9-11.74,15.16-20.42,1.26-8.69-3.57-18.4-11.94-21.07ZM72.23,5.23c8.92.71,27.17,2.34,26.56,15.12-.06,1.22-1.61,1.33-2.03.27-3.44-8.83-15.6-13.2-24.54-13.52-1.21-.04-1.19-1.97,0-1.88Zm-25.48,85.38c-3.13.24-6.33-.11-8.29-2.89-1.45-2.06-1.04-6.52,1.97-7.03,1.54-.26,2.58,1.11,1.94,2.53-.25.56-.61.79-.55,1.44.05.52.36,1.06.72,1.43,1.11,1.16,3.05,1.61,4.54,2.04,1.43.42,1.05,2.38-.34,2.49Zm53.02-10.69c-2.51-2.69-5-5.58-8.7-6.53-3.87-.99-8.97-.36-12.66,1.08-1,.39-1.64-1.23-.72-1.71,3.93-2.09,9.88-3.73,14.33-2.8,4.55.94,7.33,4.84,9.45,8.66.58,1.05-.84,2.22-1.69,1.31Z"/>
  </g>
</svg>