<svg width="1136" height="359" viewBox="0 0 1136 359" fill="none" xmlns="http://www.w3.org/2000/svg">
<path d="M197.749 36.5949C181.239 15.0781 158.991 4.47812 136.864 1.16563C112.718 -2.43491 87.8124 2.20258 65.6851 16.5183C43.5578 30.8628 24.3289 55.1449 12.8355 85.9654C2.12166 114.741 -1.61619 148.413 0.62252 180.876C2.86123 213.367 10.8766 244.706 22.2901 272.876C31.4448 295.43 43.4179 316.861 59.8884 327.72C76.359 338.579 98.0665 336.188 110.02 316.544C118.835 302.084 120.893 281.143 118.954 262.132C117.715 249.977 114.877 238.34 110.739 227.625C138.163 224.255 164.988 210.285 187.075 186.608C202.027 170.621 215.319 149.248 219.297 123.065C224.074 91.6975 214.22 58.1405 197.729 36.5949H197.749ZM89.8512 94.7219C91.2904 92.9073 94.3486 94.6355 93.4492 97.7464C89.2116 112.523 92.7695 127.357 103.843 131.851C106.841 133.089 106.162 139.397 103.124 139.541C87.1927 140.233 77.3984 110.564 89.8512 94.7219ZM112.158 245.167C114.657 256.256 113.717 267.202 113.957 278.637C113.997 280.74 111.859 281.633 111.159 279.732C108.181 271.494 106.562 262.881 105.322 253.779C104.263 246.146 99.9654 238.715 100.025 231.168C100.025 229.67 100.885 228.489 101.904 228.46C107.801 228.287 110.619 238.254 112.178 245.138L112.158 245.167ZM139.303 108.98C131.607 114.482 123.092 117.506 114.497 117.823C109.2 118.025 99.6656 120.444 99.2058 109.038C99.1859 108.231 99.2058 107.425 99.3058 106.705C101.025 94.3187 120.474 91.2654 126.81 91.5823C132.247 91.8703 152.855 99.3018 139.283 108.951L139.303 108.98ZM204.685 87.6073C196.33 56.2394 171.444 33.7145 150.436 22.4808C148.198 21.2998 149.117 16.1727 151.436 17.2672C166.067 24.1226 179.68 27.4639 191.753 42.4134C201.287 54.2231 206.604 69.0285 207.284 87.1176C207.364 89.4219 205.205 89.4795 204.705 87.6073H204.685Z" fill="#99B1FF" fill-opacity="0.2"/>
<path d="M383.943 118.742C380.865 98.0891 376.008 77.8109 367.273 60.6147C358.538 43.4186 345.625 29.4773 329.914 24.2925C310.285 17.8404 287.978 25.7904 270.188 41.4887C252.399 57.1582 238.707 79.856 228.093 103.936C204.986 156.331 195.291 216.792 198.49 274.285C199.389 290.617 201.408 307.093 207.405 320.977C213.401 334.86 223.995 345.892 236.668 346.929C249.34 347.966 263.552 336.848 266.89 320.573C268.469 312.883 267.63 304.933 268.849 297.155C269.769 291.279 273.966 280.219 279.643 282.494C283.921 284.194 286.399 294.736 287.478 299.69C290.517 313.689 289.457 329.935 295.894 342.148C301.99 353.698 314.183 358.221 325.397 355.225C336.61 352.229 346.724 342.666 354.16 330.943C361.596 319.22 366.653 305.393 370.851 291.452C387.721 235.63 392.318 174.939 383.943 118.684V118.742ZM300.831 164.108C294.375 165.606 288.218 166.154 283.221 159.039C279.083 153.134 277.304 144.982 279.603 137.09C280.383 134.382 283.201 134.555 283.281 137.81C283.401 143.053 284.74 149.332 287.419 152.99C290.737 157.541 296.014 158.463 300.371 159.068C302.21 159.327 302.97 163.619 300.851 164.108H300.831ZM316.442 149.101C314.223 153.307 310.006 155.237 306.228 154.978C302.45 154.718 299.012 152.702 295.714 150.628C293.735 149.39 291.736 148.065 290.317 145.933C288.898 143.801 288.198 140.633 289.118 137.868C289.897 135.563 291.656 133.922 293.515 133.144C295.354 132.366 297.293 132.337 299.172 132.395C304.968 132.539 324.397 133.922 316.422 149.101H316.442ZM371.65 136.37C370.911 143.168 364.474 141.584 363.155 136.37C357.978 115.948 353.88 93.1636 344.586 75.6506C340.428 67.8158 335.371 60.9892 329.734 55.43C325.537 51.3109 320.679 48.2289 317.681 42.2088C317.101 41.0278 317.541 39.1843 318.361 38.5218C331.033 27.9507 349.443 49.5251 357.058 62.6886C369.311 83.831 374.608 109.179 371.65 136.399V136.37Z" fill="#99B1FF" fill-opacity="0.2"/>
<path d="M612.494 54.3999C609.916 41.5244 605.518 27.4967 596.723 23.2336C590.747 20.382 583.991 22.9168 578.794 28.0439C573.597 33.1711 569.739 40.6314 566.321 48.2357C554.548 74.4476 544.853 120.218 541.995 151.211C536.838 130.184 532.46 94.1786 524.685 74.9085C521.787 67.7362 518.648 60.6216 514.351 55.12C510.033 49.6184 504.317 45.9314 498.62 46.7667C492.184 47.6885 486.627 54.2558 483.249 62.2058C479.891 70.1846 480.051 79.3444 478.591 88.0433C475.993 103.569 476.173 141.734 474.734 158.239C470.856 140.467 463.32 102.906 457.124 86.7471C452.207 73.9004 446.29 61.3993 437.935 53.0173C429.58 44.6352 418.366 41.0059 409.011 46.8243C395.999 54.9183 390.822 77.1841 388.303 97.2318C380.108 162.358 392.921 235.464 412.449 294.455C418.726 313.408 426.401 332.188 438.175 344.632C445.83 352.697 454.945 356.758 464.44 356.153C473.994 355.52 480.69 352.467 487.866 343.134C494.582 334.377 499.719 323.288 503.477 311.478C506.875 300.734 509.214 289.385 511.113 277.921C512.072 272.16 512.872 266.371 513.691 260.581C514.231 256.836 516.25 249.549 515.51 245.804C519.208 264.585 522.386 283.279 527.064 301.685C530.042 313.408 534.099 324.93 540.556 333.254C554.008 350.565 570.918 343.278 582.692 326.485C599.022 303.125 605.378 269.28 610.156 236.846C618.951 176.703 624.348 113.477 612.534 54.4287L612.494 54.3999ZM451.267 102.042C442.152 80.9286 431.299 68.0531 413.429 68.4276C411.51 68.4564 410.95 64.7982 412.489 63.3868C431.379 46.0754 450.947 74.0732 455.385 99.5362C456.004 103.137 452.626 105.153 451.267 102.042ZM521.207 117.337C517.129 98.0672 511.652 67.189 494.382 67.5058C492.483 67.5346 491.884 63.8477 493.443 62.4651C500.959 55.8113 509.354 62.7243 514.031 71.8265C520.507 84.4427 524.125 101.12 524.165 116.732C524.165 119.209 521.707 119.613 521.227 117.308L521.207 117.337ZM609.476 90.1748C609.356 94.7835 605.179 95.2731 604.139 91.2117C601.601 81.3895 601.061 70.6167 598.083 61.0537C594.825 50.5977 589.987 45.9026 583.291 40.6314C582.032 39.6521 582.112 36.9733 583.291 35.9651C590.527 29.7434 599.482 37.1173 603.759 46.1042C609.676 58.5189 609.856 75.7438 609.476 90.1748Z" fill="#99B1FF" fill-opacity="0.2"/>
<path d="M1036.59 125.794C1051.62 133.859 1067.91 138.065 1083.8 134.925C1099.69 131.785 1115.18 120.84 1125.08 102.635C1138.89 77.2299 1141.23 25.8719 1118.22 9.07901C1098.87 -5.03509 1076.76 -0.772056 1056.85 8.84857C1000.97 35.8958 953.834 98.4299 930.507 176.489C924.911 195.27 920.593 215.145 920.053 235.596C919.514 256.018 923.032 277.16 931.767 293.262C940.822 309.94 954.634 319.964 968.666 326.128C1014.38 346.233 1064.67 326.761 1102.65 287.069C1109.84 279.551 1116.84 270.91 1120.78 259.388C1128.31 237.209 1119.88 217.881 1105.39 208.405C1097.25 203.076 1088.22 201.319 1079.26 200.829C1055.82 199.562 1032.33 207.425 1011.38 222.576C1011 212.351 1011.02 202.125 1011.6 191.929C1022.25 194.78 1033.15 195.961 1043.96 195.5C1051.7 195.183 1059.43 194.002 1067.07 191.957C1073.69 190.2 1080.64 188.933 1086.24 182.884C1090.16 178.65 1092.91 171.362 1091.71 164.478C1090.94 160.013 1088.56 156.355 1085.8 153.965C1083.04 151.603 1079.88 150.364 1076.76 149.327C1057.83 143.048 1037.57 142.875 1018.28 147.628C1020.76 138.093 1023.95 128.991 1027.83 120.58C1030.71 122.424 1033.63 124.181 1036.61 125.765L1036.59 125.794ZM1075.64 19.823C1099.61 -0.0807519 1137.85 31.3447 1120.64 72.1892C1119.64 74.5799 1116.56 74.4647 1116.18 71.3539C1114.6 58.1903 1114.48 42.492 1105.57 34.9741C1096.51 27.3409 1085.8 30.9703 1076.26 26.4768C1074.24 25.5262 1073.71 21.436 1075.66 19.823H1075.64ZM1002.17 216.297C1001.27 210.651 1001.01 205.006 1001.11 199.216C1001.17 195.731 1004.96 195.76 1004.86 199.216C1004.68 204.718 1004.92 210.19 1005.3 215.663C1005.48 218.284 1002.57 218.745 1002.17 216.268V216.297ZM1052.92 223.613C1069.33 214.943 1112.8 202.068 1110.48 246.311C1110.3 249.854 1106.45 252.418 1105.25 248.356C1097.49 221.914 1070.19 225.082 1053.92 228.827C1051.54 229.374 1050.64 224.823 1052.92 223.613ZM1059.25 152.063C1067.89 150.71 1078.64 151.545 1084.02 163.009C1084.64 164.334 1083.46 165.63 1082.6 165.054C1075 159.697 1067.55 158.919 1059.25 157.479C1056.85 157.075 1056.83 152.467 1059.25 152.063ZM1020.66 125.477C1017.44 133.312 1016.26 141.867 1014.4 150.45C1013.98 152.409 1011.62 152.121 1011.82 149.961C1012.66 140.542 1014.38 131.238 1017.42 122.769C1018.52 119.687 1021.89 122.481 1020.66 125.506V125.477Z" fill="#99B1FF" fill-opacity="0.2"/>
<path d="M908.48 114.415C902.723 89.8454 895.687 65.9666 885.793 44.1906C882.734 37.4504 879.236 30.6238 874.159 27.2249C867.443 22.6738 859.208 25.295 853.111 31.4015C847.015 37.4792 842.717 46.6102 839.04 55.8563C833.942 68.6166 829.725 82.097 826.427 95.9807C825.008 87.2818 823.229 78.7269 821.11 70.3449C817.752 57.0373 813.254 43.6721 805.499 34.9444C792.446 20.283 772.918 22.8178 758.906 35.5205C744.874 48.1944 735.419 68.9623 727.764 90.1334C715.291 124.497 706.376 161.741 703.038 200.252C699.7 238.763 702.078 278.513 711.433 314.893C714.311 326.04 717.909 337.044 723.626 345.627C729.363 354.182 737.498 360.029 745.693 358.849C753.569 357.754 760.525 350.294 765.142 341.019C769.739 331.715 772.298 320.712 774.417 309.708C778.854 286.838 781.653 263.362 782.812 239.714C786.75 252.273 791.347 264.342 796.544 275.892C800.562 284.822 806.019 294.269 813.434 294.442C817.772 294.529 821.889 291.158 824.868 286.636C827.866 282.056 829.825 276.353 831.644 270.621C835.102 259.618 837.98 248.326 840.299 236.747C844.217 260.079 851.332 282.316 861.267 301.643C866.943 312.762 874.419 323.592 883.914 325.205C893.268 326.789 902.423 318.695 907.86 307.663C913.297 296.631 915.695 283.093 917.315 269.757C923.651 217.967 920.113 164.132 908.48 114.415ZM808.837 82.0106C802.66 67.9541 797.324 52.6014 787.189 43.5857C785.75 42.3183 786.15 39.4379 787.629 38.6602C802.92 30.595 810.536 64.5552 812.255 79.9367C812.575 82.8747 810.016 84.7182 808.837 82.0106ZM885.353 80.0519C879.936 66.7731 873.54 53.2063 865.964 42.2895C865.205 41.1949 865.304 39.5819 865.964 38.4585C870.781 30.3645 878.137 42.7792 880.895 47.8775C885.553 56.49 888.191 67.8389 889.171 78.5541C889.451 81.6073 886.292 82.3851 885.333 80.0519H885.353Z" fill="#99B1FF" fill-opacity="0.2"/>
<path d="M683.359 296.081C671.766 282.428 648.799 279.778 636.366 291.934C629.11 299.019 624.333 312.039 625.972 324.454C627.571 336.58 634.847 345.999 643.022 349.773C651.178 353.546 660.053 352.451 668.408 349.773C677.043 347.007 686.278 341.506 689.935 329.926C693.553 318.462 690.115 304.06 683.359 296.11V296.081ZM680.021 307.517C674.804 301.842 669.667 296.456 663.191 294.324C660.812 293.547 661.852 288.535 664.19 289.111C671.266 290.868 678.222 295.592 681.94 304.751C682.6 306.393 681.18 308.784 680.021 307.517Z" fill="#99B1FF" fill-opacity="0.2"/>
</svg>
