<svg width="372" height="118" viewBox="0 0 372 118" fill="none" xmlns="http://www.w3.org/2000/svg">
<path d="M67.058 11.995C61.4592 4.94227 53.9151 1.46783 46.4115 0.382068C38.2234 -0.798108 29.7778 0.721958 22.2743 5.41434C14.7707 10.1162 8.25009 18.0753 4.3526 28.1776C0.719468 37.6095 -0.548062 48.6465 0.2111 59.287C0.970263 69.9369 3.68833 80.2091 7.55871 89.4428C10.6631 96.8355 14.7233 103.86 20.3086 107.419C25.8938 110.979 33.255 110.195 37.3084 103.756C40.2976 99.0164 40.9957 92.1525 40.3382 85.9212C39.918 81.9369 38.9555 78.1226 37.5524 74.6104C46.8521 73.5057 55.9485 68.9267 63.4385 61.1658C68.5086 55.9258 73.0161 48.9203 74.365 40.3381C75.985 30.0564 72.6433 19.0572 67.0513 11.995H67.058ZM30.4691 31.0478C30.9572 30.4529 31.9942 31.0194 31.6892 32.0391C30.2522 36.8825 31.4588 41.7449 35.2139 43.2177C36.2306 43.6237 36.0002 45.6914 34.9699 45.7386C29.5676 45.9652 26.2463 36.2405 30.4691 31.0478ZM38.0336 80.3602C38.8809 83.9951 38.5623 87.5829 38.6437 91.3311C38.6572 92.0203 37.932 92.313 37.6947 91.6899C36.6848 88.9896 36.1357 86.1667 35.7155 83.1832C35.3562 80.6812 33.8989 78.2453 33.9193 75.7717C33.9193 75.2807 34.2107 74.8936 34.5564 74.8842C36.556 74.8275 37.5117 78.0943 38.0404 80.3508L38.0336 80.3602ZM47.2385 35.7212C44.6289 37.5246 41.7413 38.5159 38.8267 38.6198C37.0305 38.6858 33.7973 39.4789 33.6414 35.7401C33.6346 35.4758 33.6414 35.2114 33.6752 34.9754C34.2582 30.9156 40.8534 29.9148 43.0021 30.0186C44.8458 30.1131 51.8341 32.5489 47.2317 35.7118L47.2385 35.7212ZM69.4101 28.7157C66.5768 18.434 58.1379 11.0509 51.014 7.36871C50.2548 6.98161 50.5666 5.30104 51.3529 5.65981C56.3145 7.90687 60.9305 9.00207 65.0246 13.9022C68.2578 17.7731 70.0608 22.626 70.2913 28.5552C70.3184 29.3105 69.5863 29.3294 69.4169 28.7157H69.4101Z" fill="#99B1FF"/>
<path d="M124.772 39.2487C123.728 32.4792 122.081 25.8325 119.119 20.1959C116.157 14.5594 111.778 9.98978 106.45 8.29032C99.7941 6.17545 92.2296 8.78128 86.197 13.9268C80.1643 19.063 75.5213 26.5028 71.922 34.3958C64.0864 51.5697 60.7989 71.3872 61.8834 90.2323C62.1885 95.5855 62.8731 100.986 64.9065 105.537C66.94 110.088 70.5325 113.704 74.8299 114.043C79.1273 114.383 83.9466 110.739 85.0786 105.405C85.614 102.884 85.3294 100.278 85.7428 97.7287C86.0546 95.8027 87.4781 92.1772 89.4031 92.9231C90.8536 93.4801 91.6941 96.9357 92.0601 98.5596C93.0904 103.148 92.7312 108.473 94.9138 112.476C96.9811 116.262 101.116 117.745 104.918 116.763C108.721 115.781 112.151 112.646 114.672 108.804C117.194 104.961 118.909 100.429 120.332 95.8593C126.053 77.5619 127.612 57.6689 124.772 39.2298V39.2487ZM96.588 54.1189C94.3986 54.6099 92.3109 54.7892 90.6164 52.4572C89.2133 50.5217 88.61 47.8498 89.3895 45.2629C89.6539 44.3754 90.6096 44.432 90.6367 45.4989C90.6774 47.2172 91.1315 49.2755 92.0398 50.4745C93.165 51.9663 94.9545 52.2684 96.4321 52.4667C97.0557 52.5516 97.3133 53.9584 96.5948 54.1189H96.588ZM101.882 49.1999C101.129 50.5784 99.6992 51.2109 98.4181 51.126C97.137 51.041 95.9712 50.3801 94.8528 49.7003C94.1817 49.2943 93.5039 48.86 93.0227 48.1614C92.5414 47.4627 92.3042 46.4242 92.616 45.5178C92.8803 44.7625 93.4768 44.2243 94.1072 43.9694C94.7308 43.7145 95.3883 43.705 96.0254 43.7239C97.9911 43.7711 104.58 44.2243 101.875 49.1999H101.882ZM120.603 45.0268C120.352 47.255 118.17 46.7357 117.723 45.0268C115.967 38.3329 114.577 30.8647 111.426 25.1243C110.016 22.5563 108.301 20.3187 106.389 18.4965C104.966 17.1464 103.319 16.1361 102.302 14.1629C102.105 13.7758 102.255 13.1715 102.533 12.9544C106.83 9.48938 113.073 16.561 115.655 20.8757C119.81 27.8057 121.606 36.1141 120.603 45.0363V45.0268Z" fill="#99B1FF"/>
<path d="M202.275 18.1588C201.401 13.9385 199.91 9.34057 196.927 7.94324C194.9 7.00854 192.609 7.83938 190.847 9.51995C189.085 11.2005 187.777 13.6458 186.617 16.1384C182.625 24.7301 179.338 39.7324 178.368 49.8914C176.62 42.9992 175.135 31.1974 172.498 24.8811C171.516 22.5302 170.451 20.1982 168.994 18.3949C167.53 16.5916 165.591 15.3831 163.66 15.6569C161.477 15.959 159.593 18.1116 158.447 20.7175C157.308 23.3327 157.363 26.3351 156.868 29.1864C155.987 34.2753 156.048 46.7852 155.56 52.1951C154.245 46.3698 151.689 34.0582 149.588 28.7615C147.92 24.5507 145.914 20.4531 143.081 17.7057C140.248 14.9582 136.445 13.7686 133.273 15.6757C128.86 18.3288 127.105 25.627 126.25 32.1982C123.471 53.5452 127.816 77.5075 134.439 96.8435C136.567 103.056 139.17 109.212 143.162 113.29C145.758 115.934 148.849 117.265 152.069 117.067C155.309 116.859 157.579 115.858 160.013 112.799C162.29 109.929 164.032 106.294 165.307 102.423C166.459 98.9017 167.252 95.1818 167.896 91.4241C168.221 89.5359 168.492 87.6381 168.77 85.7404C168.953 84.513 169.638 82.1244 169.387 80.897C170.641 87.0528 171.719 93.1802 173.305 99.2133C174.315 103.056 175.691 106.833 177.88 109.561C182.442 115.235 188.176 112.847 192.169 107.342C197.707 99.6854 199.862 88.5917 201.482 77.9607C204.465 58.247 206.295 37.5232 202.289 18.1683L202.275 18.1588ZM147.602 33.7749C144.511 26.8544 140.83 22.6341 134.771 22.7568C134.12 22.7662 133.93 21.5672 134.452 21.1046C140.858 15.4303 147.493 24.6073 148.998 32.9535C149.208 34.1337 148.063 34.7946 147.602 33.7749ZM171.319 38.7883C169.936 32.472 168.079 22.3508 162.223 22.4547C161.579 22.4641 161.375 21.2556 161.904 20.8024C164.453 18.6215 167.299 20.8874 168.886 23.8709C171.082 28.0062 172.309 33.4728 172.322 38.59C172.322 39.402 171.488 39.5342 171.326 38.7789L171.319 38.7883ZM201.252 29.8851C201.211 31.3957 199.794 31.5562 199.442 30.225C198.581 27.0054 198.398 23.4743 197.388 20.3398C196.283 16.9126 194.643 15.3736 192.372 13.6458C191.945 13.3248 191.972 12.4468 192.372 12.1163C194.826 10.077 197.863 12.494 199.313 15.4397C201.319 19.509 201.38 25.1549 201.252 29.8851Z" fill="#99B1FF"/>
<path d="M338.455 43.1208C343.553 45.7644 349.077 47.1428 354.465 46.1137C359.854 45.0846 365.107 41.4969 368.463 35.5299C373.146 27.2026 373.939 10.3686 366.138 4.86423C359.576 0.237946 352.08 1.63527 345.328 4.7887C326.376 13.6542 310.393 34.1515 302.483 59.7377C300.585 65.8935 299.121 72.408 298.938 79.1114C298.755 85.8054 299.948 92.7354 302.91 98.0131C305.981 103.48 310.665 106.765 315.423 108.786C330.925 115.376 347.979 108.993 360.857 95.9832C363.298 93.519 365.67 90.6866 367.005 86.91C369.561 79.6402 366.7 73.305 361.786 70.1987C359.027 68.4521 355.963 67.8762 352.927 67.7157C344.976 67.3002 337.012 69.8777 329.908 74.8439C329.779 71.4922 329.786 68.1405 329.983 64.7983C333.595 65.733 337.289 66.1201 340.956 65.969C343.58 65.8651 346.203 65.478 348.792 64.8077C351.036 64.2318 353.395 63.8164 355.292 61.8337C356.621 60.4458 357.556 58.0571 357.15 55.8006C356.885 54.3372 356.079 53.1381 355.143 52.3545C354.208 51.5803 353.137 51.1743 352.08 50.8344C345.661 48.7762 338.787 48.7196 332.246 50.2774C333.087 47.1523 334.171 44.1688 335.486 41.4119C336.462 42.0162 337.452 42.5921 338.462 43.1114L338.455 43.1208ZM351.7 8.38588C359.827 1.86187 372.794 12.1624 366.958 25.5503C366.619 26.334 365.575 26.2962 365.446 25.2765C364.911 20.9618 364.87 15.8163 361.847 13.3521C358.776 10.8501 355.143 12.0397 351.91 10.5668C351.225 10.2553 351.042 8.9146 351.707 8.38588H351.7ZM326.783 72.7857C326.478 70.9352 326.39 69.0847 326.424 67.1869C326.444 66.0445 327.732 66.054 327.698 67.1869C327.637 68.9903 327.719 70.7841 327.847 72.578C327.908 73.4372 326.919 73.5882 326.783 72.7763V72.7857ZM343.993 75.1838C349.558 72.3419 364.301 68.1216 363.514 82.6236C363.453 83.7849 362.145 84.6252 361.739 83.294C359.109 74.6268 349.85 75.6653 344.332 76.8927C343.525 77.0721 343.22 75.5803 343.993 75.1838ZM346.142 51.7314C349.07 51.2876 352.717 51.5614 354.54 55.3191C354.75 55.7534 354.35 56.1783 354.059 55.9894C351.483 54.2333 348.955 53.9784 346.142 53.5063C345.328 53.3742 345.322 51.8635 346.142 51.7314ZM333.053 43.0169C331.962 45.585 331.562 48.3891 330.931 51.2026C330.789 51.8447 329.989 51.7502 330.057 51.0421C330.342 47.9548 330.925 44.9052 331.955 42.1295C332.328 41.1192 333.473 42.035 333.053 43.0264V43.0169Z" fill="#99B1FF"/>
<path d="M302.646 37.8306C300.694 29.7771 298.308 21.9502 294.952 14.8125C293.915 12.6032 292.729 10.3656 291.007 9.2515C288.73 7.75975 285.937 8.61892 283.87 10.6205C281.803 12.6126 280.345 15.6056 279.098 18.6363C277.37 22.8188 275.939 27.2374 274.821 31.7881C274.34 28.9368 273.737 26.1327 273.018 23.3853C271.879 19.0233 270.354 14.6425 267.724 11.7818C263.298 6.97612 256.676 7.80696 251.924 11.9706C247.166 16.1248 243.96 22.9321 241.364 29.8715C237.134 41.1351 234.111 53.3429 232.979 65.966C231.847 78.5892 232.654 91.6183 235.826 103.543C236.802 107.197 238.022 110.803 239.961 113.617C241.906 116.421 244.665 118.337 247.444 117.95C250.114 117.592 252.473 115.146 254.039 112.106C255.598 109.057 256.466 105.45 257.184 101.843C258.689 94.3469 259.638 86.6521 260.031 78.9007C261.366 83.0172 262.925 86.9731 264.688 90.7591C266.05 93.686 267.9 96.7827 270.415 96.8394C271.886 96.8677 273.282 95.7631 274.292 94.2808C275.309 92.7796 275.973 90.9102 276.59 89.0313C277.763 85.4247 278.739 81.7237 279.525 77.9283C280.854 85.5758 283.267 92.8646 286.635 99.1997C288.561 102.844 291.096 106.394 294.315 106.923C297.487 107.442 300.592 104.789 302.436 101.173C304.279 97.5569 305.093 93.1195 305.642 88.7481C307.79 71.7725 306.591 54.1265 302.646 37.8306ZM268.856 27.209C266.762 22.6016 264.952 17.5694 261.515 14.6142C261.027 14.1988 261.163 13.2547 261.664 12.9997C266.85 10.3561 269.432 21.4876 270.015 26.5293C270.124 27.4923 269.256 28.0965 268.856 27.209ZM294.803 26.567C292.966 22.2145 290.797 17.7676 288.228 14.1894C287.971 13.8306 288.005 13.3019 288.228 12.9336C289.862 10.2806 292.356 14.3499 293.292 16.021C294.871 18.844 295.766 22.5639 296.098 26.0761C296.193 27.0769 295.122 27.3318 294.796 26.567H294.803Z" fill="#99B1FF"/>
<path d="M226.306 97.3767C222.374 92.9015 214.586 92.0329 210.37 96.0171C207.91 98.3397 206.29 102.607 206.846 106.676C207.388 110.651 209.855 113.739 212.627 114.975C215.393 116.212 218.402 115.854 221.236 114.975C224.164 114.069 227.295 112.266 228.536 108.47C229.763 104.713 228.597 99.992 226.306 97.3861V97.3767ZM225.174 101.125C223.405 99.265 221.663 97.4994 219.467 96.8008C218.66 96.5459 219.012 94.9031 219.806 95.0919C222.205 95.6678 224.564 97.2162 225.825 100.219C226.048 100.757 225.567 101.54 225.174 101.125Z" fill="#99B1FF"/>
</svg>
