<svg width="346" height="296" viewBox="0 0 346 296" fill="none" xmlns="http://www.w3.org/2000/svg">
<g clip-path="url(#clip0_42_206)">
<path d="M107.794 91.0794C100.678 77.7251 91.621 68.6124 82.4892 61.0369C72.6747 52.8873 62.5614 46.238 52.3202 41.1444C44.1058 37.0696 34.3766 32.9393 26.0876 32.4392C21.0843 32.1428 15.9103 34.4395 12.6353 41.0333C9.8936 46.5528 8.80547 54.295 7.88802 61.8148C2.08464 109.231 -0.304987 158.684 0.761811 208.601C0.985838 219.01 1.63658 230.605 5.80777 238.495C10.7577 247.848 18.4707 248.015 25.0315 246.7C54.6564 240.717 82.3612 218.843 104.007 184.355C111.271 172.779 118.184 158.555 119.048 140.162C119.87 122.752 114.899 104.471 107.783 91.0979L107.794 91.0794ZM48.8637 168.871C42.3669 173.187 34.7073 172.187 31.6563 159.592C28.2532 145.589 33.5658 132.42 37.0756 120.585C37.6624 118.603 39.4226 120.362 38.8038 122.344C36.7236 128.92 35.2941 139.384 35.0914 146.978C34.75 159.758 41.1508 169.093 48.5224 166.704C49.3545 166.426 49.6425 168.371 48.8637 168.89V168.871ZM52.5335 145.311C51.8401 147.719 51.072 150.09 49.9305 151.794C48.7997 153.498 47.2315 154.461 45.6953 153.702C43.7004 152.72 42.2176 148.997 41.7909 145.293C41.3641 141.588 41.8015 137.903 42.3989 134.495C43.7324 126.919 48.8637 105.045 55.2325 109.323C61.6546 113.639 54.1977 139.551 52.5229 145.293L52.5335 145.311ZM105.884 161.907C105.084 163.222 104.092 161.574 104.465 160.018C107.57 147.386 107.858 133.143 104.956 120.251C103.484 113.732 100.849 108.657 98.0431 103.748C95.1094 98.6363 91.1516 90.5237 87.0978 88.8568C86.6284 88.6715 86.607 87.3565 87.0978 87.1898C96.6029 83.8929 107.1 101.192 110.823 115.176C114.984 130.846 113.16 149.942 105.884 161.925V161.907Z" fill="#FF6D1A"/>
</g>
<g clip-path="url(#clip1_42_206)">
<path d="M203.633 106.796C202.558 93.8862 200.767 78.3806 195.13 67.2242C185.648 48.4525 163.543 43.3813 147.984 51.8217C137.772 57.357 129.475 67.3445 122.598 78.2947C105.868 104.991 96.7718 138.735 96.3997 172.566C96.2067 190.031 98.8803 210.625 106.763 225.495C112.786 236.84 121.813 242.117 131.832 246.14C142.333 250.352 156.39 241.997 164.742 234.571C186.324 215.421 199.003 183.396 202.737 151.267C204.433 136.57 204.846 121.545 203.606 106.779L203.633 106.796ZM139.425 191.699C133.196 191.424 128.524 187.349 127.725 179.201C127.353 175.385 128.483 160.997 133.651 163.025C134.175 163.232 134.629 163.85 134.602 164.572C134.45 168.612 133.899 172.944 134.092 176.984C134.34 182.227 136.559 186.026 140.032 188.828C141.01 189.619 140.679 191.733 139.412 191.681L139.425 191.699ZM166.299 123.264C163.626 142.002 156.983 159.862 147.129 174.422C145.696 176.52 143.67 178.772 141.575 177.912C140.211 177.362 139.356 175.591 139.15 173.821C138.957 172.05 139.301 170.262 139.673 168.561C141.975 157.559 145.09 146.832 148.962 136.535C152.325 127.579 156.211 118.726 160.8 110.647C162.716 107.277 165.872 103.444 167.347 109.547C168.27 113.38 166.864 119.396 166.313 123.247L166.299 123.264ZM192.58 84.466C186.82 74.0143 181.018 61.9296 170.02 59.6433C168.546 59.3339 168.945 56.4631 170.365 56.4803C176.608 56.5491 181.486 57.5805 186.599 62.4109C192.002 67.4992 194.482 74.6847 196.012 82.6782C196.522 85.3427 193.766 86.6147 192.594 84.4832L192.58 84.466Z" fill="#FF6D1A"/>
</g>
<g clip-path="url(#clip2_42_206)">
<path d="M302.097 61.8042C297.6 52.023 291.017 43.8748 284.162 39.0615C273.218 31.3947 260.944 31.0853 249.309 34.5061C229.016 40.4711 209.351 58.4693 197.643 87.8474C185.934 117.225 183.492 158.499 194.236 188.96C201.741 210.242 214.917 224.647 229.005 229.632C243.093 234.635 257.957 230.715 271.206 221.037C279.529 214.969 287.558 206.236 292.464 193.086C297.369 179.935 298.48 161.697 293.365 148.804C288.082 135.516 278.072 131.132 268.889 128.571C263.439 127.041 257.81 125.803 252.433 127.969C247.055 130.135 241.898 136.393 240.273 145.555C238.659 154.717 241.793 166.321 247.244 167.885C250.43 168.813 253.586 166.424 256.741 165.169C259.896 163.931 263.795 164.327 265.577 169.037C266.835 172.372 266.531 176.996 265.284 180.348C264.026 183.7 261.982 185.918 259.854 187.43C252.632 192.553 243.785 189.889 237.978 180.846C232.171 171.804 229.686 156.832 231.846 143.819C234.005 130.806 240.682 120.388 248.376 118.085C258.606 115.008 268.69 125.27 279.078 125.099C288.501 124.944 298.47 114.784 303.082 101.41C305.398 94.6891 306.572 86.9191 306.468 79.2007C306.384 72.8231 304.434 66.8237 302.118 61.787L302.097 61.8042ZM273.931 140.054C279.026 138.748 283.407 142.323 287.285 147.549C291.436 153.153 293.302 159.84 291.908 168.555C291.667 170.017 290.482 169.845 290.199 168.555C287.747 157.399 280.671 147.102 273.931 143.166C273.114 142.684 272.883 140.329 273.931 140.054ZM229.582 180.657C221.416 167.627 219.33 143.372 226.573 128.571C227.181 127.333 228.565 128.674 228.219 130.135C224.823 144.438 226.458 165.822 231.049 178.801C231.584 180.331 230.336 181.861 229.582 180.657ZM299.958 90.7353C299.749 92.3168 298.25 92.6606 297.799 91.1995C294.833 81.4354 293.25 70.8634 288.04 63.4716C282.841 56.097 276.101 51.8339 270.231 46.1095C269.445 45.336 269.717 42.9637 270.724 43.1012C286.195 45.2156 303.92 61.1853 299.948 90.7181L299.958 90.7353Z" fill="#FF6D1A"/>
</g>
<g clip-path="url(#clip3_42_206)">
<path d="M323.14 162.657C324.904 162.059 326.755 163.169 328.199 165.008C329.644 166.847 330.743 169.365 331.759 171.911C332.78 174.457 333.745 177.089 335.001 179.303C336.256 181.517 337.851 183.306 339.635 183.688C344.3 184.691 346.819 176.844 345.761 169.819C344.942 164.395 342.646 159.852 339.87 156.902C337.095 153.952 333.867 152.473 330.634 151.709C323.077 149.92 315.227 151.925 308.3 157.414C305.97 159.26 303.682 161.583 302.132 165.095C300.583 168.607 299.911 173.541 301.007 177.522C302.359 182.441 305.873 184.446 309.038 184.525C312.204 184.604 315.365 183.284 318.518 183.818C320.273 184.114 322.313 185.578 322.553 188.585C322.687 190.266 322.166 191.961 321.394 193.014C320.621 194.067 319.635 194.557 318.661 194.766C315.571 195.43 312.519 193.533 309.492 192.293C306.465 191.052 303.014 190.59 300.474 193.692C298.681 195.877 297.653 199.541 297.271 203.255C296.167 213.966 300.189 224.914 305.751 230.114C311.314 235.314 318.044 235.595 324.266 233.576C328.812 232.097 333.405 229.277 336.613 223.544C339.896 217.68 341.365 208.982 340.429 201.005C339.493 193.028 336.168 185.996 331.818 182.78C330.068 181.481 328.191 180.782 326.377 179.772C324.564 178.762 322.758 177.377 321.449 174.997C320.546 173.36 319.576 170.006 319.832 167.713C320.118 165.124 321.721 163.126 323.145 162.65L323.14 162.657ZM332.209 154.154C336.554 154.688 340.462 158.012 342.36 165.052C342.57 165.838 342.037 166.624 341.651 165.996C338.93 161.59 335.731 157.371 332.104 155.488C331.692 155.272 331.755 154.103 332.209 154.161V154.154ZM308.337 195.632C305.667 195.271 302.657 195.682 300.6 198.971C300.268 199.498 299.769 198.827 299.983 198.149C301.725 192.646 305.256 191.636 308.493 193.641C309.08 194.009 309.038 195.726 308.337 195.632ZM321.957 178.625C322.381 179.397 321.843 180.522 321.314 180.06C318.783 177.854 317.67 173.634 317.901 168.86C317.935 168.139 318.573 167.893 318.673 168.679C319.135 172.336 320.47 175.921 321.957 178.625Z" fill="#FF6D1A"/>
</g>
<path d="M310.941 131.614C310.941 129.869 311.306 128.281 312.035 126.849C312.79 125.416 313.754 124.088 314.926 122.864C315.446 122.343 316.006 121.862 316.605 121.419C317.23 120.95 317.764 120.416 318.207 119.817H318.48C318.845 119.817 319.183 119.778 319.496 119.7C319.808 119.622 320.134 119.583 320.472 119.583C320.811 119.583 321.097 119.661 321.332 119.817C321.618 120.234 321.892 120.677 322.152 121.145C322.412 121.614 322.543 122.109 322.543 122.63C322.543 123.385 322.373 123.997 322.035 124.466C321.696 124.908 321.319 125.325 320.902 125.716C320.485 126.106 320.108 126.523 319.769 126.966C319.431 127.408 319.261 127.968 319.261 128.645C319.261 129.114 319.327 129.492 319.457 129.778C319.587 130.039 319.743 130.273 319.926 130.481C320.108 130.69 320.303 130.898 320.511 131.106C320.72 131.315 320.915 131.588 321.097 131.927V132.708C321.149 133.515 321.045 134.218 320.785 134.817C320.551 135.416 320.303 136.08 320.043 136.81C319.261 137.2 318.545 137.526 317.894 137.786C317.269 138.02 316.501 138.138 315.59 138.138C315.329 138.138 315.03 138.073 314.691 137.942C314.379 137.786 314.066 137.604 313.754 137.395C313.441 137.187 313.155 136.966 312.894 136.731C312.634 136.497 312.439 136.276 312.308 136.067C312.178 135.859 312.087 135.56 312.035 135.169C311.983 134.778 311.918 134.466 311.84 134.231C311.683 133.919 311.553 133.685 311.449 133.528C311.345 133.372 311.254 133.229 311.176 133.099C311.097 132.942 311.032 132.76 310.98 132.552C310.954 132.343 310.941 132.031 310.941 131.614Z" fill="#FF6D1A"/>
<defs>
<clipPath id="clip0_42_206">
<rect width="118.628" height="214.854" fill="white" transform="translate(0.516296 32.4208)"/>
</clipPath>
<clipPath id="clip1_42_206">
<rect width="107.925" height="199.407" fill="white" transform="translate(96.3999 47.8678)"/>
</clipPath>
<clipPath id="clip2_42_206">
<rect width="157.427" height="199.407" fill="white" transform="translate(149.024 32.4208)"/>
</clipPath>
<clipPath id="clip3_42_206">
<rect width="48.9139" height="83.663" fill="white" transform="translate(297.086 151.082)"/>
</clipPath>
</defs>
</svg>
