<svg width="1113" height="323" viewBox="0 0 1113 323" fill="none" xmlns="http://www.w3.org/2000/svg">
<g clip-path="url(#clip0_44_450)">
<path d="M152.765 111.591C150.448 98.6414 139.366 90.9953 129.006 91.0309C109.977 91.0925 95.0069 109.819 75.7703 110.172C71.1832 110.262 66.0353 109.219 63.3234 104.517C61.2312 100.882 61.1376 95.7318 62.5406 91.5213C63.9432 87.3272 66.6297 83.9858 69.6389 81.5402C77.2356 75.3373 86.6594 74.2928 95.6196 74.6848C104.565 75.0765 113.553 76.7191 122.444 75.1851C131.335 73.651 140.461 68.2408 144.826 58.1131C150.797 44.2567 145.471 25.8412 135.586 16.6772C125.686 7.51283 112.613 5.93841 100.399 7.42707C61.3154 12.1481 25.1004 47.1513 10.6238 94.2129C6.15571 108.713 3.63673 124.411 4.79185 139.85C5.94697 155.289 11.0486 170.459 20.0195 180.736C32.7577 195.313 51.415 198.269 68.4703 195.628C96.9005 191.231 123.986 172.741 142.868 144.862C149.192 135.537 154.891 123.533 152.75 111.591L152.765 111.591ZM98.3326 14.8622C110.791 12.1128 124.433 15.0987 132.854 26.8269C140.415 37.3507 142.247 51.9996 134.226 62.8471C132.598 65.0621 129.347 62.5513 130.139 59.9712C137.901 34.5941 118.253 19.5256 98.6193 17.8953C97.1606 17.7787 96.7914 15.2042 98.3326 14.8622ZM80.3929 122.568C71.2786 126.284 58.5472 127.234 52.6497 116.651C45.9554 104.618 51.521 94.0085 55.4495 82.3408C56.1582 80.2357 58.8186 81.6471 57.8704 83.5821C54.1064 91.3062 52.6274 103.607 56.8858 111.389C61.3784 119.57 72.6577 120.658 80.1959 120.589C81.242 120.581 81.261 122.21 80.3785 122.567L80.3929 122.568ZM143.833 127.039C142.608 128.54 139.972 127.326 140.208 125.21C140.865 119.222 140.531 111.5 136.48 107.079C130.459 100.49 118.354 103.478 111.633 107.168C109.862 108.146 108.845 105.079 110.668 104.333C117.077 101.688 122.117 97.6122 129.181 97.5813C133.509 97.568 137.791 98.8532 141.245 101.862C148.236 107.981 150.029 119.471 143.847 127.039L143.833 127.039Z" fill="#FF6D1A"/>
</g>
<g clip-path="url(#clip1_44_450)">
<path d="M404.587 67.6717C400.888 54.5163 396.29 41.7074 389.676 29.9695C387.632 26.3363 385.283 22.6501 381.791 20.76C377.174 18.2307 371.409 19.489 367.089 22.6352C362.77 25.766 359.664 30.5494 356.988 35.4042C353.281 42.1038 350.177 49.2006 347.707 56.5269C346.828 51.8794 345.697 47.3026 344.327 42.8122C342.157 35.683 339.194 28.5046 333.905 23.7379C325.004 15.7302 311.379 16.7575 301.468 23.2803C291.542 29.7874 284.702 40.6723 279.108 51.801C269.996 69.8636 263.325 89.5156 260.519 109.933C257.714 130.35 258.872 151.519 264.927 171.012C266.791 176.985 269.157 182.893 273.029 187.549C276.915 192.191 282.504 195.433 288.223 194.939C293.718 194.487 298.653 190.635 301.983 185.78C305.299 180.91 307.218 175.103 308.831 169.288C312.205 157.203 314.447 144.77 315.55 132.218C318.134 138.959 321.183 145.45 324.655 151.675C327.34 156.487 331.02 161.599 336.179 161.813C339.197 161.93 342.105 160.206 344.235 157.851C346.379 155.465 347.814 152.465 349.152 149.448C351.696 143.656 353.841 137.701 355.6 131.583C358.035 144.05 362.709 155.988 369.382 166.425C373.194 172.428 378.261 178.308 384.849 179.321C391.341 180.317 397.814 176.164 401.736 170.389C405.659 164.614 407.498 157.456 408.792 150.393C413.85 122.967 412.062 94.2907 404.587 67.6717ZM335.639 48.8122C331.516 41.2388 327.994 32.9901 321.053 28.0313C320.067 27.334 320.381 25.8094 321.421 25.4202C332.165 21.3836 337.04 39.5611 338.044 47.7658C338.23 49.3329 336.426 50.2709 335.639 48.8122ZM388.921 49.0255C385.317 41.8779 381.035 34.5612 375.899 28.6338C375.384 28.0395 375.473 27.1837 375.947 26.5973C379.401 22.3737 384.365 29.0937 386.221 31.8491C389.355 36.5037 391.049 42.5798 391.597 48.2919C391.753 49.9195 389.546 50.2812 388.907 49.0252L388.921 49.0255Z" fill="#FF6D1A"/>
</g>
<g clip-path="url(#clip2_44_450)">
<path d="M549.059 64.9201C545.36 51.7648 540.762 38.9559 534.148 27.2179C532.104 23.5848 529.754 19.8985 526.263 18.0085C521.646 15.4791 515.881 16.7374 511.561 19.8836C507.242 23.0144 504.136 27.7978 501.46 32.6527C497.753 39.3522 494.648 46.4491 492.179 53.7753C491.3 49.1279 490.169 44.5511 488.799 40.0606C486.629 32.9314 483.666 25.753 478.377 20.9863C469.476 12.9786 455.851 14.0059 445.939 20.5287C436.014 27.0359 429.173 37.9207 423.58 49.0494C414.468 67.112 407.797 86.7641 404.991 107.181C402.186 127.599 403.343 148.768 409.399 168.26C411.263 174.233 413.629 180.141 417.501 184.798C421.387 189.439 426.976 192.681 432.695 192.188C438.19 191.735 443.125 187.883 446.455 183.029C449.771 178.158 451.69 172.351 453.302 166.537C456.677 154.452 458.919 142.018 460.022 129.466C462.606 136.207 465.654 142.698 469.127 148.923C471.812 153.736 475.491 158.848 480.651 159.061C483.669 159.178 486.577 157.454 488.707 155.099C490.851 152.714 492.286 149.714 493.623 146.697C496.168 140.904 498.313 134.949 500.072 128.832C502.506 141.299 507.181 153.236 513.853 163.673C517.665 169.677 522.733 175.556 529.321 176.57C535.813 177.565 542.286 173.413 546.208 167.637C550.131 161.862 551.97 154.705 553.264 147.642C558.322 120.215 556.534 91.5392 549.059 64.9201ZM480.111 46.0607C475.988 38.4872 472.466 30.2385 465.525 25.2797C464.539 24.5824 464.853 23.0578 465.892 22.6686C476.637 18.632 481.512 36.8095 482.516 45.0142C482.702 46.5813 480.898 47.5193 480.111 46.0607ZM533.393 46.2739C529.789 39.1264 525.507 31.8096 520.37 25.8822C519.855 25.2879 519.945 24.4321 520.418 23.8457C523.873 19.6221 528.837 26.3421 530.693 29.0975C533.827 33.7521 535.521 39.8282 536.069 45.5403C536.225 47.168 534.017 47.5296 533.379 46.2736L533.393 46.2739Z" fill="#FF6D1A"/>
</g>
<g clip-path="url(#clip3_44_450)">
<path d="M797.865 42.8903C796.825 38.144 795.348 33.0355 791.875 30.5319C788.326 27.9724 783.563 29.0102 780.122 31.838C776.669 34.6656 774.265 39.0061 772.118 43.3256C765.384 56.8861 760.221 71.593 756.8 86.8415C753.817 74.4728 749.774 62.4985 744.698 51.1899C740.346 41.4678 734.202 31.3788 725.144 29.7313C720.104 28.8008 714.894 30.7751 710.591 34.1238C706.288 37.4726 702.769 42.1521 699.604 47.0159C679.768 77.3692 671.452 118.236 677.413 156.002C678.404 162.317 679.819 168.669 682.789 174.002C685.737 179.321 690.466 183.504 695.789 183.846C700.252 184.141 704.656 181.701 708.071 178.128C711.474 174.542 714.008 169.92 716.265 165.198C722.601 151.952 727.11 137.46 729.609 122.474C733.423 138.935 739.694 154.547 748.11 168.221C752.168 174.811 757.256 181.343 763.974 182.692C769.969 183.889 776.138 180.571 780.56 175.479C784.971 170.388 787.878 163.691 790.339 156.944C803.393 121.303 806.09 80.3448 797.865 42.8633L797.865 42.8903ZM740.118 65.8564C738.423 56.1969 730.112 37.0596 719.792 41.0784C718.619 41.5378 718.043 39.4406 719.043 38.7471C724.816 34.6619 730.845 37.7533 735.202 42.9973C740.321 49.1656 742.667 56.7839 742.909 65.4757C742.964 67.4252 740.442 67.7176 740.117 65.8699L740.118 65.8564ZM796.509 55.8604C796.413 57.5358 794.325 57.9331 794.031 56.2079C793.372 52.377 792.371 48.8493 791.25 45.2104C790.004 41.1763 787.972 37.286 783.874 38.1095C782.785 38.3274 781.959 36.3867 783.124 35.7783C793.693 30.2365 797.054 46.4566 796.52 55.8742L796.509 55.8604Z" fill="#FF6D1A"/>
</g>
<g clip-path="url(#clip4_44_450)">
<path d="M693.869 31.2257C678.865 14.1888 656.218 37.8542 648.416 52.2349C640.9 66.0996 637.137 82.0446 632.338 97.3437C627.525 112.657 621.231 128.076 610.097 138.465C606.686 141.648 602.768 144.353 598.41 145.338C594.104 146.31 589.323 145.434 585.998 142.22C585.96 142.177 585.909 142.133 585.871 142.104C577.35 133.597 585.11 118.212 590.7 110.659C596.974 102.175 604.762 95.5358 611.718 87.8452C622.578 75.8251 632.769 60.8226 632.432 43.7356C632.102 27.4681 620.101 16.2656 605.689 19.2318C597.995 20.8163 591.168 25.7552 585.233 31.4497C561.704 53.9642 551.196 87.3803 553.365 121.49C554.102 133.176 556.591 144.847 561.671 155.095C566.751 165.33 574.54 174.074 584.179 178.652C599.145 185.771 616.896 182.078 630.973 172.917C645.049 163.77 656.06 149.775 666.157 135.491C683.182 111.382 698.964 83.7977 699.674 53.1032C699.859 45.2815 698.787 36.7944 693.882 31.226L693.869 31.2257ZM612.827 26.4208C631.632 26.4682 629.746 56.9513 618.28 66.0047C617.024 67.0064 615.668 65.0391 616.334 63.7834C620.963 55.134 625.517 32.6246 612.442 29.011C611.075 28.6398 611.49 26.4176 612.827 26.4208ZM578.53 146.833C572.828 138.209 573.978 128.517 577.882 119.285C578.541 117.733 580.598 119.137 579.951 120.676C576.598 128.607 577.814 138.114 580.104 146.164C580.415 147.259 579.044 147.622 578.53 146.847L578.53 146.833ZM690.074 62.8787C688.845 57.1709 689.518 51.1829 688.121 45.5135C686.592 39.3183 681.209 35.3491 675.364 35.5505C673.961 35.6022 673.807 33.31 675.101 32.945C681.371 31.1997 688.146 31.1898 692.346 37.5044C697.309 44.9671 695.548 54.7436 693.355 62.956C692.886 64.7108 690.46 64.6536 690.074 62.8787Z" fill="#FF6D1A"/>
</g>
<g clip-path="url(#clip5_44_450)">
<path d="M974.485 45.0726C970.202 40.6259 964.821 38.5396 959.52 36.9617C944.946 32.6591 929.815 31.5962 914.915 33.7248C907.373 34.8002 899.894 36.6903 892.559 39.3836C885.73 41.8889 880.629 45.7013 875.205 51.9456C869.98 57.968 865.968 66.3651 865.323 75.5215C864.687 84.7047 867.933 94.4992 873.994 98.5745C878.987 101.932 885.02 101.1 890.449 99.0155C896.187 96.8044 901.588 93.2923 906.639 88.9589C901.038 107.517 897.254 127.037 895.458 146.871C894.906 152.937 894.535 159.1 895.233 165.102C895.93 171.117 897.774 177.026 901.084 181.116C905.705 186.811 912.729 188.189 918.79 185.733C933.38 179.798 942.424 156.655 945.115 137.922C946.903 125.394 947.044 112.479 946.24 99.7031C952.396 102.781 959.354 103.051 965.565 99.8783C974.622 95.2526 982.573 81.5893 982.742 68.3559C982.861 59.4005 979.705 50.5279 974.484 45.0993L974.485 45.0726ZM971.457 60.2916C964.388 49.1006 951.562 45.6925 941.111 43.0468C940.207 42.8122 940.244 40.8001 941.168 40.6352C951.673 38.8031 971.078 42.073 974.152 58.3422C974.516 60.2437 972.483 61.9021 971.457 60.2783L971.457 60.2916Z" fill="#FF6D1A"/>
</g>
<g clip-path="url(#clip6_44_450)">
<path d="M1104.91 48.1501C1093.13 30.8626 1067.31 32.254 1057.35 51.1224C1051.6 62.0514 1052.49 76.8429 1059.51 86.7129C1062.04 90.2918 1065.49 93.8257 1065.27 98.3931C1065 104.359 1057.91 107.604 1053.06 105.117C1048.22 102.63 1045.67 96.5448 1044.74 90.6842C1043.82 84.797 1044.15 78.726 1043.1 72.889C1041.5 64.1197 1036.73 56.1957 1030.18 51.069C1023.64 45.9426 1015.41 43.6291 1007.42 44.4673C994.193 45.8621 982.024 56.2267 977.304 70.0994C972.776 83.4435 975.142 99.0295 982.23 110.834C989.317 122.639 1000.72 130.759 1012.98 134.554C1014.24 134.943 1015.48 135.279 1016.75 135.576C1013.56 137.02 1010.43 138.653 1007.46 140.649C1001.32 144.744 995.835 150.494 993.024 157.826C990.201 165.158 990.43 174.188 994.698 180.541C1003.04 192.948 1017.88 189.112 1029.15 185.018C1041.42 180.548 1052.89 173.233 1062.54 163.623C1068.58 157.619 1074.65 151.364 1080.12 144.68C1088.07 135.003 1094.88 124.179 1100.36 112.564C1105.87 100.922 1110.6 88.583 1111.43 75.405C1112.02 65.7943 1110.12 55.7914 1104.92 48.1503L1104.91 48.1501ZM1051.81 113.406C1047 112.026 1042.25 110.275 1039.48 105.331C1037.34 101.534 1036.04 94.1852 1039.21 90.6204C1039.63 90.1373 1040.37 90.1814 1040.79 90.6578C1043.23 93.4348 1042.57 98.3515 1044.15 101.761C1045.93 105.603 1050.12 107.608 1053.47 109.34C1055.63 110.457 1053.91 114.016 1051.82 113.407L1051.81 113.406ZM1102.76 63.9629C1097.72 53.2331 1089.12 45.9385 1077.79 47.0047C1076.5 47.1209 1076.37 44.8784 1077.55 44.5462C1089.67 41.0859 1103.18 48.2026 1105.13 62.9125C1105.33 64.4503 1103.47 65.4862 1102.76 63.9629Z" fill="#FF6D1A"/>
</g>
<g clip-path="url(#clip7_44_450)">
<path d="M836.834 24.3339C826.732 30.5445 821.853 47.6748 818.448 57.4438C809.454 83.2464 805.758 109.351 807.494 133.276C808.485 146.947 811.245 159.912 815.803 171.679C818.014 177.375 820.713 182.917 825.368 186.301C830.024 189.686 837.016 190.547 843.592 186.87C848.869 183.922 853.18 178.479 855.893 172.878C858.606 167.276 859.934 161.47 861.048 155.768C869.425 113.147 867.901 71.7231 856.656 36.2722C854.213 28.5576 847.984 17.4676 836.829 24.3211L836.834 24.3339ZM856.239 51.3868C856.237 52.3442 854.821 52.2769 854.513 51.3366C852.81 46.067 847.75 29.0739 841.008 32.64C840.147 33.0856 838.735 32.0321 839.22 30.9082C841.044 26.6746 846.422 26.9962 849.772 30.9673C854.412 36.4554 856.213 44.9246 856.239 51.3868Z" fill="#FF6D1A"/>
</g>
<g clip-path="url(#clip8_44_450)">
<path d="M275.624 63.5463C274.261 18.332 238.891 1.42928 210.815 13.6302C193.511 21.134 178.769 37.2181 166.183 55.1952C156.295 69.3212 147.329 85.1138 142.153 103.298C136.954 121.466 135.849 142.345 141.392 160.108C148.703 183.455 167.042 198.328 185.68 199.507C204.329 200.703 222.801 189.526 236.858 172.422C250.915 155.302 260.883 132.691 268.135 108.996C272.563 94.5277 276.122 79.1341 275.636 63.5465L275.624 63.5463ZM183.87 126.814C173.623 122.543 169.261 105.154 177.167 94.0405C177.95 92.9405 179.4 94.126 179.017 95.5809C176.13 106.418 177.511 117.668 184.66 124.432C185.53 125.258 184.93 127.251 183.87 126.814ZM200.421 120.675C196.435 121.518 192.193 121.484 188.558 119.162C184.91 116.855 181.999 111.885 182.057 106.36C182.08 102.314 183.673 98.4702 185.866 95.6928C192.073 87.8125 210.116 80.0465 216.856 90.3864C225.893 104.202 208.745 118.88 200.421 120.675ZM267.063 77.4733C266.415 79.4811 264.196 79.2644 264.204 76.8796C264.212 65.8433 262.794 54.5925 258.412 45.1963C254.121 36.016 245.831 25.6888 238.071 22.4467C236.69 21.8714 237.361 18.9102 238.742 19.4855C248.561 23.582 257.639 28.5328 263.886 40.3908C269.535 51.1163 271.032 65.1158 267.075 77.4736L267.063 77.4733Z" fill="#FF6D1A"/>
</g>
<path d="M639.126 203.406C636.194 203.554 623.932 204 611.804 204.446C583.682 205.485 531.969 208.53 510.511 210.386C457.866 214.916 446.671 215.955 428.545 217.886C365.504 224.866 316.324 232.441 270.609 242.243C220.362 253.01 211.299 255.238 211.299 256.797C211.299 257.614 212.232 258.356 213.565 258.505C214.765 258.653 228.226 256.871 243.553 254.644C269.543 250.782 287.669 248.48 341.247 241.946C387.894 236.228 406.953 234.149 438.541 231.253C488.52 226.649 489.853 226.574 492.652 226.871C495.184 227.168 495.051 227.168 492.519 227.985C491.053 228.431 476.925 231.03 461.198 233.777C429.877 239.198 408.819 243.431 373.234 251.376C346.445 257.391 341.913 258.728 339.248 261.624C336.182 264.891 336.849 266.748 341.78 269.495C347.644 272.762 350.71 272.762 390.693 269.421C407.886 268.01 422.547 266.822 423.48 266.822C424.413 266.822 426.012 267.936 427.079 269.347C430.544 273.951 429.344 273.876 494.518 273.951C527.171 273.951 554.893 274.025 556.359 274.099C558.359 274.248 557.826 274.842 553.161 277.663C546.63 281.673 540.233 288.876 539.033 293.703C537.834 298.604 540.632 300.98 547.696 300.98C554.094 300.98 555.426 300.089 557.292 294.743C559.158 288.802 561.557 286.129 568.355 281.896C572.486 279.297 577.817 277.218 585.814 274.916C592.078 273.134 597.943 271.277 598.742 270.757C600.608 269.495 599.009 266.376 596.21 265.708C594.877 265.485 581.549 264.743 566.489 264.149C551.428 263.554 538.233 262.886 537.167 262.663C534.102 261.995 538.367 261.253 569.687 257.168C663.916 244.916 663.249 245.064 666.581 243.356C671.913 240.683 668.181 235.337 659.784 233.406C655.386 232.441 646.856 232.812 613.136 235.634C537.7 241.946 522.773 243.059 516.642 243.059C506.646 243.059 513.577 241.5 540.632 237.787C604.873 228.951 659.518 223.455 723.492 219.297C736.153 218.48 747.748 217.441 749.081 217.069C755.079 215.287 757.611 210.089 754.412 206.599C750.947 203.109 748.548 202.96 694.837 203.109C667.114 203.183 642.058 203.332 639.126 203.406Z" fill="#FF6D1A"/>
<defs>
<clipPath id="clip0_44_450">
<rect width="148.355" height="190.742" fill="white" transform="translate(7.4917 4.54791) rotate(1.34936)"/>
</clipPath>
<clipPath id="clip1_44_450">
<rect width="152.343" height="177.667" fill="white" transform="translate(261.713 16.6908) rotate(1.34936)"/>
</clipPath>
<clipPath id="clip2_44_450">
<rect width="152.343" height="177.667" fill="white" transform="translate(406.185 13.9392) rotate(1.34936)"/>
</clipPath>
<clipPath id="clip3_44_450">
<rect width="126.022" height="156.901" fill="white" transform="translate(677.949 26.4952) rotate(1.34936)"/>
</clipPath>
<clipPath id="clip4_44_450">
<rect width="145.165" height="163.823" fill="white" transform="translate(555.296 17.4515) rotate(1.34936)"/>
</clipPath>
<clipPath id="clip5_44_450">
<rect width="117.248" height="154.593" fill="white" transform="translate(866.337 31.1409) rotate(1.34936)"/>
</clipPath>
<clipPath id="clip6_44_450">
<rect width="136.24" height="154.593" fill="white" transform="translate(976.172 33.5199) rotate(1.34936)"/>
</clipPath>
<clipPath id="clip7_44_450">
<rect width="87.9839" height="160.042" fill="white" transform="matrix(0.961612 -0.274414 0.365344 0.930872 765.69 43.9938)"/>
</clipPath>
<clipPath id="clip8_44_450">
<rect width="136.391" height="190.742" fill="white" transform="translate(140.655 7.68457) rotate(1.34936)"/>
</clipPath>
</defs>
</svg>
