<svg width="395" height="183" viewBox="0 0 395 183" fill="none" xmlns="http://www.w3.org/2000/svg">
<g clip-path="url(#clip0_42_240)">
<path d="M58.0653 50.1896C57.3816 44.4361 53.9422 41.0692 50.7043 41.1173C44.7571 41.2041 40.0203 49.5816 34.0074 49.7986C32.5735 49.8526 30.968 49.405 30.1351 47.3216C29.4926 45.7111 29.4794 43.4202 29.931 41.5428C30.3825 39.6727 31.2324 38.1778 32.1805 37.0805C34.574 34.2974 37.5224 33.8033 40.3214 33.9498C43.1159 34.0961 45.9197 34.7988 48.7031 34.0887C51.4865 33.3785 54.3553 30.9432 55.751 26.4242C57.6605 20.2414 56.0534 12.0657 52.9926 8.01988C49.9273 3.97391 45.8466 3.31428 42.0248 4.01463C29.7957 6.2367 18.3686 21.9212 13.6976 42.9021C12.256 49.3667 11.4198 56.3578 11.7326 63.2223C12.0455 70.0869 13.5925 76.8194 16.3641 81.3634C20.2995 87.8083 26.1211 89.0651 31.4595 87.837C40.3582 85.7926 48.8807 77.4823 54.8687 65.0215C56.874 60.8534 58.6924 55.4954 58.0608 50.1895L58.0653 50.1896ZM41.3558 7.32864C45.258 6.06669 49.512 7.35244 52.1071 12.5436C54.4372 17.2016 54.9643 23.7126 52.4236 28.5632C51.9079 29.5537 50.8998 28.4469 51.1552 27.2966C53.6601 15.9831 47.567 9.34108 41.436 8.67707C40.9805 8.62975 40.8731 7.48559 41.3558 7.32864ZM35.4134 55.2984C32.5534 56.9801 28.5716 57.4424 26.7615 52.7528C24.7069 47.4206 26.4794 42.6836 27.7435 37.4809C27.9716 36.5422 28.7986 37.1618 28.4962 38.0255C27.2958 41.4734 26.7952 46.9502 28.1018 50.3986C29.4803 54.0243 33.0019 54.4732 35.358 54.4189C35.685 54.412 35.6858 55.1365 35.4089 55.2983L35.4134 55.2984ZM55.2257 57.0896C54.8383 57.7611 54.0181 57.2295 54.0985 56.2874C54.3225 53.6215 54.2422 50.1874 52.99 48.2332C51.1291 45.3207 47.3364 46.6876 45.2245 48.3503C44.6679 48.791 44.3598 47.4298 44.9318 47.092C46.9432 45.8953 48.5308 44.0666 50.7386 44.0308C52.0911 44.0114 53.4254 44.5697 54.4955 45.8976C56.6613 48.5978 57.1857 53.7036 55.2301 57.0897L55.2257 57.0896Z" fill="#FF6D1A"/>
</g>
<g clip-path="url(#clip1_42_240)">
<path d="M136.902 29.8662C135.787 24.0254 134.39 18.3416 132.36 13.1405C131.732 11.5307 131.009 9.89812 129.924 9.06821C128.489 7.95739 126.683 8.53516 125.324 9.94824C123.964 11.3545 122.978 13.4921 122.127 15.6602C120.947 18.6521 119.955 21.8189 119.161 25.0857C118.9 23.021 118.561 20.9885 118.147 18.9951C117.491 15.8305 116.587 12.6463 114.949 10.5423C112.192 7.00776 107.931 7.50724 104.813 10.4399C101.691 13.3656 99.5195 18.2292 97.7367 23.1973C94.8327 31.261 92.6865 40.0243 91.746 49.1158C90.8055 58.2074 91.1013 67.6211 92.933 76.2736C93.4969 78.9248 94.218 81.5457 95.4134 83.6052C96.6133 85.658 98.35 87.0827 100.139 86.8453C101.858 86.6268 103.412 84.8979 104.468 82.7279C105.519 80.5509 106.137 77.9615 106.659 75.3699C107.752 69.9833 108.491 64.4453 108.875 58.8579C109.661 61.8485 110.594 64.7265 111.66 67.4851C112.484 69.6176 113.618 71.8801 115.229 71.959C116.172 72.0017 117.086 71.2257 117.759 70.1713C118.437 69.1035 118.895 67.7646 119.322 66.4181C120.135 63.8334 120.824 61.1775 121.393 58.4507C122.115 63.9891 123.539 69.285 125.591 73.9072C126.764 76.566 128.329 79.1659 130.385 79.5961C132.411 80.0187 134.447 78.1512 135.691 75.5698C136.934 72.9883 137.532 69.7986 137.958 66.6526C139.624 54.4358 139.155 41.6846 136.902 29.8662ZM115.413 21.6914C114.148 18.3352 113.073 14.6766 110.919 12.4923C110.614 12.1852 110.716 11.506 111.043 11.3296C114.413 9.50037 115.88 17.5716 116.168 21.2184C116.221 21.915 115.654 22.3379 115.413 21.6914ZM132.064 21.6201C130.96 18.4517 129.645 15.2101 128.058 12.5893C127.899 12.3265 127.93 11.9455 128.079 11.6832C129.172 9.79349 130.702 12.7675 131.274 13.9875C132.239 16.0483 132.749 18.7461 132.903 21.2854C132.947 22.009 132.255 22.1768 132.06 21.62L132.064 21.6201Z" fill="#FF6D1A"/>
</g>
<g clip-path="url(#clip2_42_240)">
<path d="M182.061 28.1915C180.946 22.3508 179.549 16.6669 177.518 11.4658C176.891 9.85598 176.168 8.22344 175.083 7.39353C173.648 6.28271 171.842 6.86048 170.482 8.27355C169.123 9.67981 168.137 11.8174 167.286 13.9855C166.106 16.9774 165.114 20.1442 164.32 23.411C164.059 21.3463 163.72 19.3138 163.306 17.3205C162.65 14.1558 161.746 10.9716 160.108 8.86762C157.351 5.33307 153.09 5.83256 149.972 8.7652C146.85 11.6909 144.678 16.5545 142.896 21.5226C139.992 29.5864 137.845 38.3496 136.905 47.4411C135.964 56.5327 136.26 65.9465 138.092 74.5989C138.656 77.2501 139.377 79.8711 140.572 81.9305C141.772 83.9833 143.509 85.408 145.298 85.1706C147.017 84.9521 148.571 83.2232 149.627 81.0532C150.678 78.8762 151.296 76.2868 151.818 73.6952C152.91 68.3086 153.65 62.7706 154.034 57.1832C154.82 60.1738 155.753 63.0519 156.819 65.8104C157.642 67.9429 158.777 70.2055 160.388 70.2843C161.331 70.327 162.245 69.551 162.918 68.4966C163.596 67.4288 164.054 66.0899 164.481 64.7435C165.294 62.1587 165.983 59.5029 166.552 56.776C167.274 62.3144 168.698 67.6103 170.75 72.2325C171.923 74.8913 173.488 77.4912 175.544 77.9214C177.57 78.344 179.606 76.4765 180.85 73.8951C182.093 71.3136 182.69 68.1239 183.117 64.9779C184.783 52.7611 184.314 40.0099 182.061 28.1915ZM160.572 20.0168C159.307 16.6605 158.232 13.002 156.078 10.8177C155.772 10.5105 155.875 9.8313 156.201 9.65493C159.572 7.82569 161.039 15.8969 161.327 19.5437C161.38 20.2403 160.813 20.6632 160.572 20.0168ZM177.223 19.9454C176.119 16.777 174.804 13.5355 173.217 10.9146C173.058 10.6518 173.089 10.2708 173.238 10.0085C174.331 8.11881 175.861 11.0928 176.433 12.3128C177.398 14.3736 177.908 17.0714 178.062 19.6107C178.105 20.3343 177.414 20.5021 177.219 19.9453L177.223 19.9454Z" fill="#FF6D1A"/>
</g>
<g clip-path="url(#clip3_42_240)">
<path d="M259.887 17.6152C259.577 15.507 259.131 13.2391 258.053 12.1362C256.952 11.0086 255.46 11.4852 254.376 12.7539C253.288 14.0225 252.523 15.9609 251.839 17.8892C249.692 23.9427 248.033 30.5013 246.916 37.2954C246.022 31.8024 244.796 26.4881 243.245 21.4732C241.915 17.1618 240.027 12.6928 237.201 11.9881C235.629 11.5899 233.995 12.4845 232.639 13.9876C231.284 15.4907 230.17 17.5834 229.165 19.757C222.872 33.3218 220.145 51.5277 221.89 68.3098C222.18 71.1159 222.603 73.9371 223.514 76.3002C224.419 78.6572 225.884 80.5037 227.546 80.6392C228.94 80.7563 230.324 79.6572 231.402 78.0572C232.477 76.4512 233.284 74.3873 234.004 72.2793C236.025 66.3673 237.48 59.9062 238.307 53.2317C239.448 60.5425 241.359 67.4681 243.947 73.5248C245.194 76.4437 246.764 79.3341 248.859 79.9132C250.729 80.4267 252.667 78.9313 254.065 76.6527C255.46 74.3739 256.389 71.3859 257.179 68.3766C261.37 52.4807 262.341 34.2515 259.887 17.6032L259.887 17.6152ZM241.768 28.012C241.268 23.7202 238.731 15.2327 235.493 17.0527C235.125 17.2607 234.951 16.3296 235.266 16.0179C237.083 14.1826 238.958 15.539 240.303 17.8582C241.883 20.5863 242.593 23.9681 242.642 27.8339C242.653 28.7011 241.864 28.839 241.768 28.018L241.768 28.012ZM259.422 23.3893C259.387 24.1349 258.734 24.3182 258.647 23.5516C258.453 21.8495 258.151 20.2833 257.812 18.668C257.435 16.8772 256.813 15.153 255.529 15.5321C255.188 15.6324 254.936 14.7716 255.302 14.4973C258.622 11.9991 259.622 19.2042 259.426 23.3954L259.422 23.3893Z" fill="#FF6D1A"/>
</g>
<g clip-path="url(#clip4_42_240)">
<path d="M227.422 12.7507C222.786 5.21849 215.635 15.8169 213.152 22.2386C210.759 28.4299 209.534 35.5349 207.986 42.3558C206.434 49.1829 204.419 56.0619 200.907 60.7184C199.831 62.1449 198.598 63.3604 197.233 63.8122C195.885 64.2581 194.393 63.8836 193.364 62.464C193.352 62.4449 193.337 62.4257 193.325 62.4128C190.688 58.6549 193.161 51.7867 194.932 48.4091C196.919 44.6156 199.374 41.6376 201.572 38.1947C205.003 32.8135 208.235 26.1077 208.183 18.5075C208.13 11.2718 204.415 6.32567 199.902 7.69014C197.492 8.41905 195.343 10.6375 193.47 13.1892C186.047 23.2784 182.659 38.1766 183.23 53.3441C183.424 58.5404 184.166 63.7244 185.721 68.2677C187.277 72.8046 189.684 76.6703 192.682 78.6768C197.337 81.7971 202.896 80.099 207.324 75.9795C211.752 71.8664 215.236 65.6065 218.436 59.2205C223.832 48.4425 228.851 36.1219 229.168 22.465C229.25 18.9849 228.942 15.2127 227.426 12.7508L227.422 12.7507ZM202.11 10.866C207.987 10.8284 207.302 24.395 203.691 28.4583C203.295 28.9078 202.877 28.0368 203.089 27.4761C204.563 23.6139 206.056 13.5862 201.981 12.0195C201.555 11.8586 201.692 10.8687 202.11 10.866ZM191.016 64.5394C189.261 60.7206 189.65 56.4054 190.899 52.2865C191.11 51.5938 191.748 52.2122 191.542 52.8987C190.469 56.4373 190.819 60.663 191.51 64.2368C191.604 64.723 191.174 64.8889 191.016 64.5457L191.016 64.5394ZM226.137 26.8437C225.771 24.3083 226 21.6425 225.581 19.1247C225.123 16.3735 223.453 14.6245 221.625 14.7323C221.187 14.7597 221.146 13.7405 221.551 13.5741C223.516 12.7781 225.634 12.7526 226.926 15.5486C228.454 18.853 227.873 23.2076 227.163 26.8678C227.01 27.6499 226.253 27.6321 226.137 26.8437Z" fill="#FF6D1A"/>
</g>
<g clip-path="url(#clip5_42_240)">
<path d="M315.077 18.0352C313.753 16.0704 312.077 15.159 310.426 14.4736C305.884 12.6051 301.159 12.1794 296.496 13.1728C294.136 13.6747 291.792 14.5389 289.492 15.7599C287.349 16.8957 285.743 18.6076 284.029 21.4024C282.377 24.0978 281.097 27.8458 280.867 31.9211C280.64 36.0083 281.624 40.3554 283.505 42.1494C285.055 43.6273 286.943 43.2387 288.646 42.2943C290.446 41.2928 292.145 39.7135 293.737 37.77C291.929 46.0431 290.685 54.7387 290.062 63.5675C289.871 66.2677 289.736 69.0107 289.935 71.6785C290.134 74.3522 290.692 76.9751 291.714 78.7845C293.14 81.3033 295.331 81.8947 297.233 80.7829C301.811 78.0971 304.709 67.7738 305.609 59.4319C306.207 53.8528 306.291 48.1074 306.08 42.4262C307.994 43.7761 310.168 43.8748 312.119 42.4438C314.964 40.3578 317.491 34.2548 317.585 28.3672C317.65 24.3829 316.692 20.4457 315.077 18.0471L315.077 18.0352ZM314.084 24.815C311.909 19.8586 307.912 18.3824 304.654 17.2381C304.372 17.1365 304.39 16.2413 304.679 16.1651C307.968 15.3173 314.022 16.7114 314.932 23.9393C315.04 24.7841 314.399 25.5282 314.084 24.809L314.084 24.815Z" fill="#FF6D1A"/>
</g>
<g clip-path="url(#clip6_42_240)">
<path d="M355.827 18.9976C352.199 11.3438 344.126 12.0434 340.955 20.4682C339.125 25.348 339.358 31.9253 341.519 36.2942C342.298 37.8784 343.365 39.4398 343.284 41.4723C343.18 44.127 340.953 45.593 339.445 44.5017C337.942 43.4105 337.163 40.7112 336.892 38.107C336.622 35.4908 336.745 32.7891 336.433 30.1957C335.962 26.2996 334.496 22.7894 332.465 20.5292C330.437 18.269 327.872 17.2655 325.371 17.6633C321.234 18.3251 317.398 22.9738 315.88 29.16C314.423 35.1103 315.114 42.0365 317.292 47.2658C319.47 52.4951 323.008 56.0719 326.829 57.7219C327.221 57.8912 327.609 58.0368 328.005 58.1648C327.001 58.8173 326.018 59.5533 325.083 60.4506C323.152 62.2913 321.421 64.8662 320.519 68.1368C319.614 71.4074 319.658 75.4239 320.971 78.2366C323.539 83.7301 328.19 81.9772 331.725 80.121C335.573 78.0942 339.179 74.8042 342.227 70.4987C344.133 67.8093 346.049 65.0074 347.779 62.0173C350.294 57.6874 352.456 52.851 354.204 47.6667C355.964 42.4708 357.481 36.9668 357.78 31.1018C357.996 26.8246 357.433 22.3807 355.831 18.9977L355.827 18.9976ZM339.03 48.193C337.53 47.5942 336.052 46.8299 335.201 44.639C334.544 42.9568 334.162 39.6915 335.162 38.0959C335.297 37.8796 335.528 37.8969 335.657 38.1075C336.412 39.3353 336.189 41.5246 336.671 43.0366C337.217 44.7398 338.52 45.6187 339.562 46.3787C340.233 46.869 339.684 48.4575 339.034 48.1931L339.03 48.193ZM355.105 26.0388C353.565 21.2812 350.9 18.063 347.355 18.5726C346.951 18.6284 346.919 17.6312 347.288 17.4797C351.089 15.9025 355.286 19.0263 355.851 25.5641C355.91 26.2475 355.325 26.7142 355.105 26.0388Z" fill="#FF6D1A"/>
</g>
<g clip-path="url(#clip7_42_240)">
<path d="M272.123 9.23887C268.947 12.0332 267.369 19.669 266.274 24.0255C263.383 35.532 262.146 47.1564 262.614 57.7945C262.881 63.8728 263.703 69.6318 265.091 74.8522C265.764 77.3791 266.59 79.8362 268.035 81.3272C269.479 82.8183 271.661 83.1795 273.728 81.5237C275.387 80.1956 276.751 77.7607 277.616 75.2605C278.481 72.7602 278.915 70.1732 279.28 67.6332C282.031 48.6466 281.684 30.2235 278.281 14.4879C277.541 11.0636 275.629 6.14956 272.122 9.23317L272.123 9.23887ZM278.103 21.213C278.1 21.639 277.657 21.6135 277.564 21.1961C277.048 18.8572 275.52 11.3134 273.402 12.9209C273.131 13.1218 272.693 12.6575 272.848 12.1561C273.431 10.267 275.111 10.3933 276.146 12.1494C277.579 14.5764 278.115 18.3384 278.103 21.213Z" fill="#FF6D1A"/>
</g>
<g clip-path="url(#clip8_42_240)">
<path d="M96.6113 28.4332C96.3264 8.32349 85.3251 0.914493 76.5128 6.42974C71.0816 9.82185 66.4243 17.023 62.4346 25.0595C59.3004 31.3745 56.4492 38.4279 54.7749 46.5336C53.0933 54.6318 52.6829 63.9235 54.3598 71.8081C56.5717 82.1715 62.2567 88.7308 68.0778 89.1972C73.9024 89.6711 79.7102 84.6412 84.1565 76.9887C88.603 69.3289 91.7886 59.2389 94.1291 48.6754C95.5579 42.2251 96.7184 35.3661 96.615 28.4333L96.6113 28.4332ZM67.739 56.8649C64.5497 54.9968 63.2407 47.2746 65.7462 42.306C65.9943 41.8142 66.4439 42.3371 66.3197 42.9854C65.3836 47.8153 65.7803 52.8157 67.9931 55.8024C68.2624 56.1673 68.0688 57.0556 67.739 56.8649ZM72.9306 54.0818C71.6822 54.4696 70.3567 54.4676 69.2278 53.4458C68.0951 52.4311 67.2006 50.2292 67.236 47.7712C67.2558 45.9714 67.7657 44.2563 68.4596 43.0139C70.4241 39.4889 76.0872 35.9778 78.1612 40.5566C80.9425 46.6743 75.5375 53.2577 72.9306 54.0818ZM93.8923 34.6555C93.6835 35.5507 92.9908 35.4612 93.0008 34.4003C93.0376 29.4907 92.6296 24.4901 91.2895 20.3238C89.9771 16.2532 87.4184 11.6849 85.0034 10.2669C84.5737 10.0152 84.7925 8.69581 85.2222 8.94743C88.2781 10.7392 91.0998 12.9133 93.0151 18.1689C94.747 22.9226 95.1712 29.1458 93.8961 34.6556L93.8923 34.6555Z" fill="#FF6D1A"/>
</g>
<path d="M255.139 89.3881C253.692 89.4911 247.644 89.8 241.661 90.1089C227.788 90.8297 202.278 92.9406 191.693 94.2277C165.723 97.3683 160.201 98.0891 151.259 99.4277C120.161 104.267 95.9002 109.519 73.349 116.315C48.5625 123.78 44.0917 125.325 44.0917 126.406C44.0917 126.972 44.552 127.487 45.2094 127.59C45.8012 127.693 52.4416 126.457 60.0025 124.913C72.8231 122.236 81.7646 120.64 108.195 116.109C131.206 112.145 140.608 110.703 156.19 108.695C180.845 105.503 181.502 105.451 182.883 105.657C184.132 105.863 184.067 105.863 182.817 106.43C182.094 106.739 175.125 108.541 167.367 110.446C151.916 114.204 141.528 117.139 123.974 122.648C110.759 126.818 108.524 127.745 107.209 129.752C105.696 132.018 106.025 133.305 108.458 135.21C111.351 137.475 112.863 137.475 132.587 135.158C141.068 134.18 148.3 133.356 148.761 133.356C149.221 133.356 150.01 134.129 150.536 135.107C152.245 138.299 151.653 138.248 183.804 138.299C199.912 138.299 213.587 138.351 214.31 138.402C215.296 138.505 215.033 138.917 212.732 140.873C209.511 143.653 206.355 148.648 205.763 151.994C205.171 155.392 206.552 157.04 210.037 157.04C213.192 157.04 213.85 156.422 214.77 152.715C215.691 148.596 216.874 146.743 220.227 143.808C222.265 142.006 224.895 140.564 228.84 138.968C231.93 137.733 234.823 136.446 235.218 136.085C236.138 135.21 235.349 133.048 233.968 132.584C233.311 132.43 226.736 131.915 219.307 131.503C211.877 131.091 205.369 130.628 204.843 130.473C203.33 130.01 205.434 129.495 220.885 126.663C267.368 118.168 267.039 118.271 268.683 117.087C271.313 115.234 269.472 111.527 265.33 110.188C263.16 109.519 258.952 109.776 242.318 111.733C205.106 116.109 197.742 116.881 194.718 116.881C189.787 116.881 193.205 115.8 206.552 113.226C238.242 107.099 265.198 103.289 296.757 100.406C303.002 99.8396 308.722 99.1188 309.38 98.8614C312.339 97.6258 313.588 94.0218 312.01 91.602C310.3 89.1822 309.117 89.0792 282.621 89.1822C268.946 89.2337 256.585 89.3366 255.139 89.3881Z" fill="#FF6D1A"/>
<defs>
<clipPath id="clip0_42_240">
<rect width="46.3531" height="84.8673" fill="white" transform="translate(12.9985 3.0235) rotate(1.34936)"/>
</clipPath>
<clipPath id="clip1_42_240">
<rect width="47.5991" height="79.0498" fill="white" transform="translate(92.41 7.63248) rotate(1.34936)"/>
</clipPath>
<clipPath id="clip2_42_240">
<rect width="47.5991" height="79.0498" fill="white" transform="translate(137.569 5.95779) rotate(1.34936)"/>
</clipPath>
<clipPath id="clip3_42_240">
<rect width="39.3752" height="69.8102" fill="white" transform="translate(222.462 10.6959) rotate(1.34936)"/>
</clipPath>
<clipPath id="clip4_42_240">
<rect width="45.3562" height="72.8901" fill="white" transform="translate(184.158 7.05518) rotate(1.34936)"/>
</clipPath>
<clipPath id="clip5_42_240">
<rect width="36.6339" height="68.7836" fill="white" transform="translate(281.322 12.1749) rotate(1.34936)"/>
</clipPath>
<clipPath id="clip6_42_240">
<rect width="42.5679" height="68.7836" fill="white" transform="translate(315.64 12.8907) rotate(1.34936)"/>
</clipPath>
<clipPath id="clip7_42_240">
<rect width="28.7093" height="68.4495" fill="white" transform="matrix(0.92362 -0.38331 0.260171 0.965563 249.828 18.2066)"/>
</clipPath>
<clipPath id="clip8_42_240">
<rect width="42.6149" height="84.8673" fill="white" transform="translate(54.605 4.00357) rotate(1.34936)"/>
</clipPath>
</defs>
</svg>
