<svg width="248" height="234" viewBox="0 0 248 234" fill="none" xmlns="http://www.w3.org/2000/svg">
<path fill-rule="evenodd" clip-rule="evenodd" d="M125.12 25.9677V25.9677L126.093 25.9472L127.069 25.863L128.05 25.7154L129.039 25.5049L130.037 25.2319L131.047 24.8974L132.071 24.5022L133.111 24.0477L134.169 23.5351L135.247 22.9662L136.346 22.3429L137.469 21.6673L138.616 20.942L139.79 20.1699L140.992 19.3542L142.223 18.4985L143.483 17.6067L144.773 16.6833L146.094 15.7332L147.446 14.7618L148.828 13.7747L150.239 12.7784L151.68 11.7795L153.147 10.7852L154.64 9.80312L156.156 8.84133L157.693 7.90811L159.246 7.01211L160.813 6.16218L162.388 5.36728L163.969 4.63641L165.549 3.97849L167.123 3.40224L168.685 2.91607L170.23 2.5279L171.751 2.24508L173.242 2.07422L174.697 2.02113L176.11 2.09059L177.475 2.28636L178.786 2.61099L180.038 3.06583L181.226 3.65099L182.346 4.36521L183.394 5.20602L184.369 6.16962L185.267 7.2511L186.087 8.44433L186.829 9.74223L187.494 11.1368L188.083 12.6192L188.597 14.1802L189.04 15.8099L189.415 17.498L189.726 19.2342L189.977 21.0081L190.175 22.8093L190.324 24.6277L190.431 26.4535L190.501 28.2774L190.542 30.0902L190.559 31.8836L190.56 33.6497L190.551 35.3811L190.539 37.071L190.53 38.7134L190.533 40.3026L190.552 41.8335L190.596 43.3014L190.67 44.7023L190.783 46.0324L190.939 47.2882L191.147 48.4667L191.413 49.5649L191.746 50.58L192.151 51.5094L192.638 52.3505L193.216 53.1006L193.892 53.7569L194.67 54.3223L195.548 54.8047L196.523 55.2123L197.59 55.5525L198.748 55.8323L199.994 56.0587L201.323 56.2383L202.733 56.3774L204.22 56.4825L205.779 56.5597L207.406 56.6154L209.096 56.6558L210.844 56.687L212.643 56.7153L214.487 56.7469L216.368 56.788L218.279 56.8447L220.211 56.9233L222.154 57.0295L224.099 57.1694L226.036 57.3485L227.955 57.5721L229.844 57.8454L231.693 58.1729L233.489 58.5588L235.222 59.0069L236.882 59.5201L238.457 60.1009L239.937 60.7509L241.312 61.4714L242.575 62.2624L243.718 63.1236L244.733 64.0536L245.616 65.0506L246.363 66.1119L246.97 67.2341L247.437 68.4134L247.764 69.6453L247.951 70.925L248.003 72.2473L247.923 73.6068L247.715 74.9978L247.387 76.4146L246.946 77.8515L246.398 79.3031L245.754 80.7638L245.022 82.2285L244.211 83.6924L243.331 85.1508L242.392 86.5997L241.404 88.0354L240.375 89.4545L239.316 90.8541L238.234 92.2318L237.14 93.5855L236.041 94.9138L234.944 96.2153L233.858 97.4892L232.788 98.735L231.742 99.9527L230.724 101.142L229.74 102.304L228.795 103.439L227.894 104.548L227.039 105.632L226.234 106.692L225.483 107.73L224.787 108.747L224.15 109.745L223.574 110.725L223.06 111.69L222.609 112.641L222.223 113.58L221.904 114.51L221.65 115.432L221.465 116.349L221.346 117.261L221.296 118.173L221.314 119.085L221.4 120L221.554 120.919L221.775 121.845L222.062 122.781L222.415 123.727L222.833 124.686L223.315 125.66L223.859 126.651L224.462 127.661L225.125 128.69L225.843 129.742L226.614 130.816L227.436 131.916L228.305 133.041L229.216 134.194L230.167 135.374L231.151 136.582L232.165 137.82L233.202 139.086L234.256 140.38L235.321 141.703L236.389 143.052L237.452 144.427L238.504 145.826L239.534 147.247L240.535 148.687L241.497 150.143L242.41 151.612L243.266 153.089L244.054 154.572L244.765 156.053L245.389 157.53L245.918 158.996L246.344 160.446L246.657 161.874L246.851 163.275L246.92 164.642L246.859 165.969L246.663 167.252L246.33 168.484L245.857 169.661L245.246 170.779L244.496 171.833L243.611 172.82L242.595 173.737L241.452 174.583L240.19 175.356L238.815 176.056L237.336 176.682L235.762 177.237L234.104 177.723L232.371 178.14L230.575 178.494L228.727 178.787L226.837 179.025L224.918 179.211L222.979 179.352L221.031 179.452L219.085 179.518L217.149 179.555L215.234 179.57L213.347 179.569L211.497 179.558L209.69 179.544L207.933 179.534L206.233 179.532L204.594 179.547L203.023 179.583L201.522 179.649L200.097 179.749L198.751 179.89L197.487 180.079L196.309 180.322L195.219 180.627L194.221 181L193.317 181.449L192.509 181.982L191.802 182.607L191.193 183.328L190.673 184.143L190.233 185.048L189.866 186.042L189.565 187.12L189.321 188.28L189.127 189.52L188.978 190.835L188.865 192.223L188.783 193.679L188.725 195.199L188.683 196.779L188.652 198.413L188.624 200.095L188.594 201.82L188.554 203.581L188.498 205.37L188.419 207.179L188.311 208.999L188.168 210.823L187.984 212.639L187.752 214.439L187.468 216.211L187.126 217.947L186.722 219.634L186.252 221.263L185.712 222.824L185.101 224.306L184.416 225.699L183.655 226.995L182.819 228.187L181.908 229.265L180.923 230.225L179.866 231.061L178.74 231.77L177.549 232.348L176.296 232.794L174.987 233.109L173.625 233.293L172.218 233.35L170.77 233.282L169.288 233.095L167.778 232.794L166.246 232.386L164.697 231.879L163.139 231.28L161.575 230.597L160.011 229.841L158.453 229.019L156.905 228.14L155.371 227.215L153.853 226.251L152.357 225.258L150.883 224.244L149.435 223.217L148.014 222.185L146.621 221.155L145.258 220.134L143.925 219.128L142.622 218.143L141.349 217.185L140.105 216.259L138.891 215.368L137.704 214.518L136.544 213.711L135.41 212.952L134.3 212.242L133.212 211.584L132.145 210.982L131.096 210.435L130.065 209.947L129.048 209.518L128.044 209.151L127.051 208.844L126.066 208.601L125.088 208.42L124.114 208.303L123.141 208.25L122.168 208.26L121.193 208.334L120.212 208.471L119.225 208.672L118.228 208.935L117.22 209.26L116.198 209.645L115.161 210.091L114.106 210.594L113.032 211.154L111.936 211.769L110.817 212.436L109.674 213.154L108.504 213.919L107.307 214.728L106.081 215.577L104.826 216.464L103.54 217.382L102.224 218.329L100.878 219.297L99.5004 220.282L98.0934 221.277L96.6575 222.276L95.1941 223.272L93.705 224.256L92.1925 225.222L90.6591 226.16L89.1082 227.063L87.5434 227.921L85.9687 228.725L84.3888 229.467L82.8085 230.137L81.2333 230.726L79.6687 231.228L78.1207 231.632L76.5954 231.932L75.099 232.121L73.6376 232.193L72.2176 232.143L70.8448 231.968L69.5249 231.664L68.2633 231.23L67.0648 230.666L65.9336 229.972L64.8734 229.151L63.8872 228.207L62.9769 227.143L62.1442 225.968L61.3894 224.686L60.7122 223.306L60.1116 221.837L59.5857 220.288L59.1317 218.668L58.7463 216.989L58.4255 215.26L58.1647 213.491L57.9588 211.694L57.8023 209.877L57.6893 208.052L57.6135 206.227L57.5687 204.412L57.5481 202.615L57.5452 200.844L57.5531 199.107L57.5652 197.41L57.5745 195.759L57.5744 194.161L57.558 192.621L57.5186 191.143L57.4495 189.731L57.3439 188.389L57.195 187.121L56.9957 185.93L56.7391 184.819L56.4179 183.791L56.0244 182.847L55.5507 181.992L54.9884 181.227L54.3286 180.556L53.5662 179.977L52.7039 179.482L51.7447 179.063L50.6917 178.712L49.5478 178.423L48.3161 178.189L46.9999 178.002L45.6026 177.857L44.1279 177.747L42.5799 177.666L40.9632 177.607L39.2825 177.565L37.5435 177.532L35.7521 177.504L33.9149 177.473L32.0392 177.434L30.1327 177.38L28.2039 177.306L26.2619 177.204L24.3162 177.07L22.3769 176.898L20.4546 176.681L18.56 176.416L16.7044 176.098L14.8989 175.721L13.1547 175.283L11.4828 174.781L9.8939 174.211L8.39822 173.572L7.0053 172.863L5.7239 172.083L4.56184 171.233L3.52583 170.314L2.62143 169.327L1.8529 168.276L1.22316 167.163L0.733737 165.993L0.384776 164.769L0.175038 163.496L0.101953 162.181L0.161684 160.827L0.349225 159.44L0.658504 158.027L1.08251 156.593L1.61344 155.144L2.24282 153.684L2.96166 152.219L3.76061 150.755L4.63006 149.296L5.56033 147.845L6.54171 146.407L7.56466 144.985L8.61982 143.582L9.69814 142.201L10.7909 140.843L11.8899 139.511L12.9873 138.205L14.0757 136.926L15.1484 135.676L16.199 134.454L17.2217 133.26L18.2111 132.094L19.1626 130.954L20.0716 129.842L20.9343 128.754L21.7472 127.69L22.5072 126.649L23.2116 125.629L23.8579 124.628L24.4441 123.645L24.9684 122.678L25.4292 121.724L25.8254 120.783L26.1558 119.852L26.4196 118.929L26.6162 118.012L26.7451 117.098L26.8061 116.187L26.7989 115.275L26.7239 114.361L26.581 113.442L26.3709 112.517L26.094 111.583L25.7511 110.639L25.3433 109.682L24.8718 108.71L24.3379 107.722L23.7435 106.716L23.0904 105.69L22.381 104.642L21.6179 103.571L20.804 102.476L19.9426 101.354L19.0375 100.206L18.0929 99.0306L17.1134 97.8266L16.104 96.594L15.0704 95.3326L14.0186 94.0426L12.9551 92.7246L11.8871 91.3794L10.8222 90.0083L9.76825 88.6129L8.73381 87.1955L7.72768 85.7584L6.75901 84.3046L5.8372 82.8375L4.9718 81.361L4.17241 79.8793L3.4486 78.397L2.80975 76.9191L2.2649 75.4509L1.82267 73.998L1.49107 72.566L1.27737 71.1608L1.18798 69.7882L1.22829 68.454L1.40257 67.1639L1.7139 65.9231L2.16403 64.7368L2.75338 63.6094L3.48098 62.5451L4.34451 61.5473L5.34025 60.6187L6.46322 59.7614L7.70722 58.9769L9.06491 58.2655L10.528 57.6272L12.0872 57.0608L13.7329 56.5647L15.4544 56.1364L17.241 55.7727L19.0817 55.47L20.9653 55.224L22.8808 55.0298L24.8173 54.8824L26.7642 54.7762L28.7114 54.7054L30.6492 54.664L32.5683 54.6459L34.4603 54.6448L36.3172 54.6543L38.1315 54.6681L39.8965 54.6798L41.6062 54.683L43.2548 54.6715L44.8374 54.6388L46.3495 54.5786L47.7868 54.4846L49.1458 54.3504L50.4228 54.1695L51.6148 53.9352L52.7189 53.6408L53.732 53.2791L54.6515 52.8427L55.4744 52.3238L56.1977 51.714L56.8222 51.0079L57.356 50.2078L57.8077 49.3165L58.1856 48.337L58.4971 47.272L58.7498 46.1244L58.9507 44.8973L59.1067 43.5938L59.2247 42.2174L59.3113 40.772L59.3731 39.2618L59.4169 37.6912L59.4493 36.0655L59.477 34.3902L59.5064 32.6715L59.5444 30.9162L59.5975 29.1314L59.6722 27.3251L59.775 25.5057L59.9121 23.6822L60.0897 21.864L60.3136 20.061L60.5891 18.2833L60.9215 16.5413L61.3153 14.8455L61.7745 13.2064L62.3026 11.6344L62.9025 10.1395L63.576 8.73129L64.3245 7.41886L65.1486 6.21043L66.0478 5.1134L67.0211 4.13416L68.0667 3.27801L69.1817 2.54903L70.3629 1.95005L71.6062 1.48261L72.9071 1.14695L74.2605 0.941975L75.6608 0.865377L77.1024 0.913654L78.5793 1.08219L80.0854 1.36535L81.6146 1.75663L83.1609 2.24875L84.7185 2.83381L86.2818 3.50341L87.8456 4.2488L89.4048 5.061L90.9549 5.93089L92.4919 6.84941L94.012 7.80757L95.5121 8.79656L96.9895 9.80789L98.4418 10.8334L99.8673 11.8653L101.264 12.8962L102.632 13.9192L103.97 14.9278L105.278 15.9162L106.556 16.8788L107.805 17.8106L109.024 18.7071L110.215 19.5641L111.379 20.3779L112.517 21.1453L113.631 21.8632L114.722 22.5292L115.792 23.1409L116.844 23.6963L117.878 24.1939L118.897 24.632L119.902 25.0096L120.897 25.3257L121.883 25.5793L122.862 25.77L123.837 25.8973L124.81 25.9609L125.12 25.9677Z" fill="#FF6D1A"/>
</svg>
