<svg width="400" height="666" viewBox="0 0 400 666" fill="none" xmlns="http://www.w3.org/2000/svg">
<path d="M3 75C3 35.2355 35.2355 3 75 3H325C364.764 3 397 35.2355 397 75V509.212C397 540.021 368.991 563.24 338.716 557.528L314.768 553.01C281.196 546.677 254.313 580.631 268.177 611.855C278.858 635.912 261.248 663 234.926 663H177.043C150.523 663 132.955 635.488 144.111 611.43C158.472 580.458 132.118 546.109 98.4843 551.962L65.8383 557.642C33.0284 563.351 3 538.096 3 504.793V75Z" stroke="#FF6D1A" stroke-width="6"/>
</svg>
