<?xml version="1.0" standalone="no"?>
<!DOCTYPE svg PUBLIC "-//W3C//DTD SVG 20010904//EN"
 "http://www.w3.org/TR/2001/REC-SVG-20010904/DTD/svg10.dtd">
<svg version="1.0" xmlns="http://www.w3.org/2000/svg"
 width="320.000000pt" height="308.000000pt" viewBox="0 0 320.000000 308.000000"
 preserveAspectRatio="xMidYMid meet">

<g transform="translate(0.000000,308.000000) scale(0.100000,-0.100000)"
fill="#ff6d1a" stroke="none">
<path d="M1657 2923 c-14 -16 -61 -129 -180 -431 -44 -112 -43 -137 4 -137 26
0 23 -5 106 168 38 79 59 114 64 105 5 -7 9 -54 9 -105 0 -125 18 -238 42
-268 23 -30 58 -32 82 -6 17 18 17 33 2 263 -24 363 -38 428 -90 428 -12 0
-30 -8 -39 -17z"/>
<path d="M887 2832 c-10 -10 -17 -26 -17 -35 0 -22 103 -312 168 -472 44 -108
51 -120 75 -123 41 -5 43 19 14 122 -27 91 -32 126 -21 126 3 0 26 -22 51 -50
47 -52 80 -63 103 -35 20 25 5 55 -104 207 -204 286 -226 307 -269 260z"/>
<path d="M2061 2442 c-236 -232 -250 -250 -209 -275 14 -9 38 9 142 107 69 65
126 121 126 125 0 10 60 54 66 48 2 -2 -9 -61 -26 -131 -41 -171 -48 -243 -26
-252 28 -11 41 15 60 114 16 91 68 261 119 392 25 66 23 100 -6 100 -7 0 -117
-103 -246 -228z"/>
<path d="M2655 2228 c-33 -17 -141 -68 -240 -113 -162 -73 -180 -84 -180 -106
0 -34 27 -29 157 31 102 48 138 59 138 42 0 -4 -19 -30 -42 -57 -110 -132
-159 -208 -156 -239 4 -39 38 -58 79 -44 32 11 66 51 197 227 109 149 161 245
145 269 -16 26 -33 24 -98 -10z"/>
<path d="M313 2171 c-46 -44 -27 -75 95 -163 48 -34 150 -109 226 -166 77 -56
147 -101 155 -100 38 7 22 44 -46 108 -164 154 -183 173 -183 179 0 4 72 7
160 7 151 -1 161 0 181 21 20 19 21 25 9 52 -20 49 -116 68 -400 77 -170 6
-176 6 -197 -15z"/>
<path d="M2323 1523 c-23 -9 -14 -51 15 -70 15 -11 75 -41 135 -68 59 -27 107
-54 107 -60 0 -7 -41 -16 -105 -22 -112 -12 -135 -22 -135 -58 0 -52 52 -65
175 -45 33 5 105 14 160 20 138 14 167 25 163 58 -4 33 -37 52 -283 161 -192
84 -213 92 -232 84z"/>
<path d="M849 1423 c-45 -47 -182 -210 -319 -379 -57 -71 -140 -166 -184 -211
-64 -67 -79 -89 -79 -113 0 -72 63 -81 157 -24 175 109 527 347 536 364 15 29
-4 60 -36 60 -24 0 -144 -60 -236 -117 -46 -28 -73 -31 -59 -5 5 9 55 68 110
130 145 161 221 260 221 286 0 58 -60 62 -111 9z"/>
<path d="M2113 1144 c-3 -8 7 -107 23 -219 15 -113 25 -208 20 -212 -4 -4 -19
8 -33 27 -67 89 -221 218 -320 269 -52 26 -64 26 -93 3 -31 -25 -21 -61 22
-86 65 -38 180 -129 252 -201 84 -83 151 -174 210 -283 35 -65 45 -78 69 -80
45 -5 60 14 52 67 -15 105 -139 704 -150 720 -10 17 -45 13 -52 -5z"/>
<path d="M1216 1118 c-19 -26 -21 -119 -6 -248 5 -47 14 -157 20 -245 6 -88
12 -182 15 -210 2 -27 7 -90 11 -138 6 -79 9 -90 31 -104 39 -26 73 -2 96 67
29 89 190 702 195 742 5 43 -22 67 -52 45 -15 -11 -85 -208 -136 -379 -14 -48
-28 -78 -36 -78 -8 0 -14 10 -14 23 -1 84 -31 444 -40 479 -18 66 -56 87 -84
46z"/>
</g>
</svg>
