<svg width="1233" height="846" viewBox="0 0 1233 846" fill="none" xmlns="http://www.w3.org/2000/svg">
<path d="M75 3H1158C1197.76 3 1230 35.2355 1230 75V645.719C1230 687.683 1194.26 720.755 1152.42 717.502L823.516 691.932C779.024 688.473 742.353 726.326 747.219 770.686C751.453 809.28 721.231 843 682.405 843H536.912C498.02 843 467.612 809.452 471.422 770.747C475.807 726.211 438.827 688.557 394.219 692.136L80.7584 717.287C38.8582 720.648 3 687.552 3 645.517V75C3 35.2355 35.2355 3 75 3Z" stroke="#FF6D1A" stroke-width="6"/>
</svg>
