<svg width="1233" height="846" viewBox="0 0 1233 846" fill="none" xmlns="http://www.w3.org/2000/svg">
<path d="M3 75C3 35.2355 35.2355 3 75 3H1158C1197.76 3 1230 35.2355 1230 75V645.719C1230 687.683 1194.26 720.755 1152.42 717.502L826.291 692.148C783.013 688.784 749.578 729.49 761.285 771.289C771.372 807.304 744.299 843 706.899 843H578.516C540.432 843 511.913 808.087 519.514 770.769C528.263 727.819 493.617 688.375 449.898 691.509L80.1493 718.021C38.4639 721.01 3 687.998 3 646.206V75Z" stroke="#FF6D1A" stroke-width="6"/>
</svg>
