<svg width="119" height="83" viewBox="0 0 119 83" fill="none" xmlns="http://www.w3.org/2000/svg">
<path d="M92.8166 1.0402C92.1809 1.16496 89.5224 1.53921 86.8929 1.91347C80.7958 2.78674 69.5841 5.34416 64.9318 6.90356C53.5179 10.7085 51.0906 11.5818 47.1607 13.2036C33.4929 19.0669 22.8302 25.4293 12.9188 33.663C2.02499 42.7075 0.0600586 44.5788 0.0600586 45.8887C0.0600586 46.5748 0.262331 47.1986 0.551292 47.3234C0.811357 47.4481 3.72986 45.9511 7.05292 44.0798C12.6877 40.8362 16.6175 38.9026 28.2338 33.4135C38.3474 28.6105 42.4795 26.864 49.3279 24.4313C60.164 20.564 60.4529 20.5016 61.0597 20.7511C61.6088 21.0006 61.5799 21.0006 61.0308 21.6867C60.713 22.061 57.65 24.2442 54.2403 26.5521C47.4497 31.1055 42.8841 34.661 35.1688 41.3352C29.3607 46.3877 28.3782 47.5105 27.8003 49.9432C27.1357 52.6877 27.2802 54.2471 28.3493 56.555C29.6208 59.2996 30.2854 59.2996 38.9542 56.4927C42.6818 55.3075 45.8604 54.3095 46.0627 54.3095C46.2649 54.3095 46.6117 55.2451 46.8429 56.4303C47.5942 60.2976 47.3341 60.2352 61.4643 60.2976C68.5438 60.2976 74.5542 60.36 74.8721 60.4224C75.3055 60.5471 75.1899 61.0461 74.1786 63.4164C72.7627 66.7847 71.3757 72.8352 71.1156 76.8897C70.8555 81.0065 71.4623 83.0026 72.9938 83.0026C74.3809 83.0026 74.6698 82.254 75.0744 77.763C75.4789 72.7729 75.999 70.5273 77.4727 66.9719C78.3685 64.7887 79.5244 63.0422 81.2581 61.1085C82.6162 59.6115 83.8877 58.0521 84.061 57.6154C84.4656 56.555 84.1188 53.9352 83.512 53.3739C83.2231 53.1867 80.3335 52.563 77.0682 52.064C73.8029 51.5649 70.9422 51.0036 70.711 50.8164C70.0464 50.255 70.9711 49.6313 77.7617 46.2006C98.1912 35.9085 98.0468 36.0333 98.7692 34.5986C99.925 32.3531 99.1159 27.862 97.2955 26.2402C96.3419 25.4293 94.4925 25.7412 87.1818 28.1115C70.8266 33.4135 67.5903 34.3491 66.261 34.3491C64.0938 34.3491 65.5964 33.0392 71.4623 29.9204C85.3903 22.4976 97.2377 17.8818 111.108 14.3887C113.853 13.7026 116.367 12.8293 116.656 12.5174C117.956 11.0204 118.505 6.65406 117.812 3.72238C117.06 0.790695 116.54 0.665947 104.895 0.790695C98.8848 0.853073 93.4523 0.977821 92.8166 1.0402Z" fill="#FF6D1A"/>
</svg>
