<?xml version="1.0" standalone="no"?>
<!DOCTYPE svg PUBLIC "-//W3C//DTD SVG 20010904//EN"
 "http://www.w3.org/TR/2001/REC-SVG-20010904/DTD/svg10.dtd">
<svg version="1.0" xmlns="http://www.w3.org/2000/svg"
 width="616.000000pt" height="202.000000pt" viewBox="0 0 616.000000 202.000000"
 preserveAspectRatio="xMidYMid meet">

<g transform="translate(0.000000,202.000000) scale(0.100000,-0.100000)"
fill="#ff6d1a" stroke="none">
<path d="M3835 1624 c-22 -2 -114 -8 -205 -14 -211 -14 -599 -55 -760 -80
-395 -61 -479 -75 -615 -101 -473 -94 -842 -196 -1185 -328 -377 -145 -445
-175 -445 -196 0 -11 7 -21 17 -23 9 -2 110 22 225 52 195 52 331 83 733 171
350 77 493 105 730 144 375 62 385 63 406 59 19 -4 18 -4 -1 -15 -11 -6 -117
-41 -235 -78 -235 -73 -393 -130 -660 -237 -201 -81 -235 -99 -255 -138 -23
-44 -18 -69 19 -106 44 -44 67 -44 367 1 129 19 239 35 246 35 7 0 19 -15 27
-34 26 -62 17 -61 506 -62 245 0 453 -1 464 -2 15 -2 11 -10 -24 -48 -49 -54
-97 -151 -106 -216 -9 -66 12 -98 65 -98 48 0 58 12 72 84 14 80 32 116 83
173 31 35 71 63 131 94 47 24 91 49 97 56 14 17 2 59 -19 68 -10 3 -110 13
-223 21 -113 8 -212 17 -220 20 -23 9 9 19 244 74 707 165 702 163 727 186 40
36 12 108 -51 134 -33 13 -97 8 -350 -30 -566 -85 -678 -100 -724 -100 -75 0
-23 21 180 71 482 119 892 193 1372 249 95 11 182 25 192 30 45 24 64 94 40
141 -26 47 -44 49 -447 47 -208 -1 -396 -3 -418 -4z"/>
</g>
</svg>
